ply
format ascii 1.0
element vertex 778
property float x
property float y
property float z
element face 1538
property list uchar int vertex_indices
end_header
0.0250499 -0.0323174 0.363493
0.0341884 -0.0337809 0.359358
0.0261575 -0.0400083 0.360096
0.0184154 -0.0392072 0.364241
0.0395514 -0.0463367 0.347615
0.0468287 -0.0545956 0.347258
0.0320212 -0.0608989 0.351844
0.0274324 -0.053631 0.350799
0.0136465 -0.0450396 0.367009
0.0195637 -0.0450908 0.36131
0.0150131 -0.0471432 0.371942
0.0101206 -0.0453473 0.380204
0.00878431 -0.0429406 0.373628
0.00414457 -0.0426091 0.385308
0.019237 -0.0452722 0.387888
0.00774988 -0.0379767 0.392809
0.0310641 -0.0213032 0.394767
0.0344948 -0.00956478 0.39229
0.0189187 -0.00611854 0.394824
0.0161596 -0.0184872 0.396193
0.0289079 0.00909262 0.385336
0.0227674 0.00101554 0.39099
0.0383208 -0.00225433 0.38943
0.0431725 0.00488683 0.384452
0.0340354 -0.0192764 0.361655
0.0437298 -0.0199616 0.357634
0.0405903 -0.0248656 0.358664
0.0314152 -0.0240335 0.362092
0.0208565 -0.0558949 0.377652
0.0275311 -0.055399 0.37968
0.020897 -0.0507829 0.378028
0.0173921 -0.0534083 0.373909
0.066433 -0.0153259 0.342905
0.0793923 -0.0178786 0.345138
0.0786027 -0.0232935 0.346965
0.0671144 -0.0197538 0.344635
0.0684108 -0.0437874 0.348521
0.0775281 -0.0401999 0.352263
0.0847038 -0.0476527 0.361735
0.0748661 -0.0514719 0.361169
0.0573853 -0.0496312 0.346806
0.0639539 -0.0569395 0.356063
0.0520848 -0.0613024 0.354933
0.0380083 -0.0652582 0.35897
0.0816538 -0.0057027 0.344295
0.0727133 -0.00251887 0.34132
-0.0419485 -0.0287888 0.382495
-0.0416252 -0.0234894 0.380668
-0.0370498 -0.0245289 0.380585
-0.0383876 -0.0293961 0.382858
0.0799811 0.00999138 0.356762
0.0817897 0.0110657 0.366554
0.0883637 0.0103455 0.363985
0.086872 0.00748821 0.354922
0.0706484 0.0125048 0.359032
0.0725717 0.0110015 0.370034
-0.043538 -0.0291595 0.395039
-0.0437705 -0.0315385 0.391001
-0.039604 -0.0322249 0.392317
-0.0389589 -0.02938 0.396184
0.0105222 -0.038609 0.368259
0.0155058 -0.031193 0.365554
-0.00628713 -0.0328562 0.373943
0.00304866 -0.0312794 0.371088
0.00326829 -0.0380039 0.373399
-0.00418034 -0.0381488 0.376788
0.0139505 -0.0112465 0.366854
0.0247617 -0.0140976 0.364403
0.0217658 -0.0193413 0.365963
0.00914367 -0.0178611 0.368191
0.0286264 -0.00207147 0.357889
0.0175005 -0.000520702 0.361383
0.0212991 0.00604368 0.357198
0.0283923 0.00357934 0.35462
-0.00120802 0.000154686 0.370208
-0.0073618 0.0019314 0.374241
-0.00678124 0.00453865 0.373018
0.000322578 0.00276518 0.369014
0.094982 0.00925557 0.361721
0.093159 0.00442395 0.353208
0.0359183 0.0239258 0.373445
0.0399376 0.0263152 0.363688
0.0285725 0.0318116 0.364185
0.0274022 0.0274965 0.374788
0.0810769 0.00626353 0.375759
0.0883786 0.00777148 0.373506
-0.0425269 -0.0241577 0.397507
-0.0380996 -0.0242001 0.398319
0.0570939 -0.0610891 0.366741
0.0408885 -0.0658249 0.366881
0.0701864 -0.0548738 0.369584
0.0788949 -0.0497721 0.372527
0.0875629 -0.0480576 0.373618
0.000215052 -0.0247186 0.370877
0.022348 -0.0250598 0.365
0.0360088 -0.0146195 0.359722
0.0397528 0.0118763 0.346088
0.0491355 0.00891308 0.343596
0.0436374 0.000390797 0.346674
0.0366791 0.00511515 0.348474
0.0381104 0.0251942 0.353665
0.033544 0.0206139 0.349281
0.0259822 0.0236044 0.351622
0.0288032 0.0288684 0.35544
0.0247338 -0.0626253 0.379964
0.033156 -0.0600283 0.379621
0.0772857 0.00534619 0.348198
0.0836487 0.00109441 0.347566
0.0917447 -0.00163184 0.347995
0.0551714 -0.0187859 0.349627
0.0674539 -0.0228262 0.345573
0.0653902 -0.0270418 0.346369
0.0538616 -0.0216918 0.351083
0.0418283 -0.0348925 0.352212
0.052184 -0.0388833 0.346533
0.03166 -0.04123 0.353302
0.0793639 -0.0309344 0.348803
0.088269 -0.0258926 0.346092
0.0879807 -0.0334689 0.349628
0.0890891 -0.016489 0.345158
0.0901863 -0.00710724 0.345333
0.0966667 0.00900726 0.373776
0.0870144 -0.0400687 0.355139
0.0209921 -0.0585854 0.355766
0.0160299 -0.0625047 0.361092
0.0140929 -0.0562362 0.362994
0.0179953 -0.0526945 0.35905
-0.00350186 -0.0396139 0.389749
-0.00477851 -0.040412 0.382174
0.00399499 -0.0432139 0.378278
0.0577218 -0.00870791 0.34315
0.0634403 0.00202717 0.341734
-0.00906876 -0.026364 0.374375
-0.034201 -0.0295361 0.397093
-0.035096 -0.0327887 0.392934
-0.0185462 -0.0359122 0.391732
-0.0180159 -0.0321645 0.396832
-0.0144671 -0.0200008 0.381433
-0.0133683 -0.024676 0.377119
-0.0154367 -0.0233425 0.379136
-0.0168561 -0.0187421 0.382292
-0.00214496 0.010267 0.368712
0.00399895 0.00903574 0.365077
0.00131258 -0.0153041 0.395111
0.00275635 -0.0270695 0.399244
0.0136432 -0.0290609 0.397032
0.0167355 -0.0053766 0.3641
0.00694614 -0.00209965 0.366517
0.00817866 0.00137809 0.365092
-0.00257257 -0.0209083 0.372031
-0.0091812 -0.0204305 0.375533
-0.00567115 -0.0165576 0.374392
0.000595955 -0.0163707 0.371015
0.0514453 0.0222165 0.362568
0.0494314 0.0211923 0.351224
-0.0429193 -0.0316161 0.386148
-0.039525 -0.0324114 0.387136
0.0274103 -0.00808853 0.361394
0.0268786 -0.0311225 0.39395
0.0376445 -0.00997165 0.357455
0.0113434 0.0196835 0.379286
0.00831832 0.0222172 0.372618
0.00214758 0.0210485 0.373813
0.00335578 0.0208545 0.380393
-0.0306535 -0.0158219 0.385157
-0.0320289 -0.0188653 0.380685
-0.0360266 -0.0187684 0.381306
-0.0353778 -0.0154561 0.385652
-0.0126603 -0.0303514 0.376341
-0.0115563 -0.0360055 0.379065
-0.017467 -0.0335652 0.380096
-0.0168415 -0.0278213 0.378475
-0.0120623 -0.0379907 0.384577
-0.0178524 -0.0362013 0.385484
-0.0300161 -0.0155685 0.391519
-0.0312059 -0.0191187 0.397867
-0.0164194 -0.0200384 0.396667
-0.0181646 -0.0175433 0.389874
0.0574101 0.00190213 0.384218
0.0598313 0.00995362 0.377489
0.045778 0.0137043 0.37807
0.0327076 0.0181734 0.378951
0.0193958 0.0210827 0.378899
0.0174177 0.0130209 0.386985
0.0485167 0.018943 0.37283
-0.00950951 -0.0152581 0.387272
-0.0064274 -0.019856 0.394774
-0.00502273 -0.0151662 0.392025
0.0387204 -0.00418199 0.353261
-0.0349606 -0.0334067 0.387463
0.0823264 -0.0329511 0.388075
0.0834155 -0.0207143 0.388738
0.0747186 -0.0219047 0.389172
0.0730481 -0.0358987 0.387642
-0.0333191 -0.0250841 0.379537
-0.0345535 -0.0306848 0.381957
0.00493423 0.015445 0.362729
-0.000548864 0.0153864 0.366984
-0.000704797 0.0186396 0.36893
0.00357581 0.0209777 0.362279
0.061915 0.0134394 0.373419
0.0210486 0.0336171 0.363303
0.0199861 0.0304101 0.373066
0.0720412 0.00661783 0.377284
0.0700202 -6.7481e-05 0.383683
0.0792837 -0.00111956 0.383227
0.00700363 0.00414912 0.391625
0.0529589 -0.00439513 0.388068
0.0666884 -0.00628024 0.386746
0.0776531 -0.00779626 0.386329
0.0860703 -0.00799728 0.386373
0.0866624 -0.000748211 0.382884
-0.0328564 -0.0242114 0.398685
-0.0369683 -0.0182338 0.397372
0.0961402 0.000354453 0.383124
0.0950723 -0.00746754 0.386925
0.063583 -0.0142993 0.389201
0.0599837 -0.0244328 0.391381
0.0501837 -0.0118377 0.390528
0.0457439 -0.0217945 0.392803
0.00823059 -0.00485761 0.396909
-0.0507355 -0.0143182 0.391182
-0.0409707 -0.0146731 0.391629
-0.0406863 -0.0149001 0.385998
-0.0507343 -0.0133588 0.386926
-0.0357395 -0.0151586 0.391524
-0.0414484 -0.0181813 0.396434
0.0415837 -0.0344218 0.391043
-0.0114487 -0.0151908 0.378485
0.0570728 -0.0404359 0.387118
0.0330796 -0.0479184 0.388519
0.0442607 -0.0526278 0.38399
0.0717512 -0.0473941 0.382007
0.0588048 -0.055723 0.378997
0.0889466 -0.041818 0.382696
0.0802612 -0.0435253 0.382858
0.0457079 -0.0614702 0.375191
-0.0518168 -0.0251171 0.380935
-0.0505547 -0.0201011 0.379769
0.0910055 -0.0321633 0.387876
0.023181 -0.0471758 0.35579
0.0476591 -0.0089544 0.350123
0.0463718 -0.0128587 0.353346
0.0548456 0.00684907 0.34266
0.0498422 -0.00376509 0.345133
-0.0524901 -0.0284816 0.384537
-0.00983113 0.00424586 0.379273
-0.00722611 0.00436041 0.378424
0.0260312 -0.0645143 0.357547
0.0215676 -0.0683668 0.362663
0.0267512 -0.0700313 0.374047
0.0248869 -0.0705859 0.367652
0.0313223 -0.0678004 0.363688
0.0332385 -0.0681998 0.370192
0.0553354 -0.0166771 0.348575
0.0555057 -0.0135219 0.346771
0.0616996 0.0172063 0.360441
0.0586646 0.016269 0.349565
-0.01127 -0.0365985 0.391057
-0.00171727 -0.0345515 0.395875
-0.010052 -0.0324671 0.396215
-0.0156694 -0.0261809 0.398676
-0.0130167 -0.0147909 0.383011
-0.0122784 -0.0181929 0.387518
0.0590965 -0.032617 0.346513
0.0498004 -0.0276482 0.352124
0.016765 -0.0497296 0.363774
0.0145428 -0.0525228 0.367644
0.00531509 -0.0104404 0.368864
-0.00421348 0.00314753 0.391896
-0.00300198 -0.00468219 0.39603
-0.00303021 -0.00869054 0.372461
-0.053111 -0.0273479 0.393154
-0.053202 -0.0290239 0.388561
-0.00739927 -0.0265963 0.398756
0.0111617 0.00791316 0.360465
0.00129905 0.00670695 0.387996
-0.00759141 0.00551663 0.386156
0.0230267 0.0305179 0.355456
0.0924462 -0.0208324 0.388157
-0.041432 -0.0175818 0.381168
-0.0498923 -0.0156963 0.38136
-0.0506846 -0.0170654 0.394745
-0.0512595 -0.0223891 0.396144
0.0668945 0.010323 0.348672
0.0452568 -0.0157 0.35542
0.0355838 -0.0641441 0.375667
0.0274859 -0.0667073 0.378722
-0.00781974 -0.00716402 0.375188
0.014589 0.0249911 0.374956
0.00846052 0.0154216 0.386855
0.000576844 0.017076 0.387717
-0.00396577 0.0114408 0.388024
-0.0077238 0.00713479 0.383945
-0.0550107 -0.0160028 0.393707
-0.0554719 -0.021435 0.394903
-0.0577446 -0.0262723 0.392813
-0.0580539 -0.0281514 0.388682
-0.0563569 -0.0272829 0.384305
-0.0553948 -0.0130897 0.390099
-0.0555071 -0.0123127 0.386563
-0.0537531 -0.0146115 0.381505
-0.0597692 -0.0119635 0.388862
-0.0624112 -0.0144486 0.392258
-0.0706295 -0.0242358 0.389172
-0.0658164 -0.0242404 0.391946
-0.0673748 -0.0224842 0.39237
-0.0719358 -0.0216707 0.390932
-0.0763526 -0.0197653 0.390061
-0.0754533 -0.0224936 0.387861
-0.0644841 -0.0196094 0.393345
-0.0702318 -0.0176032 0.391828
-0.0692089 -0.0139122 0.391121
-0.0743137 -0.0128885 0.390178
-0.0758206 -0.0161026 0.391144
-0.0650882 -0.0154614 0.392342
-0.0624538 -0.0203677 0.393978
-0.0786729 -0.0192597 0.387507
-0.0786211 -0.018026 0.389705
-0.078157 -0.0148622 0.390163
-0.0799728 -0.0149026 0.387409
-0.0625629 -0.0271647 0.388153
-0.070032 -0.0252461 0.386825
-0.0744761 -0.0221546 0.385211
-0.077783 -0.0192748 0.385021
-0.0698468 -0.0233562 0.38332
-0.0734733 -0.020828 0.383088
-0.0759848 -0.018038 0.382795
-0.068996 -0.0203557 0.380702
-0.0726637 -0.0185541 0.381219
-0.0583415 -0.0237329 0.381288
-0.0593778 -0.0268075 0.38413
-0.0747196 -0.0172833 0.381194
-0.0795429 -0.0144891 0.385303
-0.0665646 -0.0118511 0.389351
-0.0732852 -0.0110195 0.387535
-0.06592 -0.010832 0.387027
-0.0723383 -0.00986928 0.385429
-0.0776596 -0.0110051 0.387928
-0.0770054 -0.0125634 0.389399
-0.054165 -0.0240206 0.381081
-0.0532272 -0.0186048 0.380057
-0.0567176 -0.0182879 0.379876
-0.0676706 -0.0160069 0.379571
-0.0570787 -0.0139407 0.381216
-0.0598577 -0.0115265 0.385423
-0.0665126 -0.0106361 0.38437
-0.0666599 -0.0118131 0.381686
-0.0715118 -0.0103961 0.383349
-0.071242 -0.0119385 0.381678
-0.0718314 -0.015242 0.380222
-0.075362 -0.0116174 0.38299
-0.0768739 -0.0107932 0.385636
-0.0772419 -0.0145663 0.382991
-0.0739681 -0.012401 0.381673
-0.0749694 -0.0148352 0.381778
-0.0442654 -0.00334318 0.378862
-0.0428768 0.00179246 0.377011
-0.0384421 0.00047252 0.37753
-0.0394368 -0.00390648 0.379041
-0.0458801 -0.00286572 0.393185
-0.046249 -0.00522964 0.387437
-0.0418408 -0.00698606 0.388665
-0.0412744 -0.00384052 0.394758
-0.0440182 0.00343205 0.39518
-0.039275 0.0025257 0.396841
-0.0359503 -0.00545812 0.3956
-0.0365275 -0.00838108 0.389071
-0.0162247 -0.0120798 0.388206
-0.0154774 -0.00944472 0.394295
-0.0136287 0.00105215 0.37726
-0.0142965 0.00316688 0.38049
-0.0455928 -0.00499265 0.382232
-0.0407025 -0.00654178 0.383243
-0.0324793 0.00805488 0.381323
-0.0331623 0.00395511 0.377571
-0.0374669 0.00480142 0.377709
-0.0366697 0.00927745 0.381506
-0.0145006 -0.010305 0.380028
-0.0136083 -0.00474331 0.378124
-0.0162358 -0.0117065 0.383757
-0.0324143 0.0101135 0.38799
-0.0331078 0.00826041 0.394139
-0.0141187 0.00443351 0.394284
-0.0145312 0.0062562 0.388703
-0.0360293 -0.00799274 0.383536
-0.034428 -0.000793339 0.377384
-0.0351008 -0.00533331 0.378709
-0.0340216 0.0012745 0.397311
-0.0382809 0.00936727 0.393477
-0.0534167 0.0136862 0.384137
-0.041979 0.0120478 0.386044
-0.0416404 0.0104161 0.380681
-0.053524 0.0132856 0.378766
-0.0372214 0.0111924 0.387213
-0.042796 0.00987843 0.391584
-0.0577181 0.00217267 0.37536
-0.0561005 0.00736016 0.373577
-0.058813 -0.000271551 0.378716
-0.0143008 -0.00273209 0.397011
-0.0569638 0.000812649 0.388924
-0.0584384 -0.000851003 0.383273
-0.0417817 0.00658599 0.377183
-0.0550488 0.0112577 0.374887
-0.0537526 0.0120192 0.38826
-0.0542319 0.00613776 0.391719
-0.0590577 0.0125687 0.386584
-0.0599137 0.0072027 0.389629
-0.0623767 0.00188789 0.387119
-0.0629188 0.000367789 0.382002
-0.0623748 0.00113145 0.377822
-0.0586369 0.0144465 0.383301
-0.0590862 0.0146713 0.378057
-0.0582647 0.0120171 0.374364
-0.0650415 0.0161908 0.380401
-0.0669278 0.0145556 0.384144
-0.0807018 0.00599077 0.380412
-0.0756 0.0046601 0.382113
-0.0760293 0.00689617 0.383606
-0.0806793 0.0080805 0.382289
-0.0708763 0.00446902 0.385288
-0.0720629 0.00665465 0.385576
-0.0699883 0.0102809 0.386453
-0.0749461 0.0113216 0.384015
-0.072981 0.0153289 0.382653
-0.0777879 0.0170159 0.381906
-0.0800712 0.0132556 0.383448
-0.0697625 0.0136927 0.384762
-0.0834783 0.0100302 0.381291
-0.0843116 0.00966048 0.378992
-0.0676721 0.00896969 0.38758
-0.0673312 0.0013773 0.381985
-0.0753264 0.00372608 0.379206
-0.080814 0.00630882 0.377006
-0.0841213 0.0110095 0.37588
-0.0748912 0.00477493 0.375645
-0.0799648 0.00755503 0.374189
-0.0825307 0.0116798 0.373903
-0.0736095 0.00753501 0.371991
-0.0789642 0.0103835 0.371438
-0.0634584 0.0040375 0.374142
-0.0653826 0.00140092 0.377274
-0.0808045 0.011818 0.372225
-0.0843927 0.0145609 0.379995
-0.0843036 0.0146181 0.376399
-0.0833493 0.0141516 0.38162
-0.0719223 0.0166373 0.381287
-0.0775651 0.0180857 0.379637
-0.0713159 0.01778 0.378541
-0.0778155 0.0187183 0.377126
-0.08185 0.0180378 0.379338
-0.0818953 0.0172972 0.381002
-0.0606597 0.00356014 0.375169
-0.0589108 0.00817397 0.373422
-0.0612735 0.0089148 0.372455
-0.0717803 0.0120212 0.371012
-0.0607913 0.0131047 0.37361
-0.0635486 0.0157973 0.376788
-0.0705505 0.0175794 0.37561
-0.0708803 0.0159057 0.37267
-0.0771782 0.0189076 0.374796
-0.0756064 0.0172364 0.372756
-0.0772465 0.0138043 0.370737
-0.0814644 0.0181623 0.374558
-0.0818834 0.0184941 0.377424
-0.0830142 0.0147485 0.374209
-0.0792643 0.0171191 0.372537
-0.0806942 0.0142915 0.372113
-0.0326523 0.013855 0.3737
-0.0303765 0.017247 0.369436
-0.0268516 0.0162637 0.369831
-0.0295023 0.0127225 0.373624
-0.0313469 0.0200638 0.385072
-0.0333869 0.0160408 0.382366
-0.0298065 0.014233 0.383356
-0.0271919 0.0177438 0.386447
-0.0309681 0.0253769 0.383744
-0.0252902 0.0234986 0.385901
-0.0229759 0.0162168 0.387773
-0.0258123 0.0126051 0.384033
-0.0116046 0.00844024 0.383544
-0.0100676 0.0126871 0.388477
-0.0333922 0.0139175 0.3783
-0.030413 0.012568 0.378672
-0.0206619 0.0232962 0.370308
-0.0219283 0.0196024 0.368626
-0.0251111 0.0209775 0.368696
-0.024174 0.024427 0.369976
-0.00902659 0.00725378 0.373054
-0.00631561 0.01171 0.370933
-0.0115362 0.0068523 0.377849
-0.0197577 0.0268712 0.375627
-0.0189684 0.026852 0.38284
-0.00563316 0.0229525 0.382353
-0.00519493 0.0219822 0.376275
-0.0268876 0.01119 0.379136
-0.023263 0.0149837 0.369541
-0.0260871 0.0117335 0.373039
-0.0205543 0.0215454 0.387264
-0.0241988 0.0284142 0.380765
-0.0409542 0.0326167 0.371694
-0.0267309 0.0288701 0.374159
-0.0270857 0.0254226 0.369613
-0.0410218 0.0309377 0.367655
-0.0239126 0.0282154 0.374453
-0.0281692 0.029693 0.379854
-0.0458944 0.0192113 0.36977
-0.0436342 0.0224542 0.366409
-0.0451015 0.0188479 0.374385
-0.00730093 0.0188746 0.388631
-0.0047302 0.0183548 0.371125
-0.0448358 0.0231633 0.380351
-0.0450931 0.0200876 0.37751
-0.0281398 0.021698 0.368398
-0.0417483 0.0275057 0.365463
-0.0413566 0.0321227 0.376129
-0.0426095 0.0281015 0.380472
-0.04535 0.0325394 0.374339
-0.0461659 0.0285959 0.378593
-0.0486288 0.023953 0.379143
-0.0491024 0.0206811 0.376395
-0.0490132 0.0195018 0.373254
-0.0453665 0.0328667 0.369526
-0.0455118 0.0309201 0.366229
-0.0440026 0.0271468 0.365275
-0.0491193 0.0332693 0.367557
-0.0515063 0.0334282 0.37216
-0.0653036 0.0254628 0.372803
-0.0603766 0.0249682 0.3745
-0.0604002 0.0262592 0.374254
-0.065569 0.0271108 0.373087
-0.0547962 0.0253903 0.377152
-0.055992 0.0267937 0.376255
-0.0543361 0.030014 0.37548
-0.060252 0.0309019 0.373567
-0.0574943 0.0338631 0.369149
-0.0623796 0.034028 0.368656
-0.0651172 0.0314383 0.372559
-0.0535609 0.0327821 0.372427
-0.0679909 0.0284654 0.371763
-0.0690109 0.0270101 0.372103
-0.052239 0.0298372 0.376606
-0.0538893 0.0215687 0.37595
-0.0604974 0.0223862 0.37348
-0.0658609 0.0227286 0.371454
-0.0682127 0.0248808 0.369162
-0.0597699 0.0212093 0.370329
-0.0644196 0.0222741 0.368781
-0.0669869 0.0241336 0.367004
-0.0590073 0.0213076 0.367148
-0.0630306 0.0224594 0.366189
-0.0498429 0.0199206 0.369171
-0.0520055 0.0198129 0.37299
-0.0654039 0.0239599 0.365414
-0.0691191 0.0308791 0.370101
-0.0687225 0.0292152 0.366729
-0.0675883 0.030964 0.370543
-0.055931 0.0341681 0.367674
-0.0622477 0.034947 0.366345
-0.0549434 0.033325 0.364968
-0.0613051 0.0338312 0.363499
-0.0661359 0.034143 0.367158
-0.0658699 0.0335893 0.368309
-0.0474175 0.0200147 0.369261
-0.0454347 0.0227548 0.366361
-0.047784 0.0221731 0.366165
-0.0574 0.0235085 0.363612
-0.046365 0.0264989 0.364406
-0.0494545 0.031026 0.364703
-0.0549002 0.0309109 0.363044
-0.0557508 0.0277472 0.362236
-0.060544 0.0314658 0.361874
-0.0597801 0.0287221 0.361937
-0.0617558 0.0244561 0.363026
-0.0643305 0.0307286 0.362825
-0.0655915 0.0330447 0.364415
-0.067071 0.0274624 0.36425
-0.0633676 0.0285996 0.362164
-0.0651894 0.0261574 0.363305
-0.0051541 0.0152245 0.369728
-0.0129579 0.0311891 0.353349
-0.0108524 0.0329942 0.350061
-0.00795166 0.0327167 0.351452
-0.00972409 0.0301136 0.35433
-0.0133416 0.0366893 0.364215
-0.014463 0.033564 0.361321
-0.0109822 0.031524 0.363966
-0.0100364 0.0351046 0.366353
-0.0108902 0.0406673 0.363084
-0.00747432 0.0390251 0.365054
-0.00705925 0.0335182 0.367797
-0.00738446 0.0296911 0.365077
0.00553973 0.0237678 0.369292
0.00800255 0.0278003 0.372238
0.0178518 0.0314126 0.355787
0.0163026 0.0268314 0.3536
0.00992218 0.0295593 0.353505
0.0117001 0.0336653 0.355354
-0.0141757 0.0316104 0.357631
-0.0110215 0.0293058 0.35925
-0.00090229 0.0391817 0.35261
-0.00261197 0.0356054 0.350613
-0.00560817 0.0355953 0.349758
-0.00428127 0.0392067 0.350367
0.0129598 0.0227025 0.354893
0.00933899 0.0212129 0.357659
0.00574588 0.0224513 0.357746
0.00681951 0.026299 0.354329
0.00300199 0.0218937 0.362791
-0.000880273 0.041381 0.356214
-0.00236482 0.041682 0.362511
0.0132656 0.0369092 0.364455
0.0133738 0.0358124 0.35964
-0.00825538 0.0280784 0.36034
-0.00477052 0.0320611 0.351882
-0.00719866 0.0294763 0.354537
-0.00487715 0.0383923 0.367118
-0.00537338 0.0423351 0.360393
-0.0139783 0.045296 0.348264
-0.00621489 0.0424897 0.352523
-0.00683958 0.0396172 0.34864
-0.0142946 0.0433099 0.345585
-0.00420574 0.0419022 0.354475
-0.00859498 0.04384 0.358426
-0.0200094 0.0344963 0.3495
-0.0169731 0.037084 0.345952
-0.0211356 0.0349104 0.353035
0.0108709 0.0334524 0.370902
-0.0203769 0.0397792 0.358441
-0.0220074 0.0365235 0.356237
-0.00868953 0.0358368 0.348541
-0.0150721 0.040568 0.344928
-0.0151044 0.0463735 0.352723
-0.0178268 0.043926 0.35798
-0.0190109 0.0477559 0.350026
-0.0212699 0.0448623 0.355816
-0.023599 0.0401781 0.356722
-0.0240407 0.0372003 0.354684
-0.0233363 0.0354927 0.351573
-0.0179949 0.0467683 0.34595
-0.0180664 0.0445045 0.343713
-0.018096 0.0412606 0.343481
-0.0223205 0.0478702 0.344491
-0.0245281 0.0493865 0.348386
-0.0358962 0.0428455 0.348882
-0.0323626 0.041757 0.351057
-0.0320988 0.0433611 0.351114
-0.0361108 0.0437569 0.349926
-0.0279024 0.0420033 0.353897
-0.0283805 0.043444 0.353162
-0.0263693 0.0460695 0.352846
-0.031201 0.0472755 0.35043
-0.0298456 0.0500203 0.346078
-0.0338851 0.0507391 0.344956
-0.0347419 0.0481813 0.348912
-0.026295 0.0491226 0.349394
-0.0382246 0.0453567 0.348584
-0.0393885 0.0450217 0.347689
-0.025087 0.0456688 0.35404
-0.0273969 0.0380156 0.35322
-0.0331687 0.0399648 0.349906
-0.0372186 0.0416972 0.347453
-0.0397548 0.0443991 0.345268
-0.031844 0.038375 0.348562
-0.0369803 0.0406753 0.34589
-0.0387742 0.0430711 0.34348
-0.0303701 0.0378712 0.345501
-0.0353921 0.0405162 0.343782
-0.0240803 0.0358453 0.347356
-0.026011 0.0362891 0.350653
-0.0374525 0.0426201 0.342642
-0.0393164 0.0484803 0.346068
-0.0393044 0.0470857 0.343306
-0.0380794 0.0488788 0.347252
-0.0290591 0.0500282 0.344906
-0.0340937 0.05076 0.343184
-0.028511 0.0492277 0.34257
-0.0339878 0.0494307 0.341186
-0.0374118 0.0503118 0.343307
-0.0364637 0.0501918 0.345393
-0.0219441 0.0353363 0.348046
-0.019571 0.037689 0.345087
-0.0216324 0.0380643 0.344017
-0.0285123 0.0395898 0.341887
-0.0207755 0.0417995 0.342103
-0.0212848 0.0452261 0.342654
-0.0282249 0.0466579 0.340931
-0.0282213 0.0432816 0.340119
-0.034225 0.0474204 0.340017
-0.033888 0.0443577 0.33945
-0.0341351 0.0415812 0.340822
-0.0376937 0.0470673 0.340792
-0.0378901 0.0487076 0.34179
-0.0386385 0.0454642 0.341951
-0.036743 0.0451816 0.340324
-0.0370929 0.0438044 0.34119
0.0168336 0.0337562 0.359507
0.0150784 -0.0639984 0.383209
0.0121212 -0.0593212 0.381396
0.00646978 -0.0627684 0.367936
0.00657524 -0.0586777 0.372681
0.00888981 -0.0687937 0.36747
0.0164075 -0.0747876 0.373865
0.0130823 -0.0728375 0.368989
0.00860695 -0.0575756 0.37747
0.0172473 -0.0693523 0.383044
0.0186117 -0.073814 0.378765
0.0117126 -0.0713367 0.386618
0.0126122 -0.0760727 0.381319
0.0110539 -0.0776117 0.376342
0.00766118 -0.0747451 0.371213
0.00503279 -0.0713547 0.368754
0.0100629 -0.0647199 0.385727
0.00704159 -0.060377 0.384058
0.00442341 -0.0586083 0.378343
0.00405967 -0.0664668 0.388975
-0.000436509 -0.0733518 0.390979
-0.00942736 -0.0814498 0.382476
-0.005215 -0.0799677 0.379235
-0.00445429 -0.0801124 0.382833
-0.0081134 -0.0820903 0.384914
-0.00138083 -0.0794519 0.379477
-0.00178101 -0.0794048 0.38215
-0.000324534 -0.0769937 0.387268
-0.00344057 -0.0789742 0.389594
-0.000833603 -0.0745784 0.390677
-0.00384898 -0.0742005 0.392506
-0.00731664 -0.0802559 0.3914
-0.0102046 -0.0826616 0.388408
-0.0105121 -0.0812217 0.39248
-0.0121918 -0.0819895 0.386121
0.000768674 -0.0787198 0.386724
0.000608457 -0.0771148 0.373691
-0.00567363 -0.0779079 0.375878
-0.010464 -0.0793529 0.379892
-0.013385 -0.0796611 0.385019
-0.00722014 -0.0742147 0.373688
-0.011162 -0.0751389 0.378877
-0.0134866 -0.0750817 0.3832
-0.00748532 -0.0695827 0.374752
-0.0113882 -0.0714795 0.379197
0.00126872 -0.065676 0.370218
0.00116729 -0.0724437 0.370123
-0.0127688 -0.0728325 0.382519
-0.0127228 -0.080682 0.392941
-0.0145246 -0.0778757 0.390947
-0.00382957 -0.0716704 0.393021
-0.00745797 -0.0761112 0.394761
-0.00812245 -0.073044 0.394494
-0.00383721 -0.0678334 0.391748
-0.00888539 -0.0703382 0.393676
-0.0114782 -0.0761009 0.395304
-0.00949422 -0.0784072 0.394622
0.00376851 -0.0649466 0.368904
0.00390591 -0.0598717 0.372704
0.00132941 -0.0607906 0.374594
-0.00712606 -0.0641947 0.377882
0.00133145 -0.0591663 0.380749
0.00248566 -0.0619492 0.386676
-0.00519742 -0.0643768 0.389336
-0.00602133 -0.0632722 0.384184
-0.00991631 -0.0682937 0.390355
-0.0103539 -0.0675435 0.386933
-0.0112265 -0.068613 0.382144
-0.0124925 -0.0709847 0.390904
-0.0120652 -0.0732023 0.394261
-0.013873 -0.0740078 0.388378
-0.0121397 -0.0696722 0.387579
-0.0128906 -0.0713825 0.385618
0.0212717 0.024918 0.352451
0.0173355 0.0196151 0.353371
0.023251 0.0182188 0.351188
0.0309676 0.0152151 0.348671
0.0410892 0.0173729 0.347344
0.0292183 0.0091118 0.350901
0.0207214 0.0129175 0.353656
0.0122782 0.0152306 0.35724
0.0348091 0.0011801 0.352646
3 1 2 0
3 0 2 3
3 4 5 7
3 7 5 6
3 8 3 9
3 9 3 2
3 11 12 10
3 10 12 8
3 13 11 15
3 15 11 14
3 17 18 16
3 16 18 19
3 21 22 20
3 20 22 23
3 25 26 24
3 24 26 27
3 29 30 28
3 28 30 31
3 32 33 35
3 35 33 34
3 36 37 39
3 39 37 38
3 40 41 5
3 5 41 42
3 5 42 6
3 6 42 43
3 44 33 45
3 45 33 32
3 47 48 46
3 46 48 49
3 51 52 50
3 50 52 53
3 55 51 54
3 54 51 50
3 57 58 56
3 56 58 59
3 60 61 3
3 3 61 0
3 63 64 62
3 62 64 65
3 67 68 66
3 66 68 69
3 71 72 70
3 70 72 73
3 75 76 74
3 74 76 77
3 52 78 53
3 53 78 79
3 81 82 80
3 80 82 83
3 84 85 51
3 51 85 52
3 56 59 86
3 86 59 87
3 88 89 42
3 42 89 43
3 42 41 88
3 88 41 90
3 39 38 91
3 91 38 92
3 93 69 63
3 63 69 68
3 12 60 8
3 8 60 3
3 24 27 68
3 68 27 94
3 95 24 67
3 67 24 68
3 97 98 96
3 96 98 99
3 100 101 103
3 103 101 102
3 105 29 104
3 104 29 28
3 50 53 106
3 106 53 107
3 53 79 107
3 107 79 108
3 110 111 109
3 109 111 112
3 114 4 113
3 113 4 115
3 114 40 4
3 4 40 5
3 35 34 110
3 110 34 116
3 34 117 116
3 116 117 118
3 33 119 34
3 34 119 117
3 33 44 119
3 119 44 120
3 124 125 123
3 123 125 126
3 127 128 13
3 13 128 129
3 32 130 45
3 45 130 131
3 132 93 62
3 62 93 63
3 133 134 136
3 136 134 135
3 138 139 137
3 137 139 140
3 76 141 77
3 77 141 142
3 143 144 19
3 19 144 145
3 147 148 146
3 146 148 71
3 150 151 149
3 149 151 152
3 81 100 82
3 82 100 103
3 100 81 154
3 154 81 153
3 155 156 57
3 57 156 58
3 157 67 146
3 146 67 66
3 158 145 14
3 14 145 15
3 67 157 95
3 95 157 159
3 128 65 129
3 129 65 64
3 161 162 160
3 160 162 163
3 165 166 164
3 164 166 167
3 169 170 168
3 168 170 171
3 173 170 172
3 172 170 169
3 175 176 174
3 174 176 177
3 179 180 178
3 178 180 23
3 181 182 20
3 20 182 183
3 80 184 81
3 81 184 153
3 185 186 187
3 187 186 143
3 157 70 159
3 159 70 188
3 189 134 156
3 156 134 58
3 168 171 138
3 138 171 139
3 146 71 157
3 157 71 70
3 191 192 190
3 190 192 193
3 166 165 48
3 48 165 194
3 195 189 49
3 49 189 156
3 196 197 199
3 199 197 198
3 20 23 181
3 181 23 180
3 145 158 19
3 19 158 16
3 181 180 80
3 80 180 184
3 200 184 179
3 179 184 180
3 201 202 82
3 82 202 83
3 204 205 203
3 203 205 84
3 206 21 183
3 183 21 20
3 178 23 207
3 207 23 22
3 207 208 178
3 178 208 204
3 208 209 204
3 204 209 205
3 211 205 210
3 210 205 209
3 178 204 179
3 179 204 203
3 212 175 87
3 87 175 213
3 85 84 211
3 211 84 205
3 192 216 217
3 216 218 217
3 217 218 219
3 218 17 219
3 219 17 16
3 18 220 19
3 19 220 143
3 221 222 224
3 224 222 223
3 174 225 175
3 175 225 213
3 226 86 213
3 213 86 87
3 219 16 227
3 227 16 158
3 133 212 59
3 59 212 87
3 137 228 150
3 150 228 151
3 192 191 209
3 209 191 210
3 229 193 217
3 217 193 192
3 230 231 227
3 227 231 229
3 232 233 90
3 90 233 88
3 234 235 92
3 92 235 91
3 229 231 233
3 233 231 236
3 46 237 47
3 47 237 238
3 239 190 234
3 234 190 235
3 4 7 115
3 115 7 240
3 241 242 188
3 188 242 159
3 243 244 97
3 97 244 98
3 155 245 46
3 46 245 237
3 75 246 76
3 76 246 247
3 249 124 248
3 248 124 123
3 251 252 250
3 250 252 253
3 110 109 35
3 35 109 254
3 255 32 254
3 254 32 35
3 256 257 153
3 153 257 154
3 62 168 132
3 132 168 138
3 65 169 62
3 62 169 168
3 172 169 128
3 128 169 65
3 128 127 172
3 172 127 258
3 127 259 258
3 258 259 260
3 212 133 261
3 261 133 136
3 262 263 185
3 185 263 186
3 111 264 112
3 112 264 265
3 10 266 267
3 233 232 229
3 229 232 193
3 152 268 69
3 69 268 66
3 174 177 164
3 164 177 140
3 149 152 93
3 93 152 69
3 270 220 269
3 269 220 206
3 268 152 271
3 271 152 151
3 120 44 108
3 108 44 107
3 46 49 155
3 155 49 156
3 56 272 57
3 57 272 273
3 144 274 259
3 259 274 260
3 275 148 142
3 142 148 77
3 147 268 74
3 74 268 271
3 206 276 269
3 269 276 277
3 194 195 48
3 48 195 49
3 58 134 59
3 59 134 133
3 82 103 201
3 201 103 278
3 148 147 77
3 77 147 74
3 246 277 247
3 247 277 276
3 182 181 83
3 83 181 80
3 47 238 280
3 280 238 281
3 226 222 282
3 282 222 221
3 222 225 223
3 223 225 167
3 280 281 223
3 223 281 224
3 164 167 174
3 174 167 225
3 263 262 137
3 137 262 228
3 13 15 127
3 127 15 259
3 219 227 217
3 217 227 229
3 86 226 283
3 283 226 282
3 259 15 144
3 144 15 145
3 243 97 257
3 257 97 154
3 57 273 155
3 155 273 245
3 106 284 50
3 50 284 54
3 242 285 159
3 159 285 95
3 233 236 88
3 88 236 89
3 45 131 106
3 106 131 284
3 252 251 248
3 248 251 249
3 285 25 95
3 95 25 24
3 105 104 286
3 286 104 287
3 271 151 288
3 288 151 228
3 137 150 138
3 138 150 132
3 182 289 160
3 160 289 161
3 290 291 276
3 276 291 292
3 150 149 132
3 132 149 93
3 261 274 176
3 176 274 186
3 143 186 144
3 144 186 274
3 272 56 283
3 283 56 86
3 173 135 189
3 189 135 134
3 110 116 111
3 111 116 37
3 116 118 37
3 37 118 122
3 111 37 264
3 264 37 36
3 286 287 253
3 253 287 250
3 227 158 230
3 230 158 14
3 222 226 225
3 225 226 213
3 146 66 147
3 147 66 268
3 223 167 280
3 280 167 166
3 198 162 199
3 199 162 161
3 44 45 107
3 107 45 106
3 280 166 47
3 47 166 48
3 160 163 290
3 290 163 291
3 37 122 38
3 292 293 276
3 276 293 247
3 283 282 295
3 295 282 294
3 283 295 272
3 272 295 296
3 273 272 297
3 297 272 296
3 245 273 298
3 298 273 297
3 282 221 294
3 294 221 299
3 221 224 299
3 299 224 300
3 300 224 301
3 301 224 281
3 302 303 299
3 299 303 294
3 305 306 304
3 304 306 307
3 308 309 307
3 307 309 304
3 307 306 311
3 311 306 310
3 312 313 311
3 311 313 314
3 310 315 311
3 311 315 312
3 316 303 310
3 310 303 315
3 314 308 311
3 311 308 307
3 317 318 320
3 320 318 319
3 318 317 308
3 308 317 309
3 310 306 316
3 316 306 305
3 305 296 316
3 316 296 295
3 305 321 296
3 296 321 297
3 304 322 305
3 305 322 321
3 322 304 323
3 323 304 309
3 303 316 294
3 294 316 295
3 317 324 309
3 309 324 323
3 322 323 325
3 325 323 326
3 323 324 326
3 326 324 327
3 325 326 328
3 328 326 329
3 328 330 325
3 325 330 331
3 332 329 327
3 327 329 326
3 322 325 321
3 321 325 331
3 321 331 297
3 297 331 298
3 324 317 333
3 333 317 320
3 312 315 334
3 334 315 303
3 334 335 312
3 312 335 313
3 303 302 334
3 334 302 336
3 335 334 337
3 337 334 336
3 335 338 313
3 313 338 339
3 245 298 237
3 237 298 340
3 238 341 281
3 281 341 301
3 341 238 340
3 340 238 237
3 340 330 341
3 341 330 342
3 330 328 342
3 342 328 343
3 341 342 301
3 301 342 344
3 340 298 330
3 330 298 331
3 345 300 344
3 344 300 301
3 345 302 300
3 300 302 299
3 346 336 345
3 345 336 302
3 346 345 347
3 347 345 344
3 348 346 349
3 349 346 347
3 342 343 344
3 344 343 347
3 343 350 347
3 347 350 349
3 336 346 337
3 337 346 348
3 352 337 351
3 351 337 348
3 351 354 353
3 353 354 355
3 351 348 354
3 354 348 349
3 351 353 352
3 352 353 333
3 352 333 338
3 338 333 320
3 338 335 352
3 352 335 337
3 328 329 343
3 343 329 350
3 355 350 332
3 332 350 329
3 355 354 350
3 350 354 349
3 353 355 327
3 327 355 332
3 327 324 353
3 353 324 333
3 308 314 318
3 318 314 319
3 319 339 320
3 320 339 338
3 319 314 339
3 339 314 313
3 136 135 260
3 260 135 258
3 139 165 140
3 140 165 164
3 171 170 194
3 194 170 195
3 170 173 195
3 195 173 189
3 177 176 263
3 263 176 186
3 171 194 139
3 139 194 165
3 136 260 261
3 261 260 274
3 177 263 140
3 140 263 137
3 261 176 212
3 212 176 175
3 135 173 258
3 258 173 172
3 357 358 356
3 356 358 359
3 361 362 360
3 360 362 363
3 360 363 364
3 364 363 365
3 366 367 369
3 369 367 368
3 75 370 246
3 246 370 371
3 372 373 361
3 361 373 362
3 375 376 374
3 374 376 377
3 288 228 379
3 379 228 378
3 380 378 262
3 262 378 228
3 382 383 381
3 381 383 384
3 385 367 373
3 373 367 362
3 75 288 370
3 370 288 379
3 376 375 358
3 358 375 386
3 387 385 359
3 359 385 373
3 388 382 365
3 365 382 389
3 391 392 390
3 390 392 393
3 382 381 389
3 389 381 394
3 395 364 389
3 389 364 365
3 388 365 366
3 366 365 363
3 356 396 357
3 357 396 397
3 372 398 356
3 356 398 396
3 388 366 399
3 399 366 369
3 381 384 374
3 374 384 371
3 356 359 372
3 372 359 373
3 360 400 361
3 361 400 401
3 386 387 358
3 358 387 359
3 362 367 363
3 363 367 366
3 357 397 402
3 402 397 403
3 395 391 404
3 404 391 390
3 391 394 392
3 392 394 377
3 392 402 393
3 393 402 403
3 374 377 381
3 381 377 394
3 364 395 405
3 405 395 404
3 361 401 372
3 372 401 398
3 270 269 399
3 399 269 383
3 400 360 405
3 405 360 364
3 380 368 385
3 385 368 367
3 391 395 394
3 394 395 389
3 392 377 402
3 402 377 376
3 402 376 357
3 357 376 358
3 405 404 407
3 407 404 406
3 405 407 400
3 400 407 408
3 400 408 401
3 401 408 409
3 401 409 398
3 398 409 410
3 404 390 406
3 406 390 411
3 390 393 411
3 411 393 412
3 393 403 412
3 412 403 413
3 414 415 411
3 411 415 406
3 417 418 416
3 416 418 419
3 420 421 417
3 417 421 418
3 418 421 423
3 423 421 422
3 424 425 423
3 423 425 426
3 422 427 423
3 423 427 424
3 426 419 423
3 423 419 418
3 419 428 416
3 416 428 429
3 422 421 430
3 430 421 420
3 420 408 430
3 430 408 407
3 420 431 408
3 408 431 409
3 417 432 420
3 420 432 431
3 433 432 416
3 416 432 417
3 430 415 422
3 422 415 427
3 415 430 406
3 406 430 407
3 434 433 429
3 429 433 416
3 432 433 435
3 435 433 436
3 433 434 436
3 436 434 437
3 435 436 438
3 438 436 439
3 438 440 435
3 435 440 441
3 437 442 436
3 436 442 439
3 435 441 432
3 432 441 431
3 431 441 409
3 409 441 410
3 434 429 444
3 444 429 443
3 429 428 443
3 443 428 445
3 424 427 446
3 446 427 415
3 425 424 447
3 447 424 446
3 415 414 446
3 446 414 448
3 446 448 447
3 447 448 449
3 450 451 447
3 447 451 425
3 445 451 443
3 443 451 450
3 398 410 396
3 396 410 452
3 397 453 403
3 403 453 413
3 453 397 452
3 452 397 396
3 452 440 453
3 453 440 454
3 440 438 454
3 454 438 455
3 453 454 413
3 413 454 456
3 440 452 441
3 441 452 410
3 457 412 456
3 456 412 413
3 457 414 412
3 412 414 411
3 457 458 414
3 414 458 448
3 458 457 459
3 459 457 456
3 460 458 461
3 461 458 459
3 454 455 456
3 456 455 459
3 455 462 459
3 459 462 461
3 458 460 448
3 448 460 449
3 464 449 463
3 463 449 460
3 463 466 465
3 465 466 467
3 463 460 466
3 466 460 461
3 463 465 464
3 464 465 444
3 464 444 450
3 450 444 443
3 450 447 464
3 464 447 449
3 438 439 455
3 455 439 462
3 467 462 442
3 442 462 439
3 467 466 462
3 462 466 461
3 465 467 437
3 437 467 442
3 437 434 465
3 465 434 444
3 419 426 428
3 428 426 445
3 445 426 451
3 451 426 425
3 369 368 187
3 187 368 185
3 370 375 371
3 371 375 374
3 379 378 386
3 386 378 387
3 378 380 387
3 387 380 385
3 384 383 277
3 277 383 269
3 379 386 370
3 370 386 375
3 399 369 270
3 270 369 187
3 384 277 371
3 371 277 246
3 399 383 388
3 388 383 382
3 368 380 185
3 185 380 262
3 220 270 143
3 143 270 187
3 220 18 206
3 206 18 21
3 18 17 21
3 21 17 22
3 17 218 22
3 22 218 207
3 468 469 471
3 471 469 470
3 473 474 472
3 472 474 475
3 472 475 476
3 476 475 477
3 479 480 478
3 478 480 481
3 482 483 473
3 473 483 474
3 485 486 484
3 484 486 487
3 488 489 76
3 76 489 141
3 490 488 247
3 247 488 76
3 492 493 491
3 491 493 494
3 495 479 483
3 483 479 474
3 485 496 486
3 486 496 470
3 497 495 471
3 471 495 483
3 498 492 477
3 477 492 499
3 500 501 503
3 503 501 502
3 492 491 499
3 499 491 504
3 505 476 499
3 499 476 477
3 498 477 478
3 478 477 475
3 468 506 469
3 469 506 507
3 482 508 468
3 468 508 506
3 478 481 498
3 498 481 509
3 491 494 484
3 484 494 510
3 482 468 483
3 483 468 471
3 472 511 473
3 473 511 512
3 496 497 470
3 470 497 471
3 474 479 475
3 475 479 478
3 469 507 513
3 513 507 514
3 505 501 515
3 515 501 500
3 502 501 487
3 487 501 504
3 513 514 502
3 502 514 503
3 484 487 491
3 491 487 504
3 476 505 516
3 516 505 515
3 473 512 482
3 482 512 508
3 509 291 493
3 493 291 163
3 511 472 516
3 516 472 476
3 490 480 495
3 495 480 479
3 501 505 504
3 504 505 499
3 502 487 513
3 513 487 486
3 513 486 469
3 469 486 470
3 516 515 518
3 518 515 517
3 516 518 511
3 511 518 519
3 511 519 512
3 512 519 520
3 512 520 508
3 508 520 521
3 515 500 517
3 517 500 522
3 500 503 522
3 522 503 523
3 523 503 524
3 524 503 514
3 525 526 522
3 522 526 517
3 528 529 527
3 527 529 530
3 531 532 528
3 528 532 529
3 529 532 534
3 534 532 533
3 535 536 534
3 534 536 537
3 533 538 534
3 534 538 535
3 537 530 534
3 534 530 529
3 539 540 530
3 530 540 527
3 532 531 533
3 533 531 541
3 531 519 541
3 541 519 518
3 531 542 519
3 519 542 520
3 528 543 531
3 531 543 542
3 543 528 544
3 544 528 527
3 533 541 538
3 538 541 526
3 526 541 517
3 517 541 518
3 540 545 527
3 527 545 544
3 546 543 547
3 547 543 544
3 545 548 544
3 544 548 547
3 549 546 550
3 550 546 547
3 546 549 552
3 552 549 551
3 548 553 547
3 547 553 550
3 543 546 542
3 542 546 552
3 542 552 520
3 520 552 521
3 545 540 555
3 555 540 554
3 540 539 554
3 554 539 556
3 535 538 557
3 557 538 526
3 536 535 558
3 558 535 557
3 526 525 557
3 557 525 559
3 558 557 560
3 560 557 559
3 558 561 536
3 536 561 562
3 556 562 554
3 554 562 561
3 508 521 506
3 506 521 563
3 507 564 514
3 514 564 524
3 564 507 563
3 563 507 506
3 563 551 564
3 564 551 565
3 551 549 565
3 565 549 566
3 564 565 524
3 524 565 567
3 563 521 551
3 551 521 552
3 568 523 567
3 567 523 524
3 568 525 523
3 523 525 522
3 569 559 568
3 568 559 525
3 569 568 570
3 570 568 567
3 571 569 572
3 572 569 570
3 565 566 567
3 567 566 570
3 566 573 570
3 570 573 572
3 569 571 559
3 559 571 560
3 575 560 574
3 574 560 571
3 574 577 576
3 576 577 578
3 574 571 577
3 577 571 572
3 574 576 575
3 575 576 555
3 575 555 561
3 561 555 554
3 561 558 575
3 575 558 560
3 549 550 566
3 566 550 573
3 578 573 553
3 553 573 550
3 578 577 573
3 573 577 572
3 578 553 576
3 576 553 548
3 548 545 576
3 576 545 555
3 530 537 539
3 539 537 556
3 556 537 562
3 562 537 536
3 480 293 481
3 481 293 292
3 579 485 510
3 510 485 484
3 489 488 496
3 496 488 497
3 488 490 497
3 497 490 495
3 162 494 163
3 163 494 493
3 579 489 485
3 485 489 496
3 481 292 509
3 509 292 291
3 494 162 510
3 510 162 198
3 493 492 509
3 509 492 498
3 480 490 293
3 293 490 247
3 581 582 580
3 580 582 583
3 585 586 584
3 584 586 587
3 584 587 588
3 588 587 589
3 591 592 590
3 590 592 593
3 594 595 597
3 597 595 596
3 598 599 585
3 585 599 586
3 600 601 603
3 603 601 602
3 604 605 607
3 607 605 606
3 608 606 199
3 199 606 605
3 609 610 612
3 612 610 611
3 599 613 586
3 586 613 591
3 595 604 596
3 596 604 607
3 601 614 602
3 602 614 582
3 615 613 583
3 583 613 599
3 610 617 616
3 616 617 589
3 619 620 618
3 618 620 621
3 609 622 610
3 610 622 617
3 623 588 617
3 617 588 589
3 616 589 590
3 590 589 587
3 580 624 581
3 581 624 625
3 598 626 580
3 580 626 624
3 590 593 616
3 616 593 627
3 600 609 597
3 597 609 612
3 580 583 598
3 598 583 599
3 584 628 585
3 585 628 629
3 614 615 582
3 582 615 583
3 586 591 587
3 587 591 590
3 581 625 630
3 630 625 631
3 623 619 632
3 632 619 618
3 620 619 603
3 603 619 622
3 630 631 620
3 620 631 621
3 609 600 622
3 622 600 603
3 588 623 633
3 633 623 632
3 585 629 598
3 598 629 626
3 202 201 627
3 627 201 611
3 628 584 633
3 633 584 588
3 608 592 613
3 613 592 591
3 619 623 622
3 622 623 617
3 630 620 602
3 602 620 603
3 581 630 582
3 582 630 602
3 633 632 635
3 635 632 634
3 633 635 628
3 628 635 636
3 628 636 629
3 629 636 637
3 629 637 626
3 626 637 638
3 632 618 634
3 634 618 639
3 618 621 639
3 639 621 640
3 640 621 641
3 641 621 631
3 643 634 642
3 642 634 639
3 644 645 647
3 647 645 646
3 648 649 645
3 645 649 646
3 646 649 651
3 651 649 650
3 651 652 654
3 654 652 653
3 650 655 651
3 651 655 652
3 654 647 651
3 651 647 646
3 647 656 644
3 644 656 657
3 649 648 650
3 650 648 658
3 648 636 658
3 658 636 635
3 648 659 636
3 636 659 637
3 660 659 645
3 645 659 648
3 661 660 644
3 644 660 645
3 650 658 655
3 655 658 643
3 643 658 634
3 634 658 635
3 662 661 657
3 657 661 644
3 663 660 664
3 664 660 661
3 662 665 661
3 661 665 664
3 666 663 667
3 667 663 664
3 663 666 669
3 669 666 668
3 665 670 664
3 664 670 667
3 660 663 659
3 659 663 669
3 659 669 637
3 637 669 638
3 657 671 662
3 662 671 672
3 657 656 671
3 671 656 673
3 652 655 674
3 674 655 643
3 652 674 653
3 653 674 675
3 674 643 676
3 676 643 642
3 675 674 677
3 677 674 676
3 678 679 675
3 675 679 653
3 673 679 671
3 671 679 678
3 626 638 624
3 624 638 680
3 625 681 631
3 631 681 641
3 680 681 624
3 624 681 625
3 668 682 680
3 680 682 681
3 666 683 668
3 668 683 682
3 681 682 641
3 641 682 684
3 680 638 668
3 668 638 669
3 685 640 684
3 684 640 641
3 640 685 639
3 639 685 642
3 685 686 642
3 642 686 676
3 686 685 687
3 687 685 684
3 688 686 689
3 689 686 687
3 682 683 684
3 684 683 687
3 683 690 687
3 687 690 689
3 686 688 676
3 676 688 677
3 692 677 691
3 691 677 688
3 691 694 693
3 693 694 695
3 691 688 694
3 694 688 689
3 691 693 692
3 692 693 672
3 692 672 678
3 678 672 671
3 678 675 692
3 692 675 677
3 683 666 690
3 690 666 667
3 695 690 670
3 670 690 667
3 695 694 690
3 690 694 689
3 693 695 665
3 665 695 670
3 665 662 693
3 693 662 672
3 647 654 656
3 656 654 673
3 673 654 679
3 679 654 653
3 592 161 593
3 593 161 289
3 597 596 600
3 600 596 601
3 614 607 615
3 615 607 606
3 606 608 615
3 615 608 613
3 696 594 612
3 612 594 597
3 596 607 601
3 601 607 614
3 593 289 627
3 627 289 202
3 627 611 616
3 616 611 610
3 592 608 161
3 161 608 199
3 104 28 697
3 697 28 698
3 267 125 700
3 700 125 699
3 125 124 699
3 699 124 701
3 251 702 249
3 249 702 703
3 31 267 704
3 704 267 700
3 287 104 705
3 705 104 697
3 28 31 698
3 698 31 704
3 706 250 705
3 705 250 287
3 249 703 124
3 124 703 701
3 702 251 706
3 706 251 250
3 705 707 706
3 706 707 708
3 706 708 702
3 702 708 709
3 702 709 703
3 703 709 710
3 703 710 701
3 701 710 711
3 705 697 707
3 707 697 712
3 697 698 712
3 712 698 713
3 698 704 713
3 713 704 714
3 716 707 715
3 715 707 712
3 718 719 717
3 717 719 720
3 721 722 718
3 718 722 719
3 723 724 722
3 722 724 719
3 723 725 724
3 724 725 726
3 727 720 724
3 724 720 719
3 720 727 728
3 728 727 729
3 728 730 720
3 720 730 717
3 723 722 731
3 731 722 721
3 721 709 731
3 731 709 708
3 721 732 709
3 709 732 710
3 718 733 721
3 721 733 732
3 733 718 734
3 734 718 717
3 723 731 725
3 725 731 716
3 716 731 707
3 707 731 708
3 730 735 717
3 717 735 734
3 736 733 737
3 737 733 734
3 735 738 734
3 734 738 737
3 739 736 740
3 740 736 737
3 736 739 742
3 742 739 741
3 738 743 737
3 737 743 740
3 733 736 732
3 732 736 742
3 732 742 710
3 710 742 711
3 735 730 745
3 745 730 744
3 730 728 744
3 744 728 729
3 726 725 746
3 746 725 716
3 747 726 748
3 748 726 746
3 746 716 749
3 749 716 715
3 748 746 750
3 750 746 749
3 748 751 747
3 747 751 752
3 729 752 744
3 744 752 751
3 727 724 747
3 747 724 726
3 729 727 752
3 752 727 747
3 699 701 753
3 753 701 711
3 704 700 714
3 714 700 754
3 753 754 699
3 699 754 700
3 741 755 753
3 753 755 754
3 739 756 741
3 741 756 755
3 754 755 714
3 714 755 757
3 753 711 741
3 741 711 742
3 758 713 757
3 757 713 714
3 713 758 712
3 712 758 715
3 758 759 715
3 715 759 749
3 759 758 760
3 760 758 757
3 761 759 762
3 762 759 760
3 755 756 757
3 757 756 760
3 756 763 760
3 760 763 762
3 759 761 749
3 749 761 750
3 765 750 764
3 764 750 761
3 766 764 768
3 768 764 767
3 764 761 767
3 767 761 762
3 764 766 765
3 765 766 745
3 765 745 751
3 751 745 744
3 751 748 765
3 765 748 750
3 756 739 763
3 763 739 740
3 768 763 743
3 743 763 740
3 768 767 763
3 763 767 762
3 766 768 738
3 738 768 743
3 738 735 766
3 766 735 745
3 218 216 207
3 207 216 208
3 208 216 209
3 209 216 192
3 197 579 198
3 198 579 510
3 75 74 288
3 288 74 271
3 276 206 290
3 290 206 183
3 289 182 202
3 202 182 83
3 489 579 141
3 141 579 197
3 141 197 142
3 142 197 196
3 148 275 71
3 71 275 72
3 103 102 278
3 278 102 769
3 769 595 278
3 278 595 594
3 604 595 770
3 770 595 769
3 770 769 771
3 771 769 102
3 771 102 772
3 772 102 101
3 154 773 100
3 100 773 101
3 772 101 96
3 96 101 773
3 774 772 99
3 99 772 96
3 772 774 771
3 771 774 775
3 771 775 770
3 770 775 776
3 199 605 196
3 196 605 776
3 188 70 777
3 777 70 73
3 96 773 97
3 97 773 154
3 182 160 183
3 183 160 290
3 776 275 196
3 196 275 142
3 776 605 770
3 770 605 604
3 612 611 696
3 696 611 201
3 594 696 278
3 278 696 201
3 72 275 775
3 775 275 776
3 775 774 72
3 72 774 73
3 99 777 774
3 774 777 73
3 777 99 188
3 188 99 98
3 244 241 98
3 98 241 188
3 130 32 255
3 27 0 94
3 94 0 61
3 26 1 27
3 27 1 0
3 264 114 265
3 265 114 113
3 94 61 68
3 68 61 63
3 61 60 63
3 63 60 64
3 60 12 64
3 64 12 129
3 12 11 129
3 129 11 13
3 30 10 31
3 31 10 267
3 14 11 30
3 30 11 10
3 30 29 14
3 14 29 230
3 29 105 230
3 230 105 231
3 286 236 105
3 105 236 231
3 253 89 286
3 286 89 236
3 252 43 253
3 253 43 89
3 252 248 43
3 43 248 6
3 266 126 267
3 267 126 125
3 9 2 240
3 240 2 115
3 2 1 115
3 115 1 113
3 1 26 113
3 113 26 265
3 26 25 265
3 265 25 112
3 25 285 112
3 112 285 109
3 285 242 109
3 109 242 254
3 242 241 254
3 254 241 255
3 241 244 255
3 255 244 130
3 244 243 130
3 130 243 131
3 264 36 114
3 114 36 40
3 40 36 41
3 41 36 39
3 91 90 39
3 39 90 41
3 235 232 91
3 91 232 90
3 190 193 235
3 235 193 232
3 257 284 243
3 243 284 131
3 256 54 257
3 257 54 284
3 256 153 200
3 200 153 184
3 55 200 203
3 203 200 179
3 54 256 55
3 55 256 200
3 203 84 55
3 55 84 51
3 85 121 52
3 52 121 78
3 211 214 85
3 85 214 121
3 210 215 211
3 211 215 214
3 191 279 210
3 210 279 215
3 190 239 191
3 191 239 279
3 248 123 6
3 6 123 7
3 123 126 7
3 7 126 240
3 126 266 240
3 240 266 9
3 9 266 8
3 8 266 10
