ply
format ascii 1.0
element vertex 778
property float x
property float y
property float z
element face 1538
property list uchar int vertex_indices
end_header
0.00554251 0.0309133 0.76139
0.00399418 0.0385471 0.76886
0.0021714 0.0368178 0.76241
0.00793966 0.0298047 0.755481
-0.00622469 0.054003 0.769475
0.000383095 0.0620642 0.76878
-0.00467216 0.0548851 0.755074
-0.0109795 0.0500715 0.756041
0.00824676 0.0279889 0.75124
-0.000242192 0.0348696 0.75515
0.00811577 0.0266141 0.750675
0.0191806 0.0171664 0.750662
0.0161614 0.0203162 0.748668
0.0226414 0.00992879 0.749306
0.0235218 0.0183385 0.758407
0.0227784 0.0054502 0.75618
0.0116264 0.0104514 0.779461
0.000238978 0.00916561 0.78458
-0.00173818 -0.00224203 0.774728
0.0109666 0.000719795 0.769514
-0.0180496 0.00254597 0.780623
-0.00907204 -0.000349717 0.776558
-0.00675294 0.0102299 0.787881
-0.0152052 0.0129247 0.790974
-0.00497623 0.033004 0.769035
-0.00563226 0.0403549 0.775245
-0.000612911 0.0394642 0.773823
-0.000351448 0.03255 0.767082
0.00721653 0.0314235 0.746778
0.0178065 0.0331431 0.75451
0.014003 0.0276041 0.753218
0.00256668 0.0304737 0.746528
-0.017513 0.0607338 0.788598
-0.0150834 0.0660751 0.799271
-0.0100547 0.0667114 0.798514
-0.0129411 0.061515 0.789173
0.00536372 0.0678793 0.785421
0.00597226 0.0702676 0.795184
0.0153114 0.0709183 0.80189
0.0171121 0.0678747 0.790722
0.00426702 0.0648196 0.77719
0.0146284 0.0671301 0.778168
0.0102719 0.063364 0.767572
0.00463791 0.0555516 0.754078
-0.0253857 0.0629213 0.803313
-0.028488 0.059036 0.795251
0.018203 -0.0178573 0.713188
0.0135951 -0.0185723 0.713168
0.0131225 -0.015687 0.716871
0.0177448 -0.0154874 0.71609
-0.0315182 0.0480286 0.810045
-0.0285099 0.0422063 0.816142
-0.0296385 0.0472759 0.820195
-0.0313353 0.0535305 0.81477
-0.0318615 0.0410794 0.804296
-0.0260669 0.0349555 0.810238
0.0248401 -0.0256019 0.718603
0.0243321 -0.0225263 0.716019
0.0250686 -0.0209718 0.719737
0.0248401 -0.0241169 0.7225
0.0122203 0.0229123 0.750064
0.00642305 0.024719 0.754811
0.0124632 0.00827377 0.739451
0.00952212 0.0146456 0.746161
0.0150809 0.0157378 0.745899
0.017446 0.00978447 0.741043
-0.00774482 0.0166642 0.756435
-0.00750468 0.0247114 0.763886
-0.00250782 0.0236416 0.761132
-0.00161875 0.0152691 0.752152
-0.0194622 0.0269009 0.766026
-0.0184542 0.0185572 0.759273
-0.025696 0.0208801 0.761408
-0.0252363 0.0270109 0.765164
-0.0127646 0.00327975 0.747156
-0.0109745 -0.00336472 0.743764
-0.0131471 -0.00151736 0.74497
-0.016034 0.00405935 0.748842
-0.0301017 0.0521472 0.824703
-0.0298041 0.0588598 0.81881
-0.0361312 0.00906441 0.783916
-0.0415438 0.0173385 0.782948
-0.0452039 0.0100115 0.773725
-0.038753 0.00236319 0.77713
-0.0207173 0.0380345 0.818586
-0.0235417 0.0424881 0.824134
0.0217616 -0.0294209 0.720304
0.0215724 -0.0276073 0.723889
0.0216295 0.0586776 0.770878
0.0131216 0.0525915 0.754169
0.0247567 0.0618531 0.786603
0.022354 0.0619821 0.798413
0.0215684 0.0650871 0.807788
0.00495946 0.0111808 0.744898
0.00153532 0.0265659 0.760418
-0.00932959 0.0335348 0.770672
-0.0365067 0.0354553 0.772931
-0.0358116 0.0425773 0.779171
-0.0275483 0.040878 0.773932
-0.0296909 0.0344465 0.769948
-0.0443564 0.0240763 0.776756
-0.0418999 0.027378 0.770911
-0.0429516 0.0220076 0.766008
-0.0461017 0.0177506 0.76987
0.010857 0.0354368 0.743824
0.0204735 0.0378814 0.754894
-0.0317993 0.0543976 0.803635
-0.0290037 0.0590495 0.807777
-0.0277274 0.0637744 0.813979
-0.0101783 0.0513445 0.781513
-0.00950605 0.0621954 0.789217
-0.00589972 0.0619047 0.787402
-0.00657207 0.0503513 0.781253
7.46462e-05 0.0463186 0.77578
-0.00128342 0.0573219 0.778568
-0.00559112 0.0442932 0.767593
-0.00285874 0.0692083 0.79803
-0.00899453 0.0728492 0.805472
-0.000949965 0.073988 0.804696
-0.0170849 0.0707272 0.807984
-0.0246573 0.06817 0.810823
-0.0247903 0.0459661 0.83137
0.00635802 0.0730894 0.804615
-0.0104198 0.04595 0.749048
-0.0101195 0.0426232 0.743
-0.0105448 0.0375545 0.745959
-0.0103652 0.039235 0.750671
0.0243235 0.00244334 0.745958
0.0213547 0.00678795 0.742184
0.0199795 0.0141539 0.746699
-0.022611 0.05352 0.78268
-0.0318963 0.0526312 0.788544
0.00828846 0.00444774 0.739245
0.0247109 -0.0219581 0.726614
0.0248607 -0.0182164 0.723569
0.0244226 -0.00667544 0.736324
0.0243533 -0.0116592 0.739893
0.0082896 -0.0055962 0.738612
0.00898693 -0.000220189 0.736848
0.00884381 -0.00296752 0.735656
0.0076896 -0.00815391 0.736227
-0.0211096 0.00346856 0.748279
-0.0231486 0.00801663 0.751692
0.00884594 -0.00777966 0.758144
0.0187227 -0.00523243 0.758268
0.0181696 0.00264955 0.764682
-0.0135598 0.0178406 0.759035
-0.014169 0.0106602 0.752465
-0.0177493 0.0112385 0.753656
0.00269889 0.00790623 0.743965
0.00542479 0.00158313 0.740025
0.00168958 0.00304265 0.742377
-0.00093791 0.00873505 0.746558
-0.0377573 0.0255605 0.791366
-0.0421536 0.0325122 0.784597
0.022172 -0.0192161 0.714045
0.0224251 -0.017145 0.717334
-0.0133226 0.0258103 0.766061
0.0180065 0.0126351 0.772394
-0.0138454 0.0345989 0.771674
-0.0288307 -0.00406616 0.762831
-0.0327492 -7.24962e-05 0.757217
-0.0309351 -0.000607817 0.7532
-0.0292167 -0.00459721 0.755496
0.00803116 -0.0185748 0.725321
0.0090119 -0.0154827 0.722251
0.00954587 -0.018092 0.718633
0.0087455 -0.0214847 0.721275
0.0122348 0.00242434 0.735923
0.0172418 0.00399622 0.736529
0.0162921 -0.000772482 0.732212
0.0121309 -0.00163052 0.73308
0.0217595 0.00124795 0.738093
0.02148 -0.00246684 0.733561
0.0105916 -0.0225032 0.728156
0.0164517 -0.0259752 0.729816
0.0148986 -0.016644 0.741703
0.00954741 -0.0138573 0.738004
-0.0132672 0.0217147 0.801483
-0.0225065 0.0241035 0.802129
-0.0253545 0.015264 0.791807
-0.0289583 0.00594264 0.781895
-0.0314173 -0.00202113 0.771106
-0.0209857 -0.00558641 0.77143
-0.0314489 0.0182285 0.793164
0.00775631 -0.00827291 0.746599
0.0130601 -0.00984547 0.750746
0.00892512 -0.00934843 0.752995
-0.0202498 0.0357225 0.771959
0.0223251 -0.0146156 0.720744
0.0169259 0.04585 0.813249
0.00649771 0.0417176 0.818623
0.00849078 0.0371711 0.811627
0.0194751 0.0423228 0.804391
0.0124615 -0.0126341 0.719431
0.0173175 -0.0122245 0.718761
-0.0287009 0.00875472 0.751818
-0.0269824 0.00447717 0.749179
-0.029168 0.00363668 0.749954
-0.0322149 0.00799784 0.7502
-0.0264723 0.0266299 0.803048
-0.0469972 0.0094225 0.764393
-0.0413011 0.00127992 0.768411
-0.0200085 0.0321327 0.811454
-0.0120298 0.0295984 0.811149
-0.0114697 0.0349792 0.818445
-0.0103995 -0.00959875 0.763536
-0.00596067 0.0194223 0.798597
-0.00567233 0.0284316 0.80868
-0.00512453 0.035307 0.817188
-0.00500287 0.0393398 0.824022
-0.0121665 0.0394278 0.824837
0.0208047 -0.0254082 0.728514
0.0164818 -0.0291622 0.725144
-0.0129201 0.0431803 0.832653
-0.00510628 0.0440092 0.831251
0.00225716 0.0284239 0.804733
0.0116116 0.0286335 0.800124
0.00126121 0.0196498 0.795294
0.0105739 0.0194139 0.789979
5.85474e-05 -0.00968621 0.767316
0.0129031 -0.0338531 0.712668
0.0116391 -0.0283545 0.719952
0.00926007 -0.0243974 0.717301
0.0106015 -0.0316582 0.710369
0.0109738 -0.0254097 0.724107
0.016547 -0.0306429 0.721529
0.0201103 0.0231293 0.780771
0.00386111 -0.00345159 0.739889
0.0233097 0.0358845 0.788524
0.0251173 0.0260963 0.765855
0.0265712 0.0370935 0.769427
0.0255672 0.0507787 0.795363
0.0278402 0.0495913 0.777144
0.0209662 0.0570256 0.813731
0.0226949 0.0526549 0.805766
0.0228903 0.0477717 0.761637
0.01697 -0.0243905 0.705082
0.012562 -0.0251841 0.705742
0.015818 0.050316 0.82077
-0.00837837 0.0414809 0.757356
-0.0185427 0.0439777 0.777053
-0.0135439 0.0426683 0.776596
-0.034657 0.0466374 0.783004
-0.0252979 0.0464278 0.777886
0.0208049 -0.0256304 0.706149
-0.0101702 -0.00806293 0.743703
-0.0113052 -0.0054508 0.746073
-0.00508917 0.0497671 0.747404
-0.00465756 0.0472747 0.740846
0.00649455 0.0441827 0.738347
0.000748385 0.0477121 0.739022
0.00297502 0.0509613 0.746192
0.00924225 0.0478506 0.745472
-0.0132098 0.0518571 0.78135
-0.0169713 0.0520428 0.781417
-0.0346901 0.0341294 0.798289
-0.0387265 0.0399364 0.790843
0.0239098 -0.00228176 0.741577
0.0238003 -0.0023465 0.75121
0.0239613 -0.00702547 0.745527
0.0206331 -0.0140347 0.742835
0.00635025 -0.00783146 0.741609
0.0094448 -0.00853105 0.742654
-0.00308995 0.0596786 0.782499
-0.00149262 0.0481621 0.779459
-0.00348755 0.0342694 0.750392
-0.00585041 0.0331284 0.747007
-0.00672705 0.0106208 0.750273
-0.00601509 -0.014039 0.755038
0.00220401 -0.0148821 0.758918
-0.00525629 0.00345448 0.744751
0.0237666 -0.0313991 0.710478
0.0228809 -0.0281844 0.707757
0.019886 -0.00983459 0.749248
-0.0247666 0.0139282 0.755273
-0.0130851 -0.0104915 0.756418
-0.00954554 -0.0113534 0.749486
-0.0459638 0.0167265 0.764318
0.0060758 0.0467582 0.826079
0.00957372 -0.0210161 0.714293
0.0100972 -0.0271669 0.707186
0.0162093 -0.0350537 0.713953
0.0206964 -0.0339971 0.713492
-0.0346414 0.0473192 0.795735
-0.0100621 0.0413567 0.776121
0.016065 0.0439584 0.750395
0.0108551 0.039643 0.740662
-0.00406894 -0.00200838 0.741973
-0.0349355 -0.000660053 0.76361
-0.0225602 -0.00885772 0.762683
-0.0238244 -0.0108814 0.754116
-0.0185268 -0.0127888 0.750388
-0.0137349 -0.00934667 0.746645
0.0154981 -0.0372586 0.710627
0.0200607 -0.0362607 0.710436
0.0236103 -0.0345914 0.707475
0.0230053 -0.0316007 0.704423
0.0205629 -0.0283597 0.703281
0.0122802 -0.0364704 0.708811
0.01078 -0.0349535 0.70655
0.010344 -0.0299464 0.70433
0.0119699 -0.0393876 0.705333
0.0156126 -0.042181 0.704926
0.023378 -0.0429037 0.697256
0.0231078 -0.040807 0.701994
0.0221357 -0.0428655 0.701526
0.022011 -0.0454959 0.697993
0.0213601 -0.0489637 0.69478
0.0228243 -0.0464844 0.69334
0.0195943 -0.0424318 0.704244
0.0188723 -0.0462975 0.6999
0.0154845 -0.0464291 0.700074
0.0153027 -0.0504072 0.696803
0.0184898 -0.0504255 0.696573
0.0167124 -0.0438432 0.70339
0.0197473 -0.0413045 0.705375
0.0210739 -0.049723 0.691516
0.0203623 -0.0512539 0.693186
0.0177491 -0.0522002 0.694256
0.0178018 -0.0524627 0.691413
0.0233866 -0.0350061 0.701208
0.0232721 -0.0406773 0.695523
0.0218628 -0.044361 0.691461
0.0199753 -0.0477436 0.690026
0.020585 -0.0392994 0.693018
0.0194755 -0.0430077 0.690824
0.01762 -0.0458364 0.689553
0.0174435 -0.0386203 0.692301
0.0168037 -0.0423575 0.690695
0.0178371 -0.0293639 0.700447
0.0211075 -0.0305053 0.701072
0.016336 -0.0444268 0.689215
0.0164026 -0.051191 0.690505
0.0130377 -0.0446198 0.700967
0.0130888 -0.0486144 0.695901
0.0114747 -0.0431414 0.700391
0.0112729 -0.0474329 0.695388
0.0133359 -0.0522527 0.692751
0.0155754 -0.0520715 0.694526
0.0170303 -0.0262114 0.703381
0.0123469 -0.0273718 0.703702
0.0130856 -0.0299376 0.700939
0.0134726 -0.0384492 0.69286
0.010454 -0.0325415 0.701691
0.0102414 -0.037705 0.702904
0.0103605 -0.042227 0.697946
0.0103136 -0.0401977 0.695385
0.0107536 -0.0455022 0.69402
0.0114775 -0.0435525 0.692834
0.0138087 -0.0423217 0.690767
0.0123511 -0.0478423 0.691096
0.0126871 -0.0504285 0.692096
0.0148662 -0.0485363 0.689614
0.0123705 -0.0456455 0.691039
0.0145673 -0.0453242 0.689998
0.0074814 -0.0306708 0.717171
0.00241763 -0.0297617 0.715997
0.00197196 -0.0260286 0.719692
0.00663253 -0.0270522 0.720476
0.0106183 -0.0389399 0.7263
0.0122183 -0.0347837 0.722478
0.0120777 -0.0317937 0.726732
0.0101219 -0.0362187 0.730522
0.0051985 -0.0402684 0.728452
0.00425829 -0.0376117 0.732333
0.00978005 -0.0333536 0.734453
0.0113571 -0.0284819 0.731046
0.00829281 -0.0136705 0.744106
0.00824368 -0.0189893 0.748539
-0.00669765 -0.00897329 0.739196
-0.00678353 -0.0120065 0.739751
0.0103797 -0.0317817 0.719317
0.00980336 -0.0286544 0.723462
-0.00553501 -0.0268197 0.726718
-0.00290698 -0.0241141 0.724188
-0.00199362 -0.0269149 0.720612
-0.00455601 -0.0296726 0.723523
0.00380042 -0.00914835 0.739506
-0.0021238 -0.00823768 0.738942
0.00664662 -0.0113335 0.741064
-0.00548623 -0.0304317 0.73103
-0.00278163 -0.0338795 0.734998
-0.00442708 -0.0210924 0.748709
-0.00749098 -0.0178917 0.744188
0.00945431 -0.0255124 0.727027
0.00126255 -0.0234278 0.722861
0.00586768 -0.0236912 0.72363
0.00343603 -0.0345282 0.736098
-0.00191046 -0.0368875 0.731274
-0.00175006 -0.0448931 0.714885
-0.00353641 -0.0368457 0.723204
-0.00362241 -0.0336723 0.719802
-0.00260669 -0.0426853 0.711007
-0.004678 -0.0331944 0.727056
-0.000902308 -0.0393601 0.727182
0.00728407 -0.03972 0.705816
0.00211499 -0.0394052 0.705491
0.0104717 -0.0411148 0.7076
0.00257777 -0.0220044 0.751057
0.0106619 -0.0456808 0.716118
0.0120914 -0.0425409 0.711108
-0.00178651 -0.0304516 0.717138
-0.00106696 -0.0407575 0.707395
0.00054039 -0.0464243 0.717433
0.00592595 -0.0466793 0.719444
0.00190743 -0.0496347 0.713183
0.00666635 -0.0498765 0.714553
0.0114908 -0.0486659 0.711276
0.0122955 -0.0456973 0.70704
0.0107325 -0.0437245 0.70437
-0.000471798 -0.0486067 0.710679
-0.00177157 -0.046588 0.707175
-0.000379897 -0.0432084 0.704566
0.000203824 -0.0521509 0.704918
0.00317554 -0.0549497 0.706789
0.0140707 -0.0606131 0.695856
0.0139589 -0.0573607 0.699859
0.0126327 -0.0588189 0.701182
0.0128343 -0.0621288 0.697681
0.01286 -0.0549953 0.704995
0.0118402 -0.05676 0.704529
0.00799717 -0.0569122 0.706014
0.00904517 -0.059978 0.701428
0.00500779 -0.0589751 0.701938
0.00528967 -0.0629241 0.698283
0.00947476 -0.0641387 0.698256
0.00508441 -0.0572027 0.705077
0.0123367 -0.0642272 0.695371
0.0128943 -0.0634771 0.69319
0.00769402 -0.055276 0.7081
0.0133183 -0.049465 0.704535
0.0138874 -0.0551008 0.698155
0.0135571 -0.0587782 0.693782
0.0108957 -0.0621607 0.691213
0.0116432 -0.0530404 0.695903
0.0110443 -0.0571512 0.692303
0.00905134 -0.0602949 0.690494
0.00803755 -0.0513431 0.694043
0.00764462 -0.0558353 0.690852
0.00777517 -0.0436725 0.70119
0.0115445 -0.0458975 0.702286
0.00770427 -0.0583671 0.690198
0.00924997 -0.0659986 0.693516
0.00792199 -0.0641931 0.691042
0.0092873 -0.0659592 0.695148
0.00280653 -0.0579589 0.701316
0.00364085 -0.0618733 0.697078
0.00118958 -0.0564279 0.700127
0.00237809 -0.0608504 0.695658
0.00510361 -0.0649261 0.694518
0.00627951 -0.0656503 0.695332
0.00737764 -0.0421158 0.703721
0.00263529 -0.0420241 0.703648
0.00292009 -0.0434124 0.701167
0.00367303 -0.051165 0.694117
-0.000317647 -0.0451189 0.702528
-0.00107534 -0.0497304 0.703403
4.6422e-05 -0.0544516 0.698728
0.000614859 -0.0525536 0.696155
0.00114877 -0.0589441 0.694393
0.00130809 -0.0563773 0.693655
0.0043123 -0.0554656 0.691206
0.00332827 -0.0616329 0.691722
0.0042267 -0.0641233 0.693214
0.00669404 -0.0619264 0.690365
0.00277744 -0.0590723 0.691453
0.0055757 -0.0588098 0.690084
-0.0175479 0.00207195 0.732677
-0.0213075 0.0051245 0.735643
-0.0222145 0.00435723 0.735286
-0.0179393 0.000290127 0.732788
-0.0227131 -0.0051071 0.725572
-0.0186439 -0.00245371 0.727256
-0.0181926 -0.00589456 0.728735
-0.0221648 -0.0100103 0.727691
-0.0281321 -0.00448218 0.725939
-0.0283086 -0.0114015 0.728677
-0.0208731 -0.012959 0.731355
-0.0178427 -0.00805905 0.731463
-0.0149254 -0.00875165 0.742684
-0.0193836 -0.0140931 0.743752
-0.016942 -0.000332276 0.730006
-0.0171258 -0.00218384 0.730989
-0.0303536 0.00369962 0.73618
-0.02597 0.00432558 0.73647
-0.0271877 0.00543783 0.735684
-0.0302757 0.00419101 0.734988
-0.0148179 0.000172695 0.744296
-0.0202233 0.00249617 0.746101
-0.0131384 -0.00375238 0.742484
-0.0332411 -0.00128928 0.735826
-0.0326468 -0.00867329 0.734061
-0.0306617 -0.006833 0.747179
-0.031238 -0.00171156 0.747635
-0.0163799 -0.00392882 0.732446
-0.0208232 0.00366392 0.73526
-0.0168772 0.000194182 0.733503
-0.0268432 -0.0130251 0.733564
-0.0328501 -0.00573697 0.730302
-0.0314248 0.0137967 0.726291
-0.0335199 0.00236777 0.731783
-0.030642 0.00541067 0.735038
-0.0304333 0.0157936 0.729849
-0.0335659 0.000295045 0.733234
-0.0325355 -0.00185568 0.72869
-0.0169512 0.0145439 0.731059
-0.0212598 0.016704 0.732988
-0.0162313 0.0111364 0.72773
-0.0253259 -0.0129479 0.746042
-0.0285196 0.00256015 0.747793
-0.0204595 0.00798347 0.7211
-0.0172405 0.00941321 0.724691
-0.0264487 0.00581775 0.736187
-0.0268746 0.0167084 0.732863
-0.030204 0.0103692 0.723074
-0.026159 0.00705503 0.720788
-0.0292824 0.0155969 0.722247
-0.0254867 0.0124758 0.719449
-0.0196473 0.0126294 0.719785
-0.0164992 0.0130303 0.724211
-0.0156227 0.0146159 0.727503
-0.0305651 0.0185291 0.726249
-0.0292033 0.0190373 0.729325
-0.0257737 0.0172444 0.732414
-0.0292273 0.0225138 0.727236
-0.0280854 0.0225834 0.722878
-0.0140723 0.0312362 0.724647
-0.0157121 0.0253259 0.723417
-0.016992 0.0262257 0.722917
-0.015529 0.031619 0.723593
-0.0184328 0.0194286 0.720585
-0.019266 0.0214727 0.720973
-0.0230489 0.0214914 0.720192
-0.0214974 0.0277642 0.721937
-0.0262441 0.0290348 0.725326
-0.0235344 0.0332552 0.725955
-0.0194602 0.032763 0.722733
-0.0263574 0.023808 0.72271
-0.0157269 0.0348355 0.724153
-0.0138657 0.0349556 0.724622
-0.0236645 0.0191717 0.719385
-0.0153232 0.0172853 0.723849
-0.013479 0.0246638 0.725078
-0.0116064 0.030307 0.726045
-0.012969 0.0353063 0.727683
-0.0127519 0.0253411 0.728199
-0.0117679 0.0303957 0.728589
-0.0128394 0.0350063 0.730126
-0.0138633 0.0264861 0.731412
-0.013346 0.0314749 0.731434
-0.0162773 0.0173935 0.730287
-0.0147094 0.0171525 0.727066
-0.0135394 0.0343905 0.731595
-0.0175449 0.0371327 0.725098
-0.016796 0.0386922 0.729349
-0.0179351 0.0352598 0.724486
-0.0272299 0.0285669 0.726289
-0.0252765 0.0346788 0.727732
-0.0271168 0.0285137 0.728967
-0.0248222 0.0345715 0.729876
-0.022171 0.0377647 0.727428
-0.0214231 0.036819 0.726365
-0.0174024 0.0159807 0.730534
-0.0209284 0.0171158 0.732923
-0.0196984 0.0183129 0.732643
-0.0174932 0.0277801 0.733826
-0.0243906 0.0190689 0.732973
-0.0277892 0.0230599 0.730188
-0.0253003 0.0289081 0.731145
-0.0221256 0.0293261 0.733337
-0.0234724 0.0345645 0.731378
-0.0213212 0.0329383 0.732898
-0.0163897 0.0323762 0.73392
-0.0205141 0.0369971 0.731372
-0.0218712 0.0384142 0.729561
-0.0158448 0.0377538 0.731556
-0.0191464 0.0356402 0.732672
-0.0156563 0.035989 0.732967
-0.0243731 0.00342465 0.747894
-0.0319168 0.0157661 0.740315
-0.034582 0.017492 0.741837
-0.035547 0.0170293 0.740996
-0.032814 0.0143087 0.740534
-0.0368876 0.00951956 0.73188
-0.0330422 0.0113005 0.7344
-0.0337622 0.00715476 0.735427
-0.0370283 0.0053385 0.73352
-0.0414553 0.0100684 0.731821
-0.041808 0.00613153 0.733175
-0.0372184 0.00297786 0.737085
-0.0335789 0.00510393 0.73827
-0.0331456 0.00214119 0.75247
-0.0369043 0.000814015 0.754611
-0.0454348 0.0165896 0.758725
-0.0420769 0.0185896 0.75762
-0.0417666 0.0180924 0.75116
-0.0448908 0.0166097 0.7518
-0.0314144 0.0134113 0.737658
-0.0315192 0.010277 0.738704
-0.0446258 0.0176008 0.739696
-0.0407487 0.0184965 0.740849
-0.0390719 0.0186117 0.74157
-0.043274 0.0189685 0.740588
-0.0377097 0.0174212 0.754759
-0.0347383 0.013365 0.752561
-0.0340336 0.0131479 0.750362
-0.0371787 0.0167728 0.749609
-0.0317379 0.00781394 0.749998
-0.0467726 0.0138263 0.738337
-0.046431 0.00885463 0.736388
-0.0478056 0.00834009 0.754498
-0.04698 0.0126884 0.753829
-0.0319157 0.00850602 0.738783
-0.0365426 0.0169494 0.741278
-0.0333292 0.0135611 0.739361
-0.042481 0.00406726 0.737014
-0.0455473 0.0115056 0.735056
-0.0430006 0.0244094 0.736471
-0.0451519 0.0183583 0.738308
-0.042399 0.0202506 0.741808
-0.0408773 0.0252157 0.739171
-0.0456271 0.0161002 0.737612
-0.0449437 0.0149396 0.73443
-0.0304104 0.0212497 0.738593
-0.0340495 0.0232385 0.740527
-0.0296487 0.0203904 0.736716
-0.0428554 0.00209534 0.755927
-0.0342719 0.0187631 0.730341
-0.0308808 0.0195033 0.733393
-0.0377599 0.0192893 0.74231
-0.0378776 0.024577 0.740275
-0.0428226 0.0228751 0.733
-0.0395915 0.0190733 0.729815
-0.0409774 0.026864 0.733232
-0.0377852 0.0233158 0.729357
-0.0318813 0.0228417 0.730555
-0.0296825 0.0218288 0.733784
-0.0286655 0.0221961 0.736455
-0.0408457 0.0274072 0.737351
-0.0391693 0.0276942 0.73994
-0.0366838 0.0262901 0.741214
-0.0388137 0.0304142 0.738011
-0.0373702 0.0308195 0.733806
-0.0254102 0.0329884 0.736858
-0.026786 0.0298315 0.73514
-0.0277711 0.0306716 0.734488
-0.0259748 0.0332535 0.735589
-0.0296967 0.0269095 0.732148
-0.0301766 0.0283023 0.732243
-0.0335047 0.0288553 0.731995
-0.0309222 0.0326076 0.733775
-0.0341142 0.034678 0.736322
-0.0316414 0.0375465 0.737362
-0.0292344 0.0350188 0.734937
-0.0354398 0.0315904 0.733423
-0.0255844 0.0358858 0.736229
-0.0243825 0.0361827 0.736863
-0.0345307 0.0277232 0.730724
-0.0276787 0.0246692 0.734898
-0.0250027 0.0292725 0.737098
-0.0236046 0.033299 0.738427
-0.0238436 0.0365381 0.739035
-0.0249207 0.0286013 0.738947
-0.0230009 0.0334005 0.740375
-0.0232338 0.0363295 0.741246
-0.0259383 0.0284897 0.741799
-0.0244079 0.0331234 0.742423
-0.028961 0.023844 0.740205
-0.027572 0.0240833 0.737785
-0.0240307 0.0355213 0.742235
-0.0265234 0.0383811 0.737292
-0.0257578 0.0385119 0.740001
-0.0273102 0.0377061 0.736275
-0.0349642 0.0347982 0.737316
-0.0319662 0.0380508 0.738988
-0.0352875 0.0344442 0.739566
-0.0315728 0.0378717 0.740597
-0.0292776 0.039589 0.738747
-0.0294097 0.0383988 0.737122
-0.0298072 0.0228899 0.739411
-0.0329369 0.0247079 0.740966
-0.0323736 0.025906 0.742051
-0.0288562 0.0298522 0.743522
-0.0355621 0.027853 0.742185
-0.0377696 0.0294892 0.740728
-0.0343773 0.0335275 0.741938
-0.0324176 0.0322275 0.743629
-0.0307013 0.0372326 0.742324
-0.0291323 0.0356127 0.743769
-0.0264524 0.0338076 0.744069
-0.027585 0.0383704 0.742203
-0.0282961 0.0392002 0.740672
-0.0254544 0.037734 0.741883
-0.0270989 0.0372297 0.743406
-0.0255945 0.0365648 0.74301
-0.0467767 0.0131562 0.758182
0.00197555 0.0301692 0.734057
-0.00125466 0.0279126 0.737352
-0.0135016 0.0356841 0.737818
-0.0104602 0.0304435 0.739324
-0.0122365 0.0406104 0.734034
-0.00383483 0.0430151 0.728834
-0.00864014 0.0431484 0.731431
-0.0053122 0.0279626 0.738536
0.00361226 0.0336953 0.731546
0.00149442 0.0398681 0.728885
-0.00113549 0.0318718 0.723219
-0.0033466 0.0385568 0.722748
-0.0092321 0.0419126 0.724598
-0.0132008 0.0417815 0.729678
-0.0152839 0.0401191 0.732813
-0.00233426 0.028128 0.729228
-0.00488764 0.0262237 0.733353
-0.0088055 0.0274597 0.736412
-0.0076102 0.0250903 0.724463
-0.0156146 0.0254591 0.719533
-0.0321069 0.0328524 0.722074
-0.0272062 0.0350626 0.72401
-0.0258313 0.0337231 0.721628
-0.0306408 0.0319833 0.72013
-0.0225685 0.0364247 0.723153
-0.0225682 0.034678 0.721402
-0.0185317 0.0308656 0.719849
-0.0228898 0.0294567 0.718105
-0.0173805 0.0269291 0.719255
-0.0204411 0.0245725 0.719053
-0.0275587 0.0273541 0.71716
-0.0327285 0.0297003 0.718318
-0.0311921 0.025712 0.716699
-0.0341449 0.0294893 0.720158
-0.0172905 0.0317154 0.716958
-0.0207732 0.0394987 0.728306
-0.0273774 0.0358105 0.728089
-0.0323025 0.0319505 0.72637
-0.0347997 0.0284757 0.722804
-0.0274752 0.0338543 0.731629
-0.031183 0.0301336 0.728781
-0.0327265 0.0261917 0.726089
-0.0255469 0.0308788 0.733743
-0.0296865 0.0274307 0.730266
-0.0168501 0.0351377 0.736853
-0.0194773 0.0394339 0.733691
-0.031046 0.0255724 0.727487
-0.0332594 0.0243714 0.717471
-0.0335261 0.0231647 0.720251
-0.0186551 0.0221789 0.720499
-0.0246728 0.0224904 0.717363
-0.0240227 0.0200876 0.719071
-0.0171947 0.0209174 0.7229
-0.0238242 0.0188961 0.721176
-0.0290323 0.0205848 0.717584
-0.0283861 0.0230791 0.716414
-0.0155417 0.0361869 0.736289
-0.0125006 0.0309495 0.737852
-0.0134943 0.0297771 0.737259
-0.0216215 0.025819 0.733174
-0.0107385 0.0252436 0.734738
-0.0083954 0.0241389 0.729402
-0.0170392 0.0204573 0.726535
-0.0185001 0.0222367 0.730547
-0.024466 0.019156 0.724508
-0.0250591 0.0204784 0.726975
-0.0276632 0.0239527 0.729602
-0.0290686 0.0196461 0.723169
-0.0289849 0.0195899 0.720137
-0.0318372 0.0225318 0.723877
-0.0280625 0.0205453 0.725326
-0.0300001 0.022783 0.726265
-0.0424118 0.0200642 0.761912
-0.0368027 0.0196894 0.75829
-0.0380361 0.0225965 0.762653
-0.0375994 0.0286688 0.767527
-0.04056 0.0329667 0.775607
-0.0313032 0.0281159 0.765544
-0.0324317 0.0213964 0.760706
-0.0312253 0.0152951 0.755223
-0.0244543 0.0324796 0.76932
3 1 2 0
3 0 2 3
3 4 5 7
3 7 5 6
3 8 3 9
3 9 3 2
3 11 12 10
3 10 12 8
3 13 11 15
3 15 11 14
3 17 18 16
3 16 18 19
3 21 22 20
3 20 22 23
3 25 26 24
3 24 26 27
3 29 30 28
3 28 30 31
3 32 33 35
3 35 33 34
3 36 37 39
3 39 37 38
3 40 41 5
3 5 41 42
3 5 42 6
3 6 42 43
3 44 33 45
3 45 33 32
3 47 48 46
3 46 48 49
3 51 52 50
3 50 52 53
3 55 51 54
3 54 51 50
3 57 58 56
3 56 58 59
3 60 61 3
3 3 61 0
3 63 64 62
3 62 64 65
3 67 68 66
3 66 68 69
3 71 72 70
3 70 72 73
3 75 76 74
3 74 76 77
3 52 78 53
3 53 78 79
3 81 82 80
3 80 82 83
3 84 85 51
3 51 85 52
3 56 59 86
3 86 59 87
3 88 89 42
3 42 89 43
3 42 41 88
3 88 41 90
3 39 38 91
3 91 38 92
3 93 69 63
3 63 69 68
3 12 60 8
3 8 60 3
3 24 27 68
3 68 27 94
3 95 24 67
3 67 24 68
3 97 98 96
3 96 98 99
3 100 101 103
3 103 101 102
3 105 29 104
3 104 29 28
3 50 53 106
3 106 53 107
3 53 79 107
3 107 79 108
3 110 111 109
3 109 111 112
3 114 4 113
3 113 4 115
3 114 40 4
3 4 40 5
3 35 34 110
3 110 34 116
3 34 117 116
3 116 117 118
3 33 119 34
3 34 119 117
3 33 44 119
3 119 44 120
3 124 125 123
3 123 125 126
3 127 128 13
3 13 128 129
3 32 130 45
3 45 130 131
3 132 93 62
3 62 93 63
3 133 134 136
3 136 134 135
3 138 139 137
3 137 139 140
3 76 141 77
3 77 141 142
3 143 144 19
3 19 144 145
3 147 148 146
3 146 148 71
3 150 151 149
3 149 151 152
3 81 100 82
3 82 100 103
3 100 81 154
3 154 81 153
3 155 156 57
3 57 156 58
3 157 67 146
3 146 67 66
3 158 145 14
3 14 145 15
3 67 157 95
3 95 157 159
3 128 65 129
3 129 65 64
3 161 162 160
3 160 162 163
3 165 166 164
3 164 166 167
3 169 170 168
3 168 170 171
3 173 170 172
3 172 170 169
3 175 176 174
3 174 176 177
3 179 180 178
3 178 180 23
3 181 182 20
3 20 182 183
3 80 184 81
3 81 184 153
3 185 186 187
3 187 186 143
3 157 70 159
3 159 70 188
3 189 134 156
3 156 134 58
3 168 171 138
3 138 171 139
3 146 71 157
3 157 71 70
3 191 192 190
3 190 192 193
3 166 165 48
3 48 165 194
3 195 189 49
3 49 189 156
3 196 197 199
3 199 197 198
3 20 23 181
3 181 23 180
3 145 158 19
3 19 158 16
3 181 180 80
3 80 180 184
3 200 184 179
3 179 184 180
3 201 202 82
3 82 202 83
3 204 205 203
3 203 205 84
3 206 21 183
3 183 21 20
3 178 23 207
3 207 23 22
3 207 208 178
3 178 208 204
3 208 209 204
3 204 209 205
3 211 205 210
3 210 205 209
3 178 204 179
3 179 204 203
3 212 175 87
3 87 175 213
3 85 84 211
3 211 84 205
3 192 216 217
3 216 218 217
3 217 218 219
3 218 17 219
3 219 17 16
3 18 220 19
3 19 220 143
3 221 222 224
3 224 222 223
3 174 225 175
3 175 225 213
3 226 86 213
3 213 86 87
3 219 16 227
3 227 16 158
3 133 212 59
3 59 212 87
3 137 228 150
3 150 228 151
3 192 191 209
3 209 191 210
3 229 193 217
3 217 193 192
3 230 231 227
3 227 231 229
3 232 233 90
3 90 233 88
3 234 235 92
3 92 235 91
3 229 231 233
3 233 231 236
3 46 237 47
3 47 237 238
3 239 190 234
3 234 190 235
3 4 7 115
3 115 7 240
3 241 242 188
3 188 242 159
3 243 244 97
3 97 244 98
3 155 245 46
3 46 245 237
3 75 246 76
3 76 246 247
3 249 124 248
3 248 124 123
3 251 252 250
3 250 252 253
3 110 109 35
3 35 109 254
3 255 32 254
3 254 32 35
3 256 257 153
3 153 257 154
3 62 168 132
3 132 168 138
3 65 169 62
3 62 169 168
3 172 169 128
3 128 169 65
3 128 127 172
3 172 127 258
3 127 259 258
3 258 259 260
3 212 133 261
3 261 133 136
3 262 263 185
3 185 263 186
3 111 264 112
3 112 264 265
3 10 266 267
3 233 232 229
3 229 232 193
3 152 268 69
3 69 268 66
3 174 177 164
3 164 177 140
3 149 152 93
3 93 152 69
3 270 220 269
3 269 220 206
3 268 152 271
3 271 152 151
3 120 44 108
3 108 44 107
3 46 49 155
3 155 49 156
3 56 272 57
3 57 272 273
3 144 274 259
3 259 274 260
3 275 148 142
3 142 148 77
3 147 268 74
3 74 268 271
3 206 276 269
3 269 276 277
3 194 195 48
3 48 195 49
3 58 134 59
3 59 134 133
3 82 103 201
3 201 103 278
3 148 147 77
3 77 147 74
3 246 277 247
3 247 277 276
3 182 181 83
3 83 181 80
3 47 238 280
3 280 238 281
3 226 222 282
3 282 222 221
3 222 225 223
3 223 225 167
3 280 281 223
3 223 281 224
3 164 167 174
3 174 167 225
3 263 262 137
3 137 262 228
3 13 15 127
3 127 15 259
3 219 227 217
3 217 227 229
3 86 226 283
3 283 226 282
3 259 15 144
3 144 15 145
3 243 97 257
3 257 97 154
3 57 273 155
3 155 273 245
3 106 284 50
3 50 284 54
3 242 285 159
3 159 285 95
3 233 236 88
3 88 236 89
3 45 131 106
3 106 131 284
3 252 251 248
3 248 251 249
3 285 25 95
3 95 25 24
3 105 104 286
3 286 104 287
3 271 151 288
3 288 151 228
3 137 150 138
3 138 150 132
3 182 289 160
3 160 289 161
3 290 291 276
3 276 291 292
3 150 149 132
3 132 149 93
3 261 274 176
3 176 274 186
3 143 186 144
3 144 186 274
3 272 56 283
3 283 56 86
3 173 135 189
3 189 135 134
3 110 116 111
3 111 116 37
3 116 118 37
3 37 118 122
3 111 37 264
3 264 37 36
3 286 287 253
3 253 287 250
3 227 158 230
3 230 158 14
3 222 226 225
3 225 226 213
3 146 66 147
3 147 66 268
3 223 167 280
3 280 167 166
3 198 162 199
3 199 162 161
3 44 45 107
3 107 45 106
3 280 166 47
3 47 166 48
3 160 163 290
3 290 163 291
3 37 122 38
3 292 293 276
3 276 293 247
3 283 282 295
3 295 282 294
3 283 295 272
3 272 295 296
3 273 272 297
3 297 272 296
3 245 273 298
3 298 273 297
3 282 221 294
3 294 221 299
3 221 224 299
3 299 224 300
3 300 224 301
3 301 224 281
3 302 303 299
3 299 303 294
3 305 306 304
3 304 306 307
3 308 309 307
3 307 309 304
3 307 306 311
3 311 306 310
3 312 313 311
3 311 313 314
3 310 315 311
3 311 315 312
3 316 303 310
3 310 303 315
3 314 308 311
3 311 308 307
3 317 318 320
3 320 318 319
3 318 317 308
3 308 317 309
3 310 306 316
3 316 306 305
3 305 296 316
3 316 296 295
3 305 321 296
3 296 321 297
3 304 322 305
3 305 322 321
3 322 304 323
3 323 304 309
3 303 316 294
3 294 316 295
3 317 324 309
3 309 324 323
3 322 323 325
3 325 323 326
3 323 324 326
3 326 324 327
3 325 326 328
3 328 326 329
3 328 330 325
3 325 330 331
3 332 329 327
3 327 329 326
3 322 325 321
3 321 325 331
3 321 331 297
3 297 331 298
3 324 317 333
3 333 317 320
3 312 315 334
3 334 315 303
3 334 335 312
3 312 335 313
3 303 302 334
3 334 302 336
3 335 334 337
3 337 334 336
3 335 338 313
3 313 338 339
3 245 298 237
3 237 298 340
3 238 341 281
3 281 341 301
3 341 238 340
3 340 238 237
3 340 330 341
3 341 330 342
3 330 328 342
3 342 328 343
3 341 342 301
3 301 342 344
3 340 298 330
3 330 298 331
3 345 300 344
3 344 300 301
3 345 302 300
3 300 302 299
3 346 336 345
3 345 336 302
3 346 345 347
3 347 345 344
3 348 346 349
3 349 346 347
3 342 343 344
3 344 343 347
3 343 350 347
3 347 350 349
3 336 346 337
3 337 346 348
3 352 337 351
3 351 337 348
3 351 354 353
3 353 354 355
3 351 348 354
3 354 348 349
3 351 353 352
3 352 353 333
3 352 333 338
3 338 333 320
3 338 335 352
3 352 335 337
3 328 329 343
3 343 329 350
3 355 350 332
3 332 350 329
3 355 354 350
3 350 354 349
3 353 355 327
3 327 355 332
3 327 324 353
3 353 324 333
3 308 314 318
3 318 314 319
3 319 339 320
3 320 339 338
3 319 314 339
3 339 314 313
3 136 135 260
3 260 135 258
3 139 165 140
3 140 165 164
3 171 170 194
3 194 170 195
3 170 173 195
3 195 173 189
3 177 176 263
3 263 176 186
3 171 194 139
3 139 194 165
3 136 260 261
3 261 260 274
3 177 263 140
3 140 263 137
3 261 176 212
3 212 176 175
3 135 173 258
3 258 173 172
3 357 358 356
3 356 358 359
3 361 362 360
3 360 362 363
3 360 363 364
3 364 363 365
3 366 367 369
3 369 367 368
3 75 370 246
3 246 370 371
3 372 373 361
3 361 373 362
3 375 376 374
3 374 376 377
3 288 228 379
3 379 228 378
3 380 378 262
3 262 378 228
3 382 383 381
3 381 383 384
3 385 367 373
3 373 367 362
3 75 288 370
3 370 288 379
3 376 375 358
3 358 375 386
3 387 385 359
3 359 385 373
3 388 382 365
3 365 382 389
3 391 392 390
3 390 392 393
3 382 381 389
3 389 381 394
3 395 364 389
3 389 364 365
3 388 365 366
3 366 365 363
3 356 396 357
3 357 396 397
3 372 398 356
3 356 398 396
3 388 366 399
3 399 366 369
3 381 384 374
3 374 384 371
3 356 359 372
3 372 359 373
3 360 400 361
3 361 400 401
3 386 387 358
3 358 387 359
3 362 367 363
3 363 367 366
3 357 397 402
3 402 397 403
3 395 391 404
3 404 391 390
3 391 394 392
3 392 394 377
3 392 402 393
3 393 402 403
3 374 377 381
3 381 377 394
3 364 395 405
3 405 395 404
3 361 401 372
3 372 401 398
3 270 269 399
3 399 269 383
3 400 360 405
3 405 360 364
3 380 368 385
3 385 368 367
3 391 395 394
3 394 395 389
3 392 377 402
3 402 377 376
3 402 376 357
3 357 376 358
3 405 404 407
3 407 404 406
3 405 407 400
3 400 407 408
3 400 408 401
3 401 408 409
3 401 409 398
3 398 409 410
3 404 390 406
3 406 390 411
3 390 393 411
3 411 393 412
3 393 403 412
3 412 403 413
3 414 415 411
3 411 415 406
3 417 418 416
3 416 418 419
3 420 421 417
3 417 421 418
3 418 421 423
3 423 421 422
3 424 425 423
3 423 425 426
3 422 427 423
3 423 427 424
3 426 419 423
3 423 419 418
3 419 428 416
3 416 428 429
3 422 421 430
3 430 421 420
3 420 408 430
3 430 408 407
3 420 431 408
3 408 431 409
3 417 432 420
3 420 432 431
3 433 432 416
3 416 432 417
3 430 415 422
3 422 415 427
3 415 430 406
3 406 430 407
3 434 433 429
3 429 433 416
3 432 433 435
3 435 433 436
3 433 434 436
3 436 434 437
3 435 436 438
3 438 436 439
3 438 440 435
3 435 440 441
3 437 442 436
3 436 442 439
3 435 441 432
3 432 441 431
3 431 441 409
3 409 441 410
3 434 429 444
3 444 429 443
3 429 428 443
3 443 428 445
3 424 427 446
3 446 427 415
3 425 424 447
3 447 424 446
3 415 414 446
3 446 414 448
3 446 448 447
3 447 448 449
3 450 451 447
3 447 451 425
3 445 451 443
3 443 451 450
3 398 410 396
3 396 410 452
3 397 453 403
3 403 453 413
3 453 397 452
3 452 397 396
3 452 440 453
3 453 440 454
3 440 438 454
3 454 438 455
3 453 454 413
3 413 454 456
3 440 452 441
3 441 452 410
3 457 412 456
3 456 412 413
3 457 414 412
3 412 414 411
3 457 458 414
3 414 458 448
3 458 457 459
3 459 457 456
3 460 458 461
3 461 458 459
3 454 455 456
3 456 455 459
3 455 462 459
3 459 462 461
3 458 460 448
3 448 460 449
3 464 449 463
3 463 449 460
3 463 466 465
3 465 466 467
3 463 460 466
3 466 460 461
3 463 465 464
3 464 465 444
3 464 444 450
3 450 444 443
3 450 447 464
3 464 447 449
3 438 439 455
3 455 439 462
3 467 462 442
3 442 462 439
3 467 466 462
3 462 466 461
3 465 467 437
3 437 467 442
3 437 434 465
3 465 434 444
3 419 426 428
3 428 426 445
3 445 426 451
3 451 426 425
3 369 368 187
3 187 368 185
3 370 375 371
3 371 375 374
3 379 378 386
3 386 378 387
3 378 380 387
3 387 380 385
3 384 383 277
3 277 383 269
3 379 386 370
3 370 386 375
3 399 369 270
3 270 369 187
3 384 277 371
3 371 277 246
3 399 383 388
3 388 383 382
3 368 380 185
3 185 380 262
3 220 270 143
3 143 270 187
3 220 18 206
3 206 18 21
3 18 17 21
3 21 17 22
3 17 218 22
3 22 218 207
3 468 469 471
3 471 469 470
3 473 474 472
3 472 474 475
3 472 475 476
3 476 475 477
3 479 480 478
3 478 480 481
3 482 483 473
3 473 483 474
3 485 486 484
3 484 486 487
3 488 489 76
3 76 489 141
3 490 488 247
3 247 488 76
3 492 493 491
3 491 493 494
3 495 479 483
3 483 479 474
3 485 496 486
3 486 496 470
3 497 495 471
3 471 495 483
3 498 492 477
3 477 492 499
3 500 501 503
3 503 501 502
3 492 491 499
3 499 491 504
3 505 476 499
3 499 476 477
3 498 477 478
3 478 477 475
3 468 506 469
3 469 506 507
3 482 508 468
3 468 508 506
3 478 481 498
3 498 481 509
3 491 494 484
3 484 494 510
3 482 468 483
3 483 468 471
3 472 511 473
3 473 511 512
3 496 497 470
3 470 497 471
3 474 479 475
3 475 479 478
3 469 507 513
3 513 507 514
3 505 501 515
3 515 501 500
3 502 501 487
3 487 501 504
3 513 514 502
3 502 514 503
3 484 487 491
3 491 487 504
3 476 505 516
3 516 505 515
3 473 512 482
3 482 512 508
3 509 291 493
3 493 291 163
3 511 472 516
3 516 472 476
3 490 480 495
3 495 480 479
3 501 505 504
3 504 505 499
3 502 487 513
3 513 487 486
3 513 486 469
3 469 486 470
3 516 515 518
3 518 515 517
3 516 518 511
3 511 518 519
3 511 519 512
3 512 519 520
3 512 520 508
3 508 520 521
3 515 500 517
3 517 500 522
3 500 503 522
3 522 503 523
3 523 503 524
3 524 503 514
3 525 526 522
3 522 526 517
3 528 529 527
3 527 529 530
3 531 532 528
3 528 532 529
3 529 532 534
3 534 532 533
3 535 536 534
3 534 536 537
3 533 538 534
3 534 538 535
3 537 530 534
3 534 530 529
3 539 540 530
3 530 540 527
3 532 531 533
3 533 531 541
3 531 519 541
3 541 519 518
3 531 542 519
3 519 542 520
3 528 543 531
3 531 543 542
3 543 528 544
3 544 528 527
3 533 541 538
3 538 541 526
3 526 541 517
3 517 541 518
3 540 545 527
3 527 545 544
3 546 543 547
3 547 543 544
3 545 548 544
3 544 548 547
3 549 546 550
3 550 546 547
3 546 549 552
3 552 549 551
3 548 553 547
3 547 553 550
3 543 546 542
3 542 546 552
3 542 552 520
3 520 552 521
3 545 540 555
3 555 540 554
3 540 539 554
3 554 539 556
3 535 538 557
3 557 538 526
3 536 535 558
3 558 535 557
3 526 525 557
3 557 525 559
3 558 557 560
3 560 557 559
3 558 561 536
3 536 561 562
3 556 562 554
3 554 562 561
3 508 521 506
3 506 521 563
3 507 564 514
3 514 564 524
3 564 507 563
3 563 507 506
3 563 551 564
3 564 551 565
3 551 549 565
3 565 549 566
3 564 565 524
3 524 565 567
3 563 521 551
3 551 521 552
3 568 523 567
3 567 523 524
3 568 525 523
3 523 525 522
3 569 559 568
3 568 559 525
3 569 568 570
3 570 568 567
3 571 569 572
3 572 569 570
3 565 566 567
3 567 566 570
3 566 573 570
3 570 573 572
3 569 571 559
3 559 571 560
3 575 560 574
3 574 560 571
3 574 577 576
3 576 577 578
3 574 571 577
3 577 571 572
3 574 576 575
3 575 576 555
3 575 555 561
3 561 555 554
3 561 558 575
3 575 558 560
3 549 550 566
3 566 550 573
3 578 573 553
3 553 573 550
3 578 577 573
3 573 577 572
3 578 553 576
3 576 553 548
3 548 545 576
3 576 545 555
3 530 537 539
3 539 537 556
3 556 537 562
3 562 537 536
3 480 293 481
3 481 293 292
3 579 485 510
3 510 485 484
3 489 488 496
3 496 488 497
3 488 490 497
3 497 490 495
3 162 494 163
3 163 494 493
3 579 489 485
3 485 489 496
3 481 292 509
3 509 292 291
3 494 162 510
3 510 162 198
3 493 492 509
3 509 492 498
3 480 490 293
3 293 490 247
3 581 582 580
3 580 582 583
3 585 586 584
3 584 586 587
3 584 587 588
3 588 587 589
3 591 592 590
3 590 592 593
3 594 595 597
3 597 595 596
3 598 599 585
3 585 599 586
3 600 601 603
3 603 601 602
3 604 605 607
3 607 605 606
3 608 606 199
3 199 606 605
3 609 610 612
3 612 610 611
3 599 613 586
3 586 613 591
3 595 604 596
3 596 604 607
3 601 614 602
3 602 614 582
3 615 613 583
3 583 613 599
3 610 617 616
3 616 617 589
3 619 620 618
3 618 620 621
3 609 622 610
3 610 622 617
3 623 588 617
3 617 588 589
3 616 589 590
3 590 589 587
3 580 624 581
3 581 624 625
3 598 626 580
3 580 626 624
3 590 593 616
3 616 593 627
3 600 609 597
3 597 609 612
3 580 583 598
3 598 583 599
3 584 628 585
3 585 628 629
3 614 615 582
3 582 615 583
3 586 591 587
3 587 591 590
3 581 625 630
3 630 625 631
3 623 619 632
3 632 619 618
3 620 619 603
3 603 619 622
3 630 631 620
3 620 631 621
3 609 600 622
3 622 600 603
3 588 623 633
3 633 623 632
3 585 629 598
3 598 629 626
3 202 201 627
3 627 201 611
3 628 584 633
3 633 584 588
3 608 592 613
3 613 592 591
3 619 623 622
3 622 623 617
3 630 620 602
3 602 620 603
3 581 630 582
3 582 630 602
3 633 632 635
3 635 632 634
3 633 635 628
3 628 635 636
3 628 636 629
3 629 636 637
3 629 637 626
3 626 637 638
3 632 618 634
3 634 618 639
3 618 621 639
3 639 621 640
3 640 621 641
3 641 621 631
3 643 634 642
3 642 634 639
3 644 645 647
3 647 645 646
3 648 649 645
3 645 649 646
3 646 649 651
3 651 649 650
3 651 652 654
3 654 652 653
3 650 655 651
3 651 655 652
3 654 647 651
3 651 647 646
3 647 656 644
3 644 656 657
3 649 648 650
3 650 648 658
3 648 636 658
3 658 636 635
3 648 659 636
3 636 659 637
3 660 659 645
3 645 659 648
3 661 660 644
3 644 660 645
3 650 658 655
3 655 658 643
3 643 658 634
3 634 658 635
3 662 661 657
3 657 661 644
3 663 660 664
3 664 660 661
3 662 665 661
3 661 665 664
3 666 663 667
3 667 663 664
3 663 666 669
3 669 666 668
3 665 670 664
3 664 670 667
3 660 663 659
3 659 663 669
3 659 669 637
3 637 669 638
3 657 671 662
3 662 671 672
3 657 656 671
3 671 656 673
3 652 655 674
3 674 655 643
3 652 674 653
3 653 674 675
3 674 643 676
3 676 643 642
3 675 674 677
3 677 674 676
3 678 679 675
3 675 679 653
3 673 679 671
3 671 679 678
3 626 638 624
3 624 638 680
3 625 681 631
3 631 681 641
3 680 681 624
3 624 681 625
3 668 682 680
3 680 682 681
3 666 683 668
3 668 683 682
3 681 682 641
3 641 682 684
3 680 638 668
3 668 638 669
3 685 640 684
3 684 640 641
3 640 685 639
3 639 685 642
3 685 686 642
3 642 686 676
3 686 685 687
3 687 685 684
3 688 686 689
3 689 686 687
3 682 683 684
3 684 683 687
3 683 690 687
3 687 690 689
3 686 688 676
3 676 688 677
3 692 677 691
3 691 677 688
3 691 694 693
3 693 694 695
3 691 688 694
3 694 688 689
3 691 693 692
3 692 693 672
3 692 672 678
3 678 672 671
3 678 675 692
3 692 675 677
3 683 666 690
3 690 666 667
3 695 690 670
3 670 690 667
3 695 694 690
3 690 694 689
3 693 695 665
3 665 695 670
3 665 662 693
3 693 662 672
3 647 654 656
3 656 654 673
3 673 654 679
3 679 654 653
3 592 161 593
3 593 161 289
3 597 596 600
3 600 596 601
3 614 607 615
3 615 607 606
3 606 608 615
3 615 608 613
3 696 594 612
3 612 594 597
3 596 607 601
3 601 607 614
3 593 289 627
3 627 289 202
3 627 611 616
3 616 611 610
3 592 608 161
3 161 608 199
3 104 28 697
3 697 28 698
3 267 125 700
3 700 125 699
3 125 124 699
3 699 124 701
3 251 702 249
3 249 702 703
3 31 267 704
3 704 267 700
3 287 104 705
3 705 104 697
3 28 31 698
3 698 31 704
3 706 250 705
3 705 250 287
3 249 703 124
3 124 703 701
3 702 251 706
3 706 251 250
3 705 707 706
3 706 707 708
3 706 708 702
3 702 708 709
3 702 709 703
3 703 709 710
3 703 710 701
3 701 710 711
3 705 697 707
3 707 697 712
3 697 698 712
3 712 698 713
3 698 704 713
3 713 704 714
3 716 707 715
3 715 707 712
3 718 719 717
3 717 719 720
3 721 722 718
3 718 722 719
3 723 724 722
3 722 724 719
3 723 725 724
3 724 725 726
3 727 720 724
3 724 720 719
3 720 727 728
3 728 727 729
3 728 730 720
3 720 730 717
3 723 722 731
3 731 722 721
3 721 709 731
3 731 709 708
3 721 732 709
3 709 732 710
3 718 733 721
3 721 733 732
3 733 718 734
3 734 718 717
3 723 731 725
3 725 731 716
3 716 731 707
3 707 731 708
3 730 735 717
3 717 735 734
3 736 733 737
3 737 733 734
3 735 738 734
3 734 738 737
3 739 736 740
3 740 736 737
3 736 739 742
3 742 739 741
3 738 743 737
3 737 743 740
3 733 736 732
3 732 736 742
3 732 742 710
3 710 742 711
3 735 730 745
3 745 730 744
3 730 728 744
3 744 728 729
3 726 725 746
3 746 725 716
3 747 726 748
3 748 726 746
3 746 716 749
3 749 716 715
3 748 746 750
3 750 746 749
3 748 751 747
3 747 751 752
3 729 752 744
3 744 752 751
3 727 724 747
3 747 724 726
3 729 727 752
3 752 727 747
3 699 701 753
3 753 701 711
3 704 700 714
3 714 700 754
3 753 754 699
3 699 754 700
3 741 755 753
3 753 755 754
3 739 756 741
3 741 756 755
3 754 755 714
3 714 755 757
3 753 711 741
3 741 711 742
3 758 713 757
3 757 713 714
3 713 758 712
3 712 758 715
3 758 759 715
3 715 759 749
3 759 758 760
3 760 758 757
3 761 759 762
3 762 759 760
3 755 756 757
3 757 756 760
3 756 763 760
3 760 763 762
3 759 761 749
3 749 761 750
3 765 750 764
3 764 750 761
3 766 764 768
3 768 764 767
3 764 761 767
3 767 761 762
3 764 766 765
3 765 766 745
3 765 745 751
3 751 745 744
3 751 748 765
3 765 748 750
3 756 739 763
3 763 739 740
3 768 763 743
3 743 763 740
3 768 767 763
3 763 767 762
3 766 768 738
3 738 768 743
3 738 735 766
3 766 735 745
3 218 216 207
3 207 216 208
3 208 216 209
3 209 216 192
3 197 579 198
3 198 579 510
3 75 74 288
3 288 74 271
3 276 206 290
3 290 206 183
3 289 182 202
3 202 182 83
3 489 579 141
3 141 579 197
3 141 197 142
3 142 197 196
3 148 275 71
3 71 275 72
3 103 102 278
3 278 102 769
3 769 595 278
3 278 595 594
3 604 595 770
3 770 595 769
3 770 769 771
3 771 769 102
3 771 102 772
3 772 102 101
3 154 773 100
3 100 773 101
3 772 101 96
3 96 101 773
3 774 772 99
3 99 772 96
3 772 774 771
3 771 774 775
3 771 775 770
3 770 775 776
3 199 605 196
3 196 605 776
3 188 70 777
3 777 70 73
3 96 773 97
3 97 773 154
3 182 160 183
3 183 160 290
3 776 275 196
3 196 275 142
3 776 605 770
3 770 605 604
3 612 611 696
3 696 611 201
3 594 696 278
3 278 696 201
3 72 275 775
3 775 275 776
3 775 774 72
3 72 774 73
3 99 777 774
3 774 777 73
3 777 99 188
3 188 99 98
3 244 241 98
3 98 241 188
3 130 32 255
3 27 0 94
3 94 0 61
3 26 1 27
3 27 1 0
3 264 114 265
3 265 114 113
3 94 61 68
3 68 61 63
3 61 60 63
3 63 60 64
3 60 12 64
3 64 12 129
3 12 11 129
3 129 11 13
3 30 10 31
3 31 10 267
3 14 11 30
3 30 11 10
3 30 29 14
3 14 29 230
3 29 105 230
3 230 105 231
3 286 236 105
3 105 236 231
3 253 89 286
3 286 89 236
3 252 43 253
3 253 43 89
3 252 248 43
3 43 248 6
3 266 126 267
3 267 126 125
3 9 2 240
3 240 2 115
3 2 1 115
3 115 1 113
3 1 26 113
3 113 26 265
3 26 25 265
3 265 25 112
3 25 285 112
3 112 285 109
3 285 242 109
3 109 242 254
3 242 241 254
3 254 241 255
3 241 244 255
3 255 244 130
3 244 243 130
3 130 243 131
3 264 36 114
3 114 36 40
3 40 36 41
3 41 36 39
3 91 90 39
3 39 90 41
3 235 232 91
3 91 232 90
3 190 193 235
3 235 193 232
3 257 284 243
3 243 284 131
3 256 54 257
3 257 54 284
3 256 153 200
3 200 153 184
3 55 200 203
3 203 200 179
3 54 256 55
3 55 256 200
3 203 84 55
3 55 84 51
3 85 121 52
3 52 121 78
3 211 214 85
3 85 214 121
3 210 215 211
3 211 215 214
3 191 279 210
3 210 279 215
3 190 239 191
3 191 239 279
3 248 123 6
3 6 123 7
3 123 126 7
3 7 126 240
3 126 266 240
3 240 266 9
3 9 266 8
3 8 266 10
