ply
format ascii 1.0
element vertex 778
property float x
property float y
property float z
element face 1538
property list uchar int vertex_indices
end_header
-0.0291635 0.000355143 0.696958
-0.0348522 0.00797265 0.692804
-0.0354535 -0.000399489 0.695005
-0.0295514 -0.00743831 0.696496
-0.0526043 0.00859294 0.688772
-0.057044 0.00669153 0.679186
-0.0527422 -0.00752823 0.686685
-0.0509137 -0.00460401 0.694931
-0.0284704 -0.012766 0.696076
-0.0356046 -0.00742086 0.697325
-0.0250627 -0.0129919 0.693668
-0.0153319 -0.0192514 0.692008
-0.0203142 -0.0182891 0.695285
-0.0092862 -0.0228192 0.694107
-0.0116629 -0.0123826 0.684841
-0.00312351 -0.0179235 0.693686
-0.00173835 0.0093566 0.693187
-0.00178971 0.0193843 0.700883
0.00298981 0.0081584 0.709866
0.00202199 -0.000825107 0.701827
-0.00377213 0.0233497 0.71908
0.000278937 0.014647 0.714529
-0.00348159 0.0260595 0.704979
-0.00695512 0.0329838 0.710124
-0.0305897 0.0135295 0.702487
-0.0356165 0.0209088 0.698028
-0.0343671 0.0166542 0.695333
-0.0299629 0.00954564 0.699567
-0.025786 -0.0142028 0.688756
-0.024339 -0.0108324 0.679534
-0.0223833 -0.0118273 0.686673
-0.0272478 -0.0137996 0.693903
-0.052694 0.0424431 0.693787
-0.0526003 0.0518888 0.683977
-0.0520739 0.0477056 0.680494
-0.0518122 0.0403548 0.689387
-0.0548176 0.0282831 0.669986
-0.0519295 0.0376667 0.666308
-0.0468322 0.0383484 0.654199
-0.0473616 0.0281876 0.657179
-0.0570358 0.017278 0.674126
-0.052246 0.016047 0.66216
-0.0529424 0.00450557 0.669032
-0.0488633 -0.0089104 0.678532
-0.0513884 0.0605019 0.693004
-0.0515115 0.0551097 0.700821
0.0147989 -0.0501879 0.725347
0.0149862 -0.0478603 0.729991
0.0115524 -0.045351 0.727521
0.0120516 -0.0478311 0.723279
-0.0357056 0.0666065 0.702261
-0.0266784 0.0683593 0.699653
-0.0306235 0.0741402 0.696747
-0.0388862 0.0709105 0.697526
-0.0312002 0.0604687 0.708579
-0.022019 0.0606933 0.703538
0.024216 -0.048029 0.719277
0.0208846 -0.0508465 0.720038
0.0188487 -0.0483796 0.717184
0.0219013 -0.045307 0.716704
-0.0241563 -0.0143213 0.698885
-0.0255926 -0.00725589 0.701438
-0.0141075 -0.0262691 0.709757
-0.0191135 -0.0179232 0.70758
-0.018778 -0.0207584 0.701357
-0.0134577 -0.027382 0.703593
-0.0209629 0.00103048 0.717814
-0.0255822 0.0086322 0.710871
-0.0244492 0.00346643 0.707712
-0.0202878 -0.00628206 0.714563
-0.0287334 0.0176179 0.719543
-0.0235067 0.00944424 0.725552
-0.0258813 0.0155972 0.730322
-0.0299475 0.0201832 0.725134
-0.0132718 -0.00618686 0.734157
-0.00691565 -0.0107047 0.736826
-0.00742661 -0.00820779 0.739056
-0.0134141 -0.00305291 0.73579
-0.0337077 0.0790306 0.692883
-0.0418481 0.0747691 0.69209
-0.011292 0.0373607 0.731572
-0.0202035 0.0417578 0.734256
-0.0155599 0.0352032 0.744231
-0.00776651 0.0325376 0.737755
-0.0194566 0.0653097 0.694238
-0.022113 0.0724492 0.692276
0.0269941 -0.0439227 0.721789
0.0245761 -0.0413132 0.719554
-0.0427483 0.00626037 0.661035
-0.0422093 -0.00941214 0.672897
-0.0400863 0.0206289 0.655312
-0.0373786 0.0317174 0.653102
-0.0364137 0.0396449 0.649794
-0.017517 -0.0174419 0.713658
-0.026552 0.00128667 0.702748
-0.0315593 0.0171392 0.705518
-0.0383188 0.0344031 0.727683
-0.0432697 0.0406903 0.721203
-0.0413958 0.0315586 0.716944
-0.036828 0.0281088 0.723819
-0.0280893 0.039601 0.737455
-0.0315514 0.0333894 0.737361
-0.0263357 0.0281266 0.743804
-0.0231007 0.0332565 0.745246
-0.0269058 -0.017805 0.683312
-0.0273885 -0.0107733 0.673837
-0.0447303 0.0626912 0.70252
-0.0471161 0.0658287 0.695767
-0.0482387 0.0710819 0.689849
-0.0447842 0.0307959 0.694794
-0.0514233 0.0389907 0.686261
-0.0516231 0.035534 0.683666
-0.0433945 0.0291097 0.692836
-0.0432905 0.0155044 0.690498
-0.0525307 0.0208075 0.684033
-0.0438487 0.00573814 0.69538
-0.0525265 0.0440486 0.673219
-0.0546256 0.0545776 0.673487
-0.0536808 0.0498218 0.666158
-0.0543556 0.0610012 0.680216
-0.0526427 0.0670917 0.686409
-0.0226999 0.0800839 0.689106
-0.0509255 0.0454249 0.660076
-0.0470217 -0.0123347 0.696687
-0.0428971 -0.0179113 0.698586
-0.0385956 -0.0141384 0.701305
-0.0414839 -0.0102311 0.700152
-0.00269841 -0.0278656 0.697848
-0.00888937 -0.0291426 0.700287
-0.0154851 -0.023021 0.69597
-0.0495632 0.0384972 0.703712
-0.0487718 0.0489481 0.709226
-0.0112033 -0.0255507 0.716021
0.0195348 -0.0422128 0.714691
0.0160999 -0.0455545 0.714747
0.00587475 -0.0360025 0.705951
0.0103338 -0.0330424 0.706192
-0.001133 -0.0269872 0.720633
-0.00607748 -0.0281913 0.718393
-0.00228703 -0.0287865 0.719479
0.00232534 -0.0276172 0.72242
-0.0103781 -0.00125074 0.74244
-0.0151326 0.00326961 0.739801
0.00444195 -0.0107508 0.711338
0.0046405 -0.0164632 0.701143
0.00103913 -0.00894399 0.695788
-0.0226893 0.00645881 0.721588
-0.0185883 0.000100009 0.728706
-0.0188809 0.00293674 0.731235
-0.015017 -0.0175475 0.717531
-0.00942157 -0.0234063 0.720195
-0.0117232 -0.0189552 0.721882
-0.0161149 -0.0129445 0.719812
-0.0232725 0.0491192 0.724799
-0.0333084 0.0472216 0.728687
0.0172505 -0.0516663 0.721967
0.0150046 -0.049107 0.719589
-0.0270928 0.0139212 0.714685
-0.003787 0.000959788 0.688059
-0.0324879 0.0209059 0.708798
-0.00300052 0.0156533 0.738712
-0.00598202 0.0143065 0.743793
-0.00337894 0.00881562 0.745441
0.000964662 0.00982007 0.742731
0.0130596 -0.0347838 0.728794
0.00988145 -0.0383286 0.728565
0.0131034 -0.0410773 0.730648
0.0168098 -0.0374233 0.730968
-0.00745808 -0.0300732 0.713899
-0.00750818 -0.0320949 0.708095
-0.00227295 -0.0353869 0.71241
-0.00234777 -0.031937 0.716717
-0.00315817 -0.0335467 0.704577
0.000956407 -0.0365809 0.707976
0.0176933 -0.0327388 0.725657
0.0219441 -0.0339081 0.720925
0.0124985 -0.025511 0.715094
0.00837494 -0.0264385 0.720651
-0.00981825 0.0427577 0.700855
-0.0139078 0.0494762 0.707593
-0.0110102 0.0398617 0.717409
-0.0075992 0.0314894 0.726944
-0.00506403 0.0223981 0.735171
-0.000267526 0.0161101 0.727315
-0.0146699 0.0450156 0.721287
0.00153492 -0.0203654 0.719693
0.00575644 -0.0192557 0.711581
0.00398346 -0.015799 0.715844
-0.0352269 0.0250502 0.713808
0.0123613 -0.0466554 0.716917
-0.0189832 0.0433152 0.660207
-0.0151075 0.0522215 0.668755
-0.0130698 0.0442469 0.671525
-0.0182854 0.0341941 0.662332
0.00798451 -0.0427102 0.725661
0.00877999 -0.0460225 0.721061
-0.0142533 0.00674083 0.744728
-0.00969918 0.00247059 0.745894
-0.00766144 0.00421926 0.747842
-0.0119973 0.00869599 0.749476
-0.0171755 0.0529345 0.709819
-0.0120155 0.0307399 0.749297
-0.00627267 0.0288395 0.743397
-0.0164052 0.057654 0.698705
-0.012542 0.0522133 0.692704
-0.0145396 0.0596493 0.687106
0.00433568 0.00321767 0.724267
-0.00693918 0.036523 0.696618
-0.0105713 0.0463991 0.688506
-0.0131823 0.0547767 0.682092
-0.0144348 0.0616366 0.677708
-0.0163049 0.0662074 0.683597
0.0220287 -0.0377172 0.717604
0.0253644 -0.0370929 0.724348
-0.0167113 0.0744989 0.679875
-0.0158333 0.0687412 0.673196
-0.00959916 0.0397611 0.683122
-0.00913709 0.0308576 0.676629
-0.00604547 0.0302459 0.691265
-0.00574159 0.0208964 0.685461
0.00663205 4.80825e-05 0.715621
0.0313325 -0.0442415 0.73452
0.0249729 -0.0385093 0.730518
0.0204653 -0.0400822 0.733283
0.0289008 -0.0448532 0.736694
0.0213278 -0.0356386 0.72815
0.0273768 -0.0398652 0.726392
-0.00971167 0.0104373 0.67893
-0.00589165 -0.0232824 0.724305
-0.0167765 0.0187697 0.66748
-0.0145747 -0.00407687 0.676047
-0.0219892 0.00121917 0.668354
-0.0261779 0.0262285 0.655899
-0.0299824 0.00992989 0.658834
-0.0272637 0.0436294 0.651407
-0.0252673 0.0357423 0.654574
-0.0335315 -0.00428347 0.666084
0.0223873 -0.0550206 0.732492
0.0224717 -0.0517724 0.736159
-0.0200595 0.0508084 0.656265
-0.0430709 -0.00401685 0.698369
-0.0410875 0.0296927 0.706443
-0.0385117 0.0264799 0.702824
-0.0457011 0.0439395 0.71692
-0.0449008 0.0343683 0.711186
0.0242952 -0.056422 0.728469
-0.000594793 -0.0112107 0.737622
-0.00315653 -0.00880795 0.736892
-0.0479474 -0.0148227 0.690196
-0.0445949 -0.020435 0.692213
-0.0361198 -0.0232929 0.684068
-0.0419355 -0.0230872 0.687815
-0.0450771 -0.0165018 0.68286
-0.0395612 -0.0174613 0.67854
-0.0456544 0.0319403 0.696894
-0.0468749 0.0340554 0.700153
-0.0278066 0.055357 0.716463
-0.0381414 0.0526172 0.720518
0.00199963 -0.0317732 0.702452
0.002136 -0.0235866 0.698236
0.00615217 -0.0281342 0.702717
0.0125151 -0.0280906 0.709325
-0.000360837 -0.0236636 0.722865
0.0023661 -0.0236701 0.718151
-0.0520653 0.02805 0.683674
-0.0426782 0.0235697 0.690381
-0.0349361 -0.0107191 0.698316
-0.0324443 -0.012826 0.699544
-0.0177438 -0.00611681 0.722746
0.00838505 -0.00559461 0.72799
0.0100659 -0.00779049 0.720544
-0.0126243 -0.0127928 0.727128
0.0303594 -0.0531911 0.725391
0.0268617 -0.0558453 0.726227
0.00838786 -0.0230058 0.705403
-0.0208531 0.00839683 0.736368
0.00304573 0.000759121 0.730168
0.0050833 -0.00743389 0.733905
-0.0196243 0.0292868 0.749582
-0.0166846 0.0593737 0.664642
0.0168387 -0.0439597 0.733522
0.0242623 -0.0483358 0.737957
0.0328395 -0.0450953 0.731119
0.0326663 -0.048434 0.72686
-0.0417292 0.0563249 0.711878
-0.0367407 0.0240595 0.700933
-0.0336045 -0.0132875 0.67437
-0.030888 -0.0209117 0.682761
-0.00822589 -0.0163992 0.730016
-0.00517297 0.0208294 0.74131
0.00255097 0.0106333 0.733142
0.00612321 0.00604606 0.73761
0.00594447 -0.000588827 0.73552
0.00225387 -0.00716316 0.736497
0.035199 -0.0469825 0.73366
0.0351892 -0.050254 0.729315
0.0337257 -0.0554026 0.728102
0.030755 -0.0580213 0.728799
0.0271057 -0.0582492 0.730875
0.0342916 -0.0464694 0.737293
0.0324598 -0.0475067 0.739409
0.0276827 -0.0498555 0.740054
0.0371864 -0.048518 0.739907
0.0406214 -0.0509195 0.73749
0.0428142 -0.0630974 0.735389
0.0403349 -0.0594218 0.732425
0.0424761 -0.0590385 0.733768
0.0454641 -0.0613805 0.736355
0.0487262 -0.0631482 0.7395
0.0463857 -0.0655906 0.738542
0.0414882 -0.0549784 0.73434
0.0457991 -0.0576308 0.738092
0.0453668 -0.0546313 0.740907
0.0489887 -0.0573077 0.743288
0.0498181 -0.0599709 0.740986
0.0428229 -0.0528525 0.737875
0.0399711 -0.0542018 0.733266
0.0492565 -0.0651651 0.741991
0.050629 -0.0634879 0.741493
0.0511377 -0.0609563 0.742928
0.0514877 -0.0627732 0.745177
0.0345139 -0.0607374 0.731469
0.0400334 -0.0646031 0.736083
0.0437166 -0.0662345 0.740643
0.047233 -0.0657698 0.743419
0.038168 -0.0646986 0.739469
0.042241 -0.0654615 0.742484
0.0448105 -0.06473 0.745434
0.0371019 -0.0630352 0.742657
0.0410748 -0.0636538 0.744836
0.0281285 -0.0588161 0.735905
0.0296705 -0.0600178 0.732609
0.0432573 -0.0640186 0.74656
0.0500353 -0.0629024 0.746589
0.042636 -0.052151 0.742088
0.0468547 -0.0560345 0.745491
0.0410925 -0.0517904 0.74354
0.0452851 -0.0552864 0.74707
0.0504886 -0.0589649 0.746956
0.0505992 -0.0590757 0.74483
0.0248835 -0.0564901 0.734353
0.0253916 -0.0527632 0.738297
0.0280199 -0.054533 0.739861
0.0365936 -0.0595919 0.745419
0.0300507 -0.0516634 0.741738
0.035524 -0.0498073 0.742006
0.0402209 -0.0532708 0.745376
0.0382366 -0.0554509 0.74647
0.0434059 -0.0562574 0.747842
0.0415935 -0.0580274 0.747664
0.0408203 -0.0613304 0.747194
0.045993 -0.0592954 0.748728
0.0485635 -0.0588386 0.748143
0.0470359 -0.062699 0.74757
0.0440187 -0.0596889 0.748506
0.0441526 -0.0622791 0.74749
0.0177508 -0.0423142 0.745645
0.0171312 -0.0388622 0.750263
0.0136815 -0.0360248 0.747424
0.014092 -0.0394387 0.743711
0.0281179 -0.0385582 0.739104
0.0238711 -0.0423122 0.740081
0.0208829 -0.0400561 0.736908
0.0261838 -0.0353954 0.736249
0.0304799 -0.0333545 0.741555
0.0283129 -0.0302319 0.73873
0.0238244 -0.0323541 0.732918
0.0185824 -0.0365051 0.734096
0.00646502 -0.0239344 0.724093
0.0123317 -0.020367 0.722842
-0.000786359 -0.0167606 0.73758
0.00295821 -0.0151544 0.737895
0.0202546 -0.0428959 0.742699
0.0173499 -0.0403638 0.73982
0.0148202 -0.025349 0.748585
0.0117692 -0.0294321 0.747623
0.0144989 -0.0322439 0.750099
0.0174149 -0.0281911 0.750686
-0.000388732 -0.0233717 0.728502
-0.0016439 -0.0196761 0.733046
0.00243483 -0.0243502 0.726327
0.0195562 -0.0232162 0.746334
0.0250596 -0.0231372 0.74248
0.0148035 -0.0125484 0.732273
0.010371 -0.0125816 0.736562
0.0141176 -0.0375618 0.736974
0.0106684 -0.0334073 0.744762
0.0110058 -0.0367408 0.74125
0.0251951 -0.0273403 0.736373
0.0275192 -0.0262514 0.745156
0.0316755 -0.03621 0.756946
0.0250909 -0.0295688 0.751612
0.0208927 -0.0312629 0.75326
0.0290122 -0.0375788 0.759211
0.0217892 -0.0264415 0.74919
0.0294292 -0.0298809 0.747798
0.0270752 -0.0487815 0.755608
0.0263833 -0.0450102 0.75971
0.0290401 -0.0497344 0.75218
0.0159889 -0.0153087 0.72616
0.0338561 -0.0450206 0.746872
0.0305878 -0.0487909 0.748785
0.0173877 -0.0345562 0.75273
0.0275033 -0.041117 0.761035
0.034451 -0.036481 0.753883
0.0356983 -0.0393642 0.74831
0.0367545 -0.0398939 0.756147
0.0382978 -0.0426866 0.751476
0.0365666 -0.0482534 0.749802
0.033268 -0.0515184 0.751393
0.0316319 -0.0517736 0.754734
0.0352254 -0.0390844 0.758938
0.0330681 -0.040043 0.762366
0.0301663 -0.0432939 0.762849
0.0395868 -0.0425493 0.762898
0.0421531 -0.0440039 0.759966
0.0499373 -0.0581372 0.759977
0.045976 -0.0557791 0.756822
0.0478855 -0.0537604 0.757211
0.05167 -0.056067 0.76009
0.0431235 -0.0521672 0.753494
0.0451919 -0.0513848 0.755306
0.0449598 -0.0477973 0.756946
0.0486956 -0.050551 0.759628
0.0474315 -0.0477609 0.762875
0.0520978 -0.0494371 0.764879
0.0532022 -0.0525721 0.76178
0.0451931 -0.046327 0.759957
0.0540037 -0.0566574 0.762062
0.053905 -0.0585083 0.763541
0.0431573 -0.0468516 0.75518
0.0372448 -0.0531782 0.752952
0.043765 -0.0570607 0.757685
0.048343 -0.059306 0.761966
0.0521616 -0.0585965 0.765772
0.0419288 -0.0575229 0.761083
0.0466991 -0.0589987 0.764549
0.0498195 -0.0579794 0.767722
0.0400136 -0.0563479 0.765047
0.0446113 -0.0574853 0.767997
0.0313495 -0.0519788 0.759453
0.0336799 -0.0533722 0.755874
0.0474002 -0.0572961 0.768789
0.0557573 -0.055383 0.765872
0.0538165 -0.0559644 0.767988
0.0556172 -0.0543459 0.764388
0.0461907 -0.0464368 0.764277
0.050866 -0.0491171 0.766879
0.0447109 -0.0458936 0.76651
0.049975 -0.0493114 0.769256
0.0544175 -0.05145 0.768131
0.0547254 -0.0517912 0.766497
0.0294036 -0.0500677 0.757513
0.0286628 -0.0466826 0.761344
0.0306168 -0.0483461 0.763339
0.0392455 -0.0526484 0.768436
0.0321012 -0.0445428 0.764708
0.0367981 -0.0426689 0.76485
0.0425385 -0.0459445 0.768267
0.0404731 -0.0486035 0.76943
0.048279 -0.0490858 0.770956
0.045311 -0.050341 0.771085
0.0442615 -0.0545201 0.770523
0.0518378 -0.0520425 0.771451
0.0536424 -0.0515214 0.769723
0.0515761 -0.0557211 0.769573
0.0488052 -0.0522356 0.771943
0.0484716 -0.0554416 0.770632
0.00886605 -0.0229095 0.758594
0.00617676 -0.0200256 0.761995
0.00364918 -0.0184299 0.75935
0.00589359 -0.0214365 0.755981
0.0188418 -0.0174277 0.755188
0.0168366 -0.0216038 0.755332
0.0148546 -0.019909 0.752108
0.0165051 -0.0155949 0.751043
0.019735 -0.0131907 0.75845
0.016864 -0.0100408 0.753648
0.014958 -0.0124741 0.747114
0.012189 -0.0178026 0.748619
0.00363797 -0.00972509 0.739369
0.00853969 -0.00500893 0.73852
0.0128051 -0.0231535 0.756704
0.0103792 -0.0220512 0.754017
0.00331711 -0.00911258 0.760541
0.00173758 -0.0123698 0.75972
0.00391971 -0.0146822 0.762353
0.00552491 -0.0113409 0.763092
-0.00538984 -0.00912841 0.742287
-0.00687393 -0.00411511 0.744762
-0.00124881 -0.0111931 0.740691
0.00824291 -0.00505463 0.759399
0.0134953 -0.00385758 0.755057
0.00670862 0.00439387 0.747166
0.0015062 0.00343138 0.749251
0.00797942 -0.0201853 0.750627
0.00125412 -0.0160028 0.756656
0.0035123 -0.0197427 0.753441
0.0153081 -0.00764267 0.749895
0.0146475 -0.00710881 0.759357
0.0216713 -0.0176067 0.774222
0.0123163 -0.00914809 0.7646
0.00814579 -0.0132017 0.765844
0.0185805 -0.019573 0.775806
0.0099145 -0.00772816 0.762689
0.0171711 -0.00917528 0.762208
0.017457 -0.0292245 0.769613
0.0154106 -0.026028 0.77265
0.0198811 -0.0281782 0.766356
0.0103361 0.00124495 0.741629
-0.00447733 0.000772286 0.748865
0.024887 -0.0248707 0.765317
0.0224536 -0.0271628 0.765046
0.00643825 -0.0165795 0.7649
0.016208 -0.0228324 0.77554
0.0241816 -0.0173893 0.771285
0.0256672 -0.0198808 0.76674
0.0262746 -0.0199797 0.774437
0.0274605 -0.0222603 0.769537
0.0270632 -0.0268579 0.76744
0.0248258 -0.0293823 0.7671
0.0221795 -0.0303645 0.76823
0.0242057 -0.0206155 0.777149
0.0217734 -0.0231002 0.778638
0.0182137 -0.0249973 0.776389
0.0270409 -0.0233239 0.780082
0.0311966 -0.0235953 0.777871
0.0386086 -0.037053 0.7764
0.0349505 -0.0338062 0.773644
0.0358667 -0.0327752 0.774424
0.0398005 -0.0359583 0.777156
0.0320783 -0.0294783 0.770785
0.0336213 -0.0292958 0.772548
0.0329381 -0.0266467 0.774646
0.0377592 -0.0302325 0.778152
0.0345315 -0.0273959 0.781606
0.0382976 -0.0305282 0.783826
0.0415087 -0.033083 0.780593
0.0323807 -0.0249267 0.777985
0.041774 -0.0369536 0.779494
0.0419568 -0.0386716 0.77861
0.0313766 -0.0255851 0.77335
0.0286424 -0.0316784 0.76935
0.0328446 -0.0356126 0.772834
0.0364066 -0.0392836 0.775622
0.0391606 -0.0401684 0.778879
0.0294399 -0.0367808 0.774351
0.0331213 -0.0396563 0.776961
0.0359479 -0.040712 0.779653
0.0270137 -0.037012 0.776288
0.0309057 -0.0391594 0.778682
0.0208798 -0.0317407 0.771448
0.0246449 -0.0321412 0.769544
0.0336414 -0.0400802 0.78055
0.0429751 -0.0368371 0.782468
0.0399313 -0.0383666 0.783656
0.04228 -0.0353665 0.782079
0.0329582 -0.0269585 0.782312
0.0373409 -0.03087 0.785612
0.0304338 -0.0278342 0.783311
0.0346261 -0.0317621 0.786309
0.040838 -0.033545 0.785559
0.040998 -0.0330928 0.784505
0.0189166 -0.0300716 0.770762
0.0174237 -0.0276548 0.773803
0.0191997 -0.0296652 0.774401
0.0256773 -0.0356423 0.779236
0.0197624 -0.0270232 0.777383
0.0245465 -0.0256362 0.780781
0.0283861 -0.02981 0.783352
0.0265866 -0.0327451 0.782351
0.0324594 -0.0332802 0.786003
0.0304214 -0.0347005 0.784095
0.0297008 -0.0381848 0.781569
0.0356584 -0.035907 0.785753
0.0385075 -0.0344815 0.786656
0.0363649 -0.0393882 0.78343
0.0332651 -0.0367581 0.784751
0.0335042 -0.0391375 0.782983
-0.00657138 -0.00135587 0.747314
-0.00244073 -0.00128767 0.768339
-0.00419822 0.00074786 0.770771
-0.00555665 0.0027962 0.76863
-0.00490276 0.00102426 0.76609
0.00528001 0.00401555 0.764064
0.00317751 0.00043042 0.764459
0.00113755 0.00214581 0.761197
0.00349775 0.00577729 0.760678
0.00597208 0.00782165 0.765864
0.00393132 0.00930957 0.762985
0.00248693 0.00756108 0.758379
-0.000582824 0.00459643 0.758326
-0.00564585 0.0129884 0.746749
-0.00312254 0.0170087 0.746007
-0.0163203 0.0248512 0.752322
-0.0192511 0.0211574 0.751113
-0.0143337 0.0171584 0.756431
-0.0128084 0.0207527 0.757278
0.000471381 -0.000909347 0.765728
-0.00202957 0.000542302 0.762884
-0.00615302 0.0129266 0.768218
-0.00768637 0.00907141 0.767929
-0.00620578 0.00615415 0.770393
-0.00484783 0.00973351 0.771329
-0.0182206 0.0160078 0.7499
-0.0161794 0.0129763 0.748736
-0.0136381 0.0109663 0.751486
-0.0141811 0.0129014 0.755306
-0.0104638 0.00865741 0.749758
-0.00314839 0.0148418 0.767473
0.00123324 0.014772 0.764798
-0.0066382 0.0260051 0.753348
-0.0100051 0.0245831 0.755033
-0.00359838 0.00211526 0.761006
-0.00764157 0.00516671 0.766513
-0.00639706 0.00240985 0.764579
0.0030107 0.0117174 0.760934
0.00206202 0.0124499 0.766869
0.00368225 0.00531225 0.779111
-0.00067324 0.0104189 0.772693
-0.00384708 0.00745711 0.773691
0.0019433 0.00336901 0.780115
-0.00178591 0.0121411 0.769983
0.00367966 0.0105585 0.769908
0.00255894 -0.00591074 0.774957
-6.16729e-06 -0.00268775 0.777384
0.00461056 -0.00557459 0.772637
-0.00292499 0.0225974 0.74936
0.00918236 -0.000366505 0.771022
0.00732328 -0.00404143 0.771313
-0.00481513 0.00363626 0.772543
0.000354657 0.000551704 0.779139
0.00673024 0.00596906 0.776541
0.00935445 0.00424545 0.772636
0.00924729 0.00382489 0.779512
0.0115649 0.00192609 0.774854
0.0113399 -0.00267138 0.772951
0.00900799 -0.00551546 0.772558
0.00656656 -0.00747492 0.774251
0.00620303 0.00297419 0.781878
0.00428517 0.00112753 0.782304
0.00189765 -0.00146301 0.781057
0.00903738 0.000745509 0.784188
0.0135217 0.000644613 0.782017
0.0189174 -0.010864 0.78012
0.0166953 -0.00849449 0.77799
0.0174888 -0.00732128 0.778373
0.0199942 -0.0100181 0.780067
0.0148569 -0.00438368 0.775702
0.015825 -0.00396502 0.776693
0.0150169 -0.00138926 0.778162
0.0186445 -0.00419608 0.780519
0.0169505 -0.00276196 0.784718
0.019679 -0.00567848 0.786594
0.0210966 -0.00674892 0.782143
0.0152434 -0.000457704 0.781721
0.0220501 -0.0106903 0.781695
0.022203 -0.0120147 0.781934
0.0141985 -0.000556089 0.777221
0.0118469 -0.0071068 0.774189
0.0156995 -0.0107402 0.778011
0.0187775 -0.0130942 0.781026
0.0210857 -0.0133045 0.783849
0.0130129 -0.0115133 0.77864
0.0167 -0.0142534 0.782093
0.0189843 -0.0140144 0.78486
0.0098931 -0.0120177 0.780629
0.0143886 -0.0137604 0.783343
0.0053482 -0.00845967 0.777261
0.0084136 -0.00852997 0.775329
0.0168577 -0.013729 0.785164
0.0232432 -0.0102406 0.784926
0.0209295 -0.0119359 0.786774
0.0229886 -0.00874828 0.784281
0.0155628 -0.00253933 0.785677
0.0187643 -0.00599512 0.787934
0.0129524 -0.00310287 0.787103
0.0172659 -0.00704733 0.788921
0.0213542 -0.00856856 0.787728
0.0216575 -0.0074291 0.786199
0.00374765 -0.00732542 0.7766
0.00169672 -0.00462744 0.77886
0.00328437 -0.00599867 0.779836
0.00781035 -0.0100729 0.783266
0.0037081 -0.00310547 0.782563
0.00634008 -0.000762369 0.784194
0.0108955 -0.00497792 0.787284
0.0086454 -0.0073474 0.786129
0.0154081 -0.00875378 0.789175
0.0130779 -0.0106658 0.787982
0.0128159 -0.0126766 0.785791
0.0185545 -0.0111139 0.788488
0.0201519 -0.0100257 0.78849
0.0191333 -0.0125942 0.787089
0.0167197 -0.0119876 0.788123
0.016693 -0.0130398 0.786822
-0.0130593 0.0265574 0.752837
-0.0247124 -0.0255103 0.694759
-0.0237532 -0.0216058 0.698188
-0.0371751 -0.0219116 0.707109
-0.0307158 -0.0195097 0.706817
-0.0407442 -0.0263147 0.704414
-0.0388657 -0.0323032 0.695417
-0.0414319 -0.0296512 0.699576
-0.0259204 -0.0198466 0.703232
-0.027407 -0.0288897 0.692476
-0.0332645 -0.0320955 0.6917
-0.0259346 -0.0353914 0.698399
-0.032542 -0.0381499 0.697757
-0.0392226 -0.0369444 0.701596
-0.0413766 -0.0324787 0.705045
-0.0410931 -0.0289719 0.708028
-0.0234916 -0.0296473 0.700307
-0.0229837 -0.025133 0.703818
-0.0263857 -0.0216064 0.707559
-0.0214243 -0.033579 0.707474
-0.0238104 -0.0399186 0.714361
-0.0367287 -0.0417425 0.728215
-0.0382304 -0.0392554 0.72217
-0.0358246 -0.0410678 0.721895
-0.0351541 -0.0436511 0.726924
-0.0378125 -0.0396459 0.716995
-0.0353881 -0.0405252 0.717852
-0.0304611 -0.0413664 0.715004
-0.0301174 -0.04345 0.720587
-0.0256156 -0.0404975 0.716279
-0.0244345 -0.0408306 0.720443
-0.0292488 -0.0452262 0.725752
-0.0332961 -0.0457769 0.72938
-0.0289505 -0.046266 0.729981
-0.0340216 -0.0441494 0.731258
-0.0306225 -0.0432572 0.714317
-0.0411394 -0.0350134 0.71405
-0.0397213 -0.0361397 0.722489
-0.0376016 -0.0385444 0.729112
-0.0340063 -0.0413564 0.73274
-0.0388304 -0.0321863 0.722958
-0.0360237 -0.0345587 0.729121
-0.0323361 -0.0371574 0.732197
-0.0352892 -0.0286746 0.723601
-0.0330146 -0.0322465 0.728417
-0.0368355 -0.024543 0.712372
-0.0412868 -0.029424 0.712706
-0.0310951 -0.0350281 0.730695
-0.0284826 -0.0456066 0.7328
-0.028343 -0.0422135 0.733989
-0.0216645 -0.0391151 0.719431
-0.0235661 -0.0431548 0.72492
-0.0215981 -0.0406263 0.725254
-0.0208138 -0.0358454 0.718426
-0.0211394 -0.0385296 0.725689
-0.0234406 -0.0435816 0.730051
-0.0250281 -0.0450701 0.728556
-0.0377285 -0.0240638 0.709483
-0.0320711 -0.0209789 0.709145
-0.0311877 -0.0223116 0.711583
-0.0295424 -0.0264833 0.721818
-0.025206 -0.0236292 0.711044
-0.0216817 -0.0284962 0.708847
-0.0213487 -0.032231 0.718935
-0.0244718 -0.0286763 0.720279
-0.0224641 -0.0351253 0.726721
-0.0246661 -0.033173 0.727022
-0.0289505 -0.0316351 0.72824
-0.0241976 -0.0378158 0.730761
-0.0231 -0.0407472 0.731019
-0.0279967 -0.0383701 0.733011
-0.0255071 -0.0352601 0.729713
-0.0283491 -0.0354007 0.731058
-0.0233634 0.0245354 0.747446
-0.0229163 0.0184759 0.745324
-0.0272016 0.0234124 0.741457
-0.0327778 0.0287148 0.734623
-0.036006 0.0380465 0.731167
-0.0317789 0.023948 0.730598
-0.0265998 0.0185731 0.737467
-0.0201766 0.0125463 0.742518
-0.0336321 0.0244703 0.720085
3 1 2 0
3 0 2 3
3 4 5 7
3 7 5 6
3 8 3 9
3 9 3 2
3 11 12 10
3 10 12 8
3 13 11 15
3 15 11 14
3 17 18 16
3 16 18 19
3 21 22 20
3 20 22 23
3 25 26 24
3 24 26 27
3 29 30 28
3 28 30 31
3 32 33 35
3 35 33 34
3 36 37 39
3 39 37 38
3 40 41 5
3 5 41 42
3 5 42 6
3 6 42 43
3 44 33 45
3 45 33 32
3 47 48 46
3 46 48 49
3 51 52 50
3 50 52 53
3 55 51 54
3 54 51 50
3 57 58 56
3 56 58 59
3 60 61 3
3 3 61 0
3 63 64 62
3 62 64 65
3 67 68 66
3 66 68 69
3 71 72 70
3 70 72 73
3 75 76 74
3 74 76 77
3 52 78 53
3 53 78 79
3 81 82 80
3 80 82 83
3 84 85 51
3 51 85 52
3 56 59 86
3 86 59 87
3 88 89 42
3 42 89 43
3 42 41 88
3 88 41 90
3 39 38 91
3 91 38 92
3 93 69 63
3 63 69 68
3 12 60 8
3 8 60 3
3 24 27 68
3 68 27 94
3 95 24 67
3 67 24 68
3 97 98 96
3 96 98 99
3 100 101 103
3 103 101 102
3 105 29 104
3 104 29 28
3 50 53 106
3 106 53 107
3 53 79 107
3 107 79 108
3 110 111 109
3 109 111 112
3 114 4 113
3 113 4 115
3 114 40 4
3 4 40 5
3 35 34 110
3 110 34 116
3 34 117 116
3 116 117 118
3 33 119 34
3 34 119 117
3 33 44 119
3 119 44 120
3 124 125 123
3 123 125 126
3 127 128 13
3 13 128 129
3 32 130 45
3 45 130 131
3 132 93 62
3 62 93 63
3 133 134 136
3 136 134 135
3 138 139 137
3 137 139 140
3 76 141 77
3 77 141 142
3 143 144 19
3 19 144 145
3 147 148 146
3 146 148 71
3 150 151 149
3 149 151 152
3 81 100 82
3 82 100 103
3 100 81 154
3 154 81 153
3 155 156 57
3 57 156 58
3 157 67 146
3 146 67 66
3 158 145 14
3 14 145 15
3 67 157 95
3 95 157 159
3 128 65 129
3 129 65 64
3 161 162 160
3 160 162 163
3 165 166 164
3 164 166 167
3 169 170 168
3 168 170 171
3 173 170 172
3 172 170 169
3 175 176 174
3 174 176 177
3 179 180 178
3 178 180 23
3 181 182 20
3 20 182 183
3 80 184 81
3 81 184 153
3 185 186 187
3 187 186 143
3 157 70 159
3 159 70 188
3 189 134 156
3 156 134 58
3 168 171 138
3 138 171 139
3 146 71 157
3 157 71 70
3 191 192 190
3 190 192 193
3 166 165 48
3 48 165 194
3 195 189 49
3 49 189 156
3 196 197 199
3 199 197 198
3 20 23 181
3 181 23 180
3 145 158 19
3 19 158 16
3 181 180 80
3 80 180 184
3 200 184 179
3 179 184 180
3 201 202 82
3 82 202 83
3 204 205 203
3 203 205 84
3 206 21 183
3 183 21 20
3 178 23 207
3 207 23 22
3 207 208 178
3 178 208 204
3 208 209 204
3 204 209 205
3 211 205 210
3 210 205 209
3 178 204 179
3 179 204 203
3 212 175 87
3 87 175 213
3 85 84 211
3 211 84 205
3 192 216 217
3 216 218 217
3 217 218 219
3 218 17 219
3 219 17 16
3 18 220 19
3 19 220 143
3 221 222 224
3 224 222 223
3 174 225 175
3 175 225 213
3 226 86 213
3 213 86 87
3 219 16 227
3 227 16 158
3 133 212 59
3 59 212 87
3 137 228 150
3 150 228 151
3 192 191 209
3 209 191 210
3 229 193 217
3 217 193 192
3 230 231 227
3 227 231 229
3 232 233 90
3 90 233 88
3 234 235 92
3 92 235 91
3 229 231 233
3 233 231 236
3 46 237 47
3 47 237 238
3 239 190 234
3 234 190 235
3 4 7 115
3 115 7 240
3 241 242 188
3 188 242 159
3 243 244 97
3 97 244 98
3 155 245 46
3 46 245 237
3 75 246 76
3 76 246 247
3 249 124 248
3 248 124 123
3 251 252 250
3 250 252 253
3 110 109 35
3 35 109 254
3 255 32 254
3 254 32 35
3 256 257 153
3 153 257 154
3 62 168 132
3 132 168 138
3 65 169 62
3 62 169 168
3 172 169 128
3 128 169 65
3 128 127 172
3 172 127 258
3 127 259 258
3 258 259 260
3 212 133 261
3 261 133 136
3 262 263 185
3 185 263 186
3 111 264 112
3 112 264 265
3 10 266 267
3 233 232 229
3 229 232 193
3 152 268 69
3 69 268 66
3 174 177 164
3 164 177 140
3 149 152 93
3 93 152 69
3 270 220 269
3 269 220 206
3 268 152 271
3 271 152 151
3 120 44 108
3 108 44 107
3 46 49 155
3 155 49 156
3 56 272 57
3 57 272 273
3 144 274 259
3 259 274 260
3 275 148 142
3 142 148 77
3 147 268 74
3 74 268 271
3 206 276 269
3 269 276 277
3 194 195 48
3 48 195 49
3 58 134 59
3 59 134 133
3 82 103 201
3 201 103 278
3 148 147 77
3 77 147 74
3 246 277 247
3 247 277 276
3 182 181 83
3 83 181 80
3 47 238 280
3 280 238 281
3 226 222 282
3 282 222 221
3 222 225 223
3 223 225 167
3 280 281 223
3 223 281 224
3 164 167 174
3 174 167 225
3 263 262 137
3 137 262 228
3 13 15 127
3 127 15 259
3 219 227 217
3 217 227 229
3 86 226 283
3 283 226 282
3 259 15 144
3 144 15 145
3 243 97 257
3 257 97 154
3 57 273 155
3 155 273 245
3 106 284 50
3 50 284 54
3 242 285 159
3 159 285 95
3 233 236 88
3 88 236 89
3 45 131 106
3 106 131 284
3 252 251 248
3 248 251 249
3 285 25 95
3 95 25 24
3 105 104 286
3 286 104 287
3 271 151 288
3 288 151 228
3 137 150 138
3 138 150 132
3 182 289 160
3 160 289 161
3 290 291 276
3 276 291 292
3 150 149 132
3 132 149 93
3 261 274 176
3 176 274 186
3 143 186 144
3 144 186 274
3 272 56 283
3 283 56 86
3 173 135 189
3 189 135 134
3 110 116 111
3 111 116 37
3 116 118 37
3 37 118 122
3 111 37 264
3 264 37 36
3 286 287 253
3 253 287 250
3 227 158 230
3 230 158 14
3 222 226 225
3 225 226 213
3 146 66 147
3 147 66 268
3 223 167 280
3 280 167 166
3 198 162 199
3 199 162 161
3 44 45 107
3 107 45 106
3 280 166 47
3 47 166 48
3 160 163 290
3 290 163 291
3 37 122 38
3 292 293 276
3 276 293 247
3 283 282 295
3 295 282 294
3 283 295 272
3 272 295 296
3 273 272 297
3 297 272 296
3 245 273 298
3 298 273 297
3 282 221 294
3 294 221 299
3 221 224 299
3 299 224 300
3 300 224 301
3 301 224 281
3 302 303 299
3 299 303 294
3 305 306 304
3 304 306 307
3 308 309 307
3 307 309 304
3 307 306 311
3 311 306 310
3 312 313 311
3 311 313 314
3 310 315 311
3 311 315 312
3 316 303 310
3 310 303 315
3 314 308 311
3 311 308 307
3 317 318 320
3 320 318 319
3 318 317 308
3 308 317 309
3 310 306 316
3 316 306 305
3 305 296 316
3 316 296 295
3 305 321 296
3 296 321 297
3 304 322 305
3 305 322 321
3 322 304 323
3 323 304 309
3 303 316 294
3 294 316 295
3 317 324 309
3 309 324 323
3 322 323 325
3 325 323 326
3 323 324 326
3 326 324 327
3 325 326 328
3 328 326 329
3 328 330 325
3 325 330 331
3 332 329 327
3 327 329 326
3 322 325 321
3 321 325 331
3 321 331 297
3 297 331 298
3 324 317 333
3 333 317 320
3 312 315 334
3 334 315 303
3 334 335 312
3 312 335 313
3 303 302 334
3 334 302 336
3 335 334 337
3 337 334 336
3 335 338 313
3 313 338 339
3 245 298 237
3 237 298 340
3 238 341 281
3 281 341 301
3 341 238 340
3 340 238 237
3 340 330 341
3 341 330 342
3 330 328 342
3 342 328 343
3 341 342 301
3 301 342 344
3 340 298 330
3 330 298 331
3 345 300 344
3 344 300 301
3 345 302 300
3 300 302 299
3 346 336 345
3 345 336 302
3 346 345 347
3 347 345 344
3 348 346 349
3 349 346 347
3 342 343 344
3 344 343 347
3 343 350 347
3 347 350 349
3 336 346 337
3 337 346 348
3 352 337 351
3 351 337 348
3 351 354 353
3 353 354 355
3 351 348 354
3 354 348 349
3 351 353 352
3 352 353 333
3 352 333 338
3 338 333 320
3 338 335 352
3 352 335 337
3 328 329 343
3 343 329 350
3 355 350 332
3 332 350 329
3 355 354 350
3 350 354 349
3 353 355 327
3 327 355 332
3 327 324 353
3 353 324 333
3 308 314 318
3 318 314 319
3 319 339 320
3 320 339 338
3 319 314 339
3 339 314 313
3 136 135 260
3 260 135 258
3 139 165 140
3 140 165 164
3 171 170 194
3 194 170 195
3 170 173 195
3 195 173 189
3 177 176 263
3 263 176 186
3 171 194 139
3 139 194 165
3 136 260 261
3 261 260 274
3 177 263 140
3 140 263 137
3 261 176 212
3 212 176 175
3 135 173 258
3 258 173 172
3 357 358 356
3 356 358 359
3 361 362 360
3 360 362 363
3 360 363 364
3 364 363 365
3 366 367 369
3 369 367 368
3 75 370 246
3 246 370 371
3 372 373 361
3 361 373 362
3 375 376 374
3 374 376 377
3 288 228 379
3 379 228 378
3 380 378 262
3 262 378 228
3 382 383 381
3 381 383 384
3 385 367 373
3 373 367 362
3 75 288 370
3 370 288 379
3 376 375 358
3 358 375 386
3 387 385 359
3 359 385 373
3 388 382 365
3 365 382 389
3 391 392 390
3 390 392 393
3 382 381 389
3 389 381 394
3 395 364 389
3 389 364 365
3 388 365 366
3 366 365 363
3 356 396 357
3 357 396 397
3 372 398 356
3 356 398 396
3 388 366 399
3 399 366 369
3 381 384 374
3 374 384 371
3 356 359 372
3 372 359 373
3 360 400 361
3 361 400 401
3 386 387 358
3 358 387 359
3 362 367 363
3 363 367 366
3 357 397 402
3 402 397 403
3 395 391 404
3 404 391 390
3 391 394 392
3 392 394 377
3 392 402 393
3 393 402 403
3 374 377 381
3 381 377 394
3 364 395 405
3 405 395 404
3 361 401 372
3 372 401 398
3 270 269 399
3 399 269 383
3 400 360 405
3 405 360 364
3 380 368 385
3 385 368 367
3 391 395 394
3 394 395 389
3 392 377 402
3 402 377 376
3 402 376 357
3 357 376 358
3 405 404 407
3 407 404 406
3 405 407 400
3 400 407 408
3 400 408 401
3 401 408 409
3 401 409 398
3 398 409 410
3 404 390 406
3 406 390 411
3 390 393 411
3 411 393 412
3 393 403 412
3 412 403 413
3 414 415 411
3 411 415 406
3 417 418 416
3 416 418 419
3 420 421 417
3 417 421 418
3 418 421 423
3 423 421 422
3 424 425 423
3 423 425 426
3 422 427 423
3 423 427 424
3 426 419 423
3 423 419 418
3 419 428 416
3 416 428 429
3 422 421 430
3 430 421 420
3 420 408 430
3 430 408 407
3 420 431 408
3 408 431 409
3 417 432 420
3 420 432 431
3 433 432 416
3 416 432 417
3 430 415 422
3 422 415 427
3 415 430 406
3 406 430 407
3 434 433 429
3 429 433 416
3 432 433 435
3 435 433 436
3 433 434 436
3 436 434 437
3 435 436 438
3 438 436 439
3 438 440 435
3 435 440 441
3 437 442 436
3 436 442 439
3 435 441 432
3 432 441 431
3 431 441 409
3 409 441 410
3 434 429 444
3 444 429 443
3 429 428 443
3 443 428 445
3 424 427 446
3 446 427 415
3 425 424 447
3 447 424 446
3 415 414 446
3 446 414 448
3 446 448 447
3 447 448 449
3 450 451 447
3 447 451 425
3 445 451 443
3 443 451 450
3 398 410 396
3 396 410 452
3 397 453 403
3 403 453 413
3 453 397 452
3 452 397 396
3 452 440 453
3 453 440 454
3 440 438 454
3 454 438 455
3 453 454 413
3 413 454 456
3 440 452 441
3 441 452 410
3 457 412 456
3 456 412 413
3 457 414 412
3 412 414 411
3 457 458 414
3 414 458 448
3 458 457 459
3 459 457 456
3 460 458 461
3 461 458 459
3 454 455 456
3 456 455 459
3 455 462 459
3 459 462 461
3 458 460 448
3 448 460 449
3 464 449 463
3 463 449 460
3 463 466 465
3 465 466 467
3 463 460 466
3 466 460 461
3 463 465 464
3 464 465 444
3 464 444 450
3 450 444 443
3 450 447 464
3 464 447 449
3 438 439 455
3 455 439 462
3 467 462 442
3 442 462 439
3 467 466 462
3 462 466 461
3 465 467 437
3 437 467 442
3 437 434 465
3 465 434 444
3 419 426 428
3 428 426 445
3 445 426 451
3 451 426 425
3 369 368 187
3 187 368 185
3 370 375 371
3 371 375 374
3 379 378 386
3 386 378 387
3 378 380 387
3 387 380 385
3 384 383 277
3 277 383 269
3 379 386 370
3 370 386 375
3 399 369 270
3 270 369 187
3 384 277 371
3 371 277 246
3 399 383 388
3 388 383 382
3 368 380 185
3 185 380 262
3 220 270 143
3 143 270 187
3 220 18 206
3 206 18 21
3 18 17 21
3 21 17 22
3 17 218 22
3 22 218 207
3 468 469 471
3 471 469 470
3 473 474 472
3 472 474 475
3 472 475 476
3 476 475 477
3 479 480 478
3 478 480 481
3 482 483 473
3 473 483 474
3 485 486 484
3 484 486 487
3 488 489 76
3 76 489 141
3 490 488 247
3 247 488 76
3 492 493 491
3 491 493 494
3 495 479 483
3 483 479 474
3 485 496 486
3 486 496 470
3 497 495 471
3 471 495 483
3 498 492 477
3 477 492 499
3 500 501 503
3 503 501 502
3 492 491 499
3 499 491 504
3 505 476 499
3 499 476 477
3 498 477 478
3 478 477 475
3 468 506 469
3 469 506 507
3 482 508 468
3 468 508 506
3 478 481 498
3 498 481 509
3 491 494 484
3 484 494 510
3 482 468 483
3 483 468 471
3 472 511 473
3 473 511 512
3 496 497 470
3 470 497 471
3 474 479 475
3 475 479 478
3 469 507 513
3 513 507 514
3 505 501 515
3 515 501 500
3 502 501 487
3 487 501 504
3 513 514 502
3 502 514 503
3 484 487 491
3 491 487 504
3 476 505 516
3 516 505 515
3 473 512 482
3 482 512 508
3 509 291 493
3 493 291 163
3 511 472 516
3 516 472 476
3 490 480 495
3 495 480 479
3 501 505 504
3 504 505 499
3 502 487 513
3 513 487 486
3 513 486 469
3 469 486 470
3 516 515 518
3 518 515 517
3 516 518 511
3 511 518 519
3 511 519 512
3 512 519 520
3 512 520 508
3 508 520 521
3 515 500 517
3 517 500 522
3 500 503 522
3 522 503 523
3 523 503 524
3 524 503 514
3 525 526 522
3 522 526 517
3 528 529 527
3 527 529 530
3 531 532 528
3 528 532 529
3 529 532 534
3 534 532 533
3 535 536 534
3 534 536 537
3 533 538 534
3 534 538 535
3 537 530 534
3 534 530 529
3 539 540 530
3 530 540 527
3 532 531 533
3 533 531 541
3 531 519 541
3 541 519 518
3 531 542 519
3 519 542 520
3 528 543 531
3 531 543 542
3 543 528 544
3 544 528 527
3 533 541 538
3 538 541 526
3 526 541 517
3 517 541 518
3 540 545 527
3 527 545 544
3 546 543 547
3 547 543 544
3 545 548 544
3 544 548 547
3 549 546 550
3 550 546 547
3 546 549 552
3 552 549 551
3 548 553 547
3 547 553 550
3 543 546 542
3 542 546 552
3 542 552 520
3 520 552 521
3 545 540 555
3 555 540 554
3 540 539 554
3 554 539 556
3 535 538 557
3 557 538 526
3 536 535 558
3 558 535 557
3 526 525 557
3 557 525 559
3 558 557 560
3 560 557 559
3 558 561 536
3 536 561 562
3 556 562 554
3 554 562 561
3 508 521 506
3 506 521 563
3 507 564 514
3 514 564 524
3 564 507 563
3 563 507 506
3 563 551 564
3 564 551 565
3 551 549 565
3 565 549 566
3 564 565 524
3 524 565 567
3 563 521 551
3 551 521 552
3 568 523 567
3 567 523 524
3 568 525 523
3 523 525 522
3 569 559 568
3 568 559 525
3 569 568 570
3 570 568 567
3 571 569 572
3 572 569 570
3 565 566 567
3 567 566 570
3 566 573 570
3 570 573 572
3 569 571 559
3 559 571 560
3 575 560 574
3 574 560 571
3 574 577 576
3 576 577 578
3 574 571 577
3 577 571 572
3 574 576 575
3 575 576 555
3 575 555 561
3 561 555 554
3 561 558 575
3 575 558 560
3 549 550 566
3 566 550 573
3 578 573 553
3 553 573 550
3 578 577 573
3 573 577 572
3 578 553 576
3 576 553 548
3 548 545 576
3 576 545 555
3 530 537 539
3 539 537 556
3 556 537 562
3 562 537 536
3 480 293 481
3 481 293 292
3 579 485 510
3 510 485 484
3 489 488 496
3 496 488 497
3 488 490 497
3 497 490 495
3 162 494 163
3 163 494 493
3 579 489 485
3 485 489 496
3 481 292 509
3 509 292 291
3 494 162 510
3 510 162 198
3 493 492 509
3 509 492 498
3 480 490 293
3 293 490 247
3 581 582 580
3 580 582 583
3 585 586 584
3 584 586 587
3 584 587 588
3 588 587 589
3 591 592 590
3 590 592 593
3 594 595 597
3 597 595 596
3 598 599 585
3 585 599 586
3 600 601 603
3 603 601 602
3 604 605 607
3 607 605 606
3 608 606 199
3 199 606 605
3 609 610 612
3 612 610 611
3 599 613 586
3 586 613 591
3 595 604 596
3 596 604 607
3 601 614 602
3 602 614 582
3 615 613 583
3 583 613 599
3 610 617 616
3 616 617 589
3 619 620 618
3 618 620 621
3 609 622 610
3 610 622 617
3 623 588 617
3 617 588 589
3 616 589 590
3 590 589 587
3 580 624 581
3 581 624 625
3 598 626 580
3 580 626 624
3 590 593 616
3 616 593 627
3 600 609 597
3 597 609 612
3 580 583 598
3 598 583 599
3 584 628 585
3 585 628 629
3 614 615 582
3 582 615 583
3 586 591 587
3 587 591 590
3 581 625 630
3 630 625 631
3 623 619 632
3 632 619 618
3 620 619 603
3 603 619 622
3 630 631 620
3 620 631 621
3 609 600 622
3 622 600 603
3 588 623 633
3 633 623 632
3 585 629 598
3 598 629 626
3 202 201 627
3 627 201 611
3 628 584 633
3 633 584 588
3 608 592 613
3 613 592 591
3 619 623 622
3 622 623 617
3 630 620 602
3 602 620 603
3 581 630 582
3 582 630 602
3 633 632 635
3 635 632 634
3 633 635 628
3 628 635 636
3 628 636 629
3 629 636 637
3 629 637 626
3 626 637 638
3 632 618 634
3 634 618 639
3 618 621 639
3 639 621 640
3 640 621 641
3 641 621 631
3 643 634 642
3 642 634 639
3 644 645 647
3 647 645 646
3 648 649 645
3 645 649 646
3 646 649 651
3 651 649 650
3 651 652 654
3 654 652 653
3 650 655 651
3 651 655 652
3 654 647 651
3 651 647 646
3 647 656 644
3 644 656 657
3 649 648 650
3 650 648 658
3 648 636 658
3 658 636 635
3 648 659 636
3 636 659 637
3 660 659 645
3 645 659 648
3 661 660 644
3 644 660 645
3 650 658 655
3 655 658 643
3 643 658 634
3 634 658 635
3 662 661 657
3 657 661 644
3 663 660 664
3 664 660 661
3 662 665 661
3 661 665 664
3 666 663 667
3 667 663 664
3 663 666 669
3 669 666 668
3 665 670 664
3 664 670 667
3 660 663 659
3 659 663 669
3 659 669 637
3 637 669 638
3 657 671 662
3 662 671 672
3 657 656 671
3 671 656 673
3 652 655 674
3 674 655 643
3 652 674 653
3 653 674 675
3 674 643 676
3 676 643 642
3 675 674 677
3 677 674 676
3 678 679 675
3 675 679 653
3 673 679 671
3 671 679 678
3 626 638 624
3 624 638 680
3 625 681 631
3 631 681 641
3 680 681 624
3 624 681 625
3 668 682 680
3 680 682 681
3 666 683 668
3 668 683 682
3 681 682 641
3 641 682 684
3 680 638 668
3 668 638 669
3 685 640 684
3 684 640 641
3 640 685 639
3 639 685 642
3 685 686 642
3 642 686 676
3 686 685 687
3 687 685 684
3 688 686 689
3 689 686 687
3 682 683 684
3 684 683 687
3 683 690 687
3 687 690 689
3 686 688 676
3 676 688 677
3 692 677 691
3 691 677 688
3 691 694 693
3 693 694 695
3 691 688 694
3 694 688 689
3 691 693 692
3 692 693 672
3 692 672 678
3 678 672 671
3 678 675 692
3 692 675 677
3 683 666 690
3 690 666 667
3 695 690 670
3 670 690 667
3 695 694 690
3 690 694 689
3 693 695 665
3 665 695 670
3 665 662 693
3 693 662 672
3 647 654 656
3 656 654 673
3 673 654 679
3 679 654 653
3 592 161 593
3 593 161 289
3 597 596 600
3 600 596 601
3 614 607 615
3 615 607 606
3 606 608 615
3 615 608 613
3 696 594 612
3 612 594 597
3 596 607 601
3 601 607 614
3 593 289 627
3 627 289 202
3 627 611 616
3 616 611 610
3 592 608 161
3 161 608 199
3 104 28 697
3 697 28 698
3 267 125 700
3 700 125 699
3 125 124 699
3 699 124 701
3 251 702 249
3 249 702 703
3 31 267 704
3 704 267 700
3 287 104 705
3 705 104 697
3 28 31 698
3 698 31 704
3 706 250 705
3 705 250 287
3 249 703 124
3 124 703 701
3 702 251 706
3 706 251 250
3 705 707 706
3 706 707 708
3 706 708 702
3 702 708 709
3 702 709 703
3 703 709 710
3 703 710 701
3 701 710 711
3 705 697 707
3 707 697 712
3 697 698 712
3 712 698 713
3 698 704 713
3 713 704 714
3 716 707 715
3 715 707 712
3 718 719 717
3 717 719 720
3 721 722 718
3 718 722 719
3 723 724 722
3 722 724 719
3 723 725 724
3 724 725 726
3 727 720 724
3 724 720 719
3 720 727 728
3 728 727 729
3 728 730 720
3 720 730 717
3 723 722 731
3 731 722 721
3 721 709 731
3 731 709 708
3 721 732 709
3 709 732 710
3 718 733 721
3 721 733 732
3 733 718 734
3 734 718 717
3 723 731 725
3 725 731 716
3 716 731 707
3 707 731 708
3 730 735 717
3 717 735 734
3 736 733 737
3 737 733 734
3 735 738 734
3 734 738 737
3 739 736 740
3 740 736 737
3 736 739 742
3 742 739 741
3 738 743 737
3 737 743 740
3 733 736 732
3 732 736 742
3 732 742 710
3 710 742 711
3 735 730 745
3 745 730 744
3 730 728 744
3 744 728 729
3 726 725 746
3 746 725 716
3 747 726 748
3 748 726 746
3 746 716 749
3 749 716 715
3 748 746 750
3 750 746 749
3 748 751 747
3 747 751 752
3 729 752 744
3 744 752 751
3 727 724 747
3 747 724 726
3 729 727 752
3 752 727 747
3 699 701 753
3 753 701 711
3 704 700 714
3 714 700 754
3 753 754 699
3 699 754 700
3 741 755 753
3 753 755 754
3 739 756 741
3 741 756 755
3 754 755 714
3 714 755 757
3 753 711 741
3 741 711 742
3 758 713 757
3 757 713 714
3 713 758 712
3 712 758 715
3 758 759 715
3 715 759 749
3 759 758 760
3 760 758 757
3 761 759 762
3 762 759 760
3 755 756 757
3 757 756 760
3 756 763 760
3 760 763 762
3 759 761 749
3 749 761 750
3 765 750 764
3 764 750 761
3 766 764 768
3 768 764 767
3 764 761 767
3 767 761 762
3 764 766 765
3 765 766 745
3 765 745 751
3 751 745 744
3 751 748 765
3 765 748 750
3 756 739 763
3 763 739 740
3 768 763 743
3 743 763 740
3 768 767 763
3 763 767 762
3 766 768 738
3 738 768 743
3 738 735 766
3 766 735 745
3 218 216 207
3 207 216 208
3 208 216 209
3 209 216 192
3 197 579 198
3 198 579 510
3 75 74 288
3 288 74 271
3 276 206 290
3 290 206 183
3 289 182 202
3 202 182 83
3 489 579 141
3 141 579 197
3 141 197 142
3 142 197 196
3 148 275 71
3 71 275 72
3 103 102 278
3 278 102 769
3 769 595 278
3 278 595 594
3 604 595 770
3 770 595 769
3 770 769 771
3 771 769 102
3 771 102 772
3 772 102 101
3 154 773 100
3 100 773 101
3 772 101 96
3 96 101 773
3 774 772 99
3 99 772 96
3 772 774 771
3 771 774 775
3 771 775 770
3 770 775 776
3 199 605 196
3 196 605 776
3 188 70 777
3 777 70 73
3 96 773 97
3 97 773 154
3 182 160 183
3 183 160 290
3 776 275 196
3 196 275 142
3 776 605 770
3 770 605 604
3 612 611 696
3 696 611 201
3 594 696 278
3 278 696 201
3 72 275 775
3 775 275 776
3 775 774 72
3 72 774 73
3 99 777 774
3 774 777 73
3 777 99 188
3 188 99 98
3 244 241 98
3 98 241 188
3 130 32 255
3 27 0 94
3 94 0 61
3 26 1 27
3 27 1 0
3 264 114 265
3 265 114 113
3 94 61 68
3 68 61 63
3 61 60 63
3 63 60 64
3 60 12 64
3 64 12 129
3 12 11 129
3 129 11 13
3 30 10 31
3 31 10 267
3 14 11 30
3 30 11 10
3 30 29 14
3 14 29 230
3 29 105 230
3 230 105 231
3 286 236 105
3 105 236 231
3 253 89 286
3 286 89 236
3 252 43 253
3 253 43 89
3 252 248 43
3 43 248 6
3 266 126 267
3 267 126 125
3 9 2 240
3 240 2 115
3 2 1 115
3 115 1 113
3 1 26 113
3 113 26 265
3 26 25 265
3 265 25 112
3 25 285 112
3 112 285 109
3 285 242 109
3 109 242 254
3 242 241 254
3 254 241 255
3 241 244 255
3 255 244 130
3 244 243 130
3 130 243 131
3 264 36 114
3 114 36 40
3 40 36 41
3 41 36 39
3 91 90 39
3 39 90 41
3 235 232 91
3 91 232 90
3 190 193 235
3 235 193 232
3 257 284 243
3 243 284 131
3 256 54 257
3 257 54 284
3 256 153 200
3 200 153 184
3 55 200 203
3 203 200 179
3 54 256 55
3 55 256 200
3 203 84 55
3 55 84 51
3 85 121 52
3 52 121 78
3 211 214 85
3 85 214 121
3 210 215 211
3 211 215 214
3 191 279 210
3 210 279 215
3 190 239 191
3 191 239 279
3 248 123 6
3 6 123 7
3 123 126 7
3 7 126 240
3 126 266 240
3 240 266 9
3 9 266 8
3 8 266 10
