ply
format ascii 1.0
element vertex 778
property float x
property float y
property float z
element face 1538
property list uchar int vertex_indices
end_header
-0.0155155 0.0237057 0.367179
-0.0108258 0.033275 0.370593
-0.0121077 0.0309948 0.363951
-0.0143658 0.0193022 0.361493
-0.00241778 0.0509583 0.362685
0.00894224 0.0516564 0.361929
0.00196301 0.0455551 0.34946
-0.00709366 0.0473578 0.350805
-0.0140949 0.0163097 0.358054
-0.0137547 0.0289033 0.356842
-0.0140533 0.0156772 0.35875
-0.0143336 0.000545189 0.366073
-0.0161855 0.00397003 0.361678
-0.0183162 -0.00759884 0.368826
-0.0106002 0.00155218 0.374347
-0.0211704 -0.00804675 0.377239
-0.0266522 0.0141194 0.393831
-0.0357434 0.0236224 0.395757
-0.0455113 0.0125293 0.389632
-0.0353452 0.00389124 0.388028
-0.0537237 0.0309068 0.388598
-0.0499354 0.0203954 0.388763
-0.0402573 0.0307786 0.396305
-0.0433171 0.0399093 0.395594
-0.0222835 0.0359126 0.372312
-0.0165143 0.0440411 0.374718
-0.0137332 0.0388237 0.374593
-0.0188505 0.0317425 0.371029
-0.00891251 0.0188946 0.352349
-0.00140498 0.0141736 0.363856
-0.00846496 0.012362 0.362724
-0.0131345 0.0212767 0.350931
-0.00894404 0.0722427 0.376076
-0.00224376 0.0789636 0.385256
0.0023776 0.0750303 0.385409
-0.00508069 0.0696988 0.377646
0.0138342 0.0587732 0.377701
0.0162681 0.0638275 0.385467
0.0248987 0.0600176 0.394466
0.0232325 0.052641 0.386647
0.0120429 0.0542761 0.369721
0.0207058 0.0484421 0.375241
0.0165662 0.0456816 0.364871
0.00842815 0.0393852 0.351516
-0.011675 0.0865695 0.387947
-0.0180814 0.0831394 0.380849
-0.0518512 -0.0380164 0.348565
-0.0567529 -0.0353908 0.347891
-0.0532748 -0.0319445 0.349032
-0.049523 -0.035156 0.349823
-0.0274929 0.0838577 0.397707
-0.0291768 0.0794257 0.406356
-0.0258284 0.0854996 0.408014
-0.0224122 0.0888206 0.400053
-0.0340341 0.0773441 0.394993
-0.0335818 0.071032 0.404002
-0.0522775 -0.0452905 0.358748
-0.0502455 -0.0437959 0.354334
-0.0474665 -0.0416584 0.356636
-0.0496784 -0.0428374 0.361223
-0.0173104 0.00904358 0.361315
-0.0200151 0.0159859 0.363316
-0.0295174 -0.00559995 0.357026
-0.0260176 0.00354916 0.360213
-0.0212351 -1.17343e-05 0.360913
-0.0241845 -0.00794476 0.359503
-0.0382165 0.0218529 0.365544
-0.0311028 0.0299007 0.369668
-0.027865 0.0242297 0.368829
-0.0343009 0.014813 0.363174
-0.0382609 0.04118 0.367939
-0.0447646 0.0320303 0.364134
-0.0475313 0.0396564 0.363654
-0.0423157 0.0448626 0.365354
-0.0540563 0.0140393 0.35958
-0.059053 0.00794702 0.359028
-0.0608342 0.0105023 0.358623
-0.0555014 0.0170943 0.359537
-0.0217115 0.0910002 0.410305
-0.0167993 0.0927205 0.40244
-0.0605469 0.0493408 0.384822
-0.0582568 0.0587497 0.379515
-0.066784 0.0523578 0.372511
-0.0673386 0.043987 0.379439
-0.0269705 0.0718086 0.412561
-0.0250161 0.0787558 0.415371
-0.056613 -0.044124 0.361733
-0.05427 -0.0414284 0.363916
0.020962 0.035301 0.373608
0.0117442 0.0307822 0.355549
0.0238413 0.041641 0.387388
0.023121 0.0479692 0.39648
0.0243035 0.0542696 0.403455
-0.0325127 0.00425356 0.359304
-0.022257 0.0232707 0.367685
-0.0251073 0.0398612 0.372184
-0.0426253 0.0617776 0.365588
-0.0364213 0.0689133 0.369021
-0.0324073 0.0598076 0.367251
-0.0391554 0.0551978 0.36529
-0.0564884 0.062295 0.370685
-0.0528562 0.0591068 0.365226
-0.0578485 0.0535283 0.362207
-0.0625967 0.0560561 0.366095
-0.00293606 0.0172293 0.349832
0.00496743 0.0158801 0.364149
-0.0230046 0.0859554 0.389547
-0.0166685 0.0886619 0.392572
-0.0114907 0.0925836 0.397639
-0.0112875 0.0573657 0.375138
-0.0022409 0.0679121 0.378796
0.000578122 0.0639567 0.378177
-0.00941725 0.054065 0.376337
-0.00706399 0.0446512 0.372845
0.00112293 0.053188 0.371665
-0.0110701 0.043825 0.364225
0.00911786 0.0709149 0.38617
0.00843385 0.0811591 0.390202
0.0147865 0.075374 0.391638
0.00120718 0.0867285 0.391823
-0.00578184 0.0912465 0.394011
-0.0231484 0.0846209 0.420502
0.0195959 0.0694132 0.393154
-0.00858669 0.0419438 0.344374
-0.0102493 0.0375228 0.339158
-0.0161044 0.0350896 0.343797
-0.0149523 0.0376387 0.347655
-0.0238776 -0.0151664 0.369825
-0.0231698 -0.0121902 0.362932
-0.0176499 -0.00377278 0.363315
-0.0186482 0.0683474 0.371664
-0.0255594 0.0777196 0.375482
-0.0359383 -0.00561144 0.356909
-0.0471259 -0.0394071 0.363571
-0.0446436 -0.0385958 0.358921
-0.0336304 -0.0258535 0.365262
-0.0369653 -0.027414 0.370119
-0.0450644 -0.0119255 0.360091
-0.0401704 -0.0101696 0.357019
-0.0433434 -0.0126499 0.357811
-0.0485597 -0.0144534 0.360149
-0.06162 0.0194614 0.357393
-0.0577312 0.0251264 0.358787
-0.0436501 -0.00503766 0.379876
-0.032472 -0.0119698 0.382583
-0.0264631 -0.00328845 0.385177
-0.0416602 0.027939 0.365622
-0.0484038 0.0211932 0.361455
-0.0505058 0.0242318 0.361143
-0.0372643 0.0031279 0.359095
-0.0409281 -0.00429261 0.357913
-0.0419947 0.000822291 0.358602
-0.0392824 0.00760766 0.360214
-0.0499978 0.0656281 0.386449
-0.0488124 0.0700877 0.376105
-0.0498027 -0.0413266 0.351086
-0.0471728 -0.0386434 0.352833
-0.0345357 0.0358084 0.369439
-0.0189844 0.00702685 0.388601
-0.0278993 0.0439103 0.372097
-0.0688493 0.0281801 0.372383
-0.067944 0.0301559 0.364678
-0.0707203 0.0259529 0.362455
-0.0737491 0.0238681 0.367885
-0.0583098 -0.0261197 0.357285
-0.0551429 -0.0263864 0.352483
-0.0578766 -0.0299971 0.351371
-0.0613445 -0.0300891 0.356324
-0.0351298 -0.0110859 0.356113
-0.029948 -0.0139382 0.357828
-0.0354908 -0.0180802 0.356346
-0.039775 -0.0151716 0.356597
-0.0286831 -0.0181048 0.361841
-0.0329603 -0.0221637 0.360013
-0.058685 -0.0285232 0.363034
-0.0555481 -0.0337384 0.367405
-0.04729 -0.0219378 0.372415
-0.0504818 -0.0185622 0.366029
-0.0345695 0.0487308 0.40372
-0.0394485 0.0577458 0.401244
-0.0486644 0.0490866 0.393315
-0.0584192 0.0411735 0.38568
-0.0667258 0.0338156 0.377761
-0.0627401 0.0241128 0.383019
-0.0506697 0.0563571 0.391689
-0.0476699 -0.00853108 0.367707
-0.0423795 -0.0132435 0.375069
-0.0472207 -0.00756018 0.374091
-0.0315432 0.0497983 0.36981
-0.0439998 -0.0358986 0.354729
0.00716803 0.0477819 0.415232
-0.00373606 0.0545508 0.419022
-0.00668872 0.0471724 0.414484
0.00563292 0.039863 0.408587
-0.0506998 -0.02821 0.349523
-0.046462 -0.0318936 0.350448
-0.0604237 0.0294753 0.356839
-0.0642173 0.0241796 0.356269
-0.0675276 0.025556 0.356996
-0.063466 0.0303496 0.355339
-0.0404273 0.0629837 0.400048
-0.0693093 0.0492172 0.364561
-0.0711471 0.0418945 0.371788
-0.0313456 0.0647159 0.408144
-0.0270417 0.0571661 0.410811
-0.0221186 0.0634801 0.415964
-0.0595305 0.00994898 0.379611
-0.0317234 0.0409583 0.403791
-0.0235967 0.050842 0.410708
-0.0176153 0.0580009 0.416565
-0.0138059 0.0632392 0.421259
-0.0189232 0.0686127 0.420215
-0.0517623 -0.0376027 0.366327
-0.0595557 -0.0376268 0.365112
-0.0166643 0.0744056 0.426006
-0.0103983 0.0682116 0.426883
-0.0184747 0.0431154 0.409969
-0.0116163 0.0351323 0.407613
-0.02633 0.0341317 0.403287
-0.0201405 0.0254414 0.400907
-0.052185 0.00380946 0.385727
-0.0701271 -0.044159 0.355551
-0.0647176 -0.0364995 0.359428
-0.0644848 -0.0334679 0.354586
-0.07081 -0.0418128 0.352207
-0.0618787 -0.0325284 0.361331
-0.0616316 -0.0402633 0.362687
-0.00961723 0.0168744 0.393596
-0.0467328 -0.00532074 0.358321
0.0027071 0.0265903 0.397072
-0.00271744 0.00913658 0.380121
0.00656057 0.0173679 0.380281
0.0162744 0.0375917 0.399035
0.0175089 0.0279309 0.384201
0.0183235 0.0524156 0.412622
0.0158061 0.0452154 0.406977
0.0136568 0.0234046 0.367412
-0.0606129 -0.0441328 0.344873
-0.0646114 -0.0411388 0.34501
0.00997249 0.054298 0.420652
-0.0135906 0.0406766 0.354138
-0.0233592 0.056277 0.371437
-0.020932 0.0515664 0.373175
-0.0323563 0.0725139 0.371573
-0.0264076 0.0632614 0.369223
-0.05766 -0.0472886 0.346919
-0.0637665 0.00505084 0.361531
-0.0626382 0.00784041 0.361193
-0.00152987 0.0399784 0.342797
-0.00370261 0.0358774 0.337608
0.000546373 0.0245002 0.338445
7.94621e-05 0.0311771 0.336497
0.00435416 0.0344648 0.343711
0.00617961 0.0272179 0.345747
-0.0131359 0.0598531 0.373531
-0.0156109 0.0628015 0.37243
-0.0417556 0.0723159 0.39103
-0.040595 0.0757591 0.380564
-0.0294156 -0.0209471 0.368045
-0.0275162 -0.0161019 0.37661
-0.032568 -0.0215509 0.373305
-0.0411668 -0.0250344 0.373717
-0.0486333 -0.00895546 0.362019
-0.0462616 -0.0132864 0.366509
0.000971188 0.0580037 0.374687
-0.00708134 0.0479484 0.375968
-0.0152236 0.0292741 0.351709
-0.0167111 0.0292818 0.348173
-0.0423625 0.0148879 0.361696
-0.0636498 0.00194551 0.375165
-0.0576558 -0.00318425 0.379753
-0.0475146 0.00747145 0.359233
-0.0590346 -0.0512108 0.353993
-0.0572929 -0.0495154 0.349765
-0.0368768 -0.0191731 0.377379
-0.0533389 0.0319126 0.360168
-0.0640459 0.00948814 0.373644
-0.0657815 0.00354034 0.36857
-0.0637701 0.0527454 0.361354
2.71618e-05 0.0608514 0.423709
-0.0615258 -0.0332648 0.349846
-0.0682411 -0.0396015 0.347119
-0.0671613 -0.0464873 0.357983
-0.0624998 -0.0495299 0.357915
-0.031644 0.0800013 0.383757
-0.0192575 0.0479231 0.374132
0.00692366 0.0216267 0.354504
6.98997e-05 0.0195183 0.344128
-0.0515705 0.002988 0.358114
-0.0693851 0.0343805 0.369217
-0.0690017 0.0200735 0.377201
-0.0749649 0.0159444 0.371507
-0.072216 0.00984855 0.369307
-0.0688195 0.00651759 0.36405
-0.0703393 -0.0489616 0.355944
-0.0655607 -0.0522477 0.356081
-0.0627015 -0.0544923 0.352485
-0.0610582 -0.0530261 0.348384
-0.0607759 -0.0499096 0.345852
-0.0738913 -0.0471545 0.353423
-0.0743487 -0.0452443 0.350152
-0.0711081 -0.0423092 0.346129
-0.0770723 -0.0495904 0.351029
-0.0758303 -0.0540454 0.352872
-0.072052 -0.062327 0.345815
-0.0687282 -0.0593836 0.349551
-0.0712792 -0.0603823 0.349642
-0.0745294 -0.0630478 0.347138
-0.078689 -0.0654446 0.345262
-0.0759026 -0.0653143 0.343268
-0.0724086 -0.0574561 0.352111
-0.0774275 -0.0606428 0.348929
-0.0801105 -0.0580723 0.349524
-0.0838742 -0.0612225 0.34751
-0.0816218 -0.0640883 0.347331
-0.0766728 -0.0563327 0.351725
-0.0708707 -0.0563875 0.35341
-0.0803832 -0.0665849 0.34267
-0.0813807 -0.0667019 0.344647
-0.0839498 -0.065311 0.345758
-0.0852321 -0.0655105 0.343316
-0.0643134 -0.056195 0.346637
-0.0706642 -0.0611205 0.343474
-0.0758785 -0.0631413 0.341171
-0.0801516 -0.0648434 0.340593
-0.0717949 -0.0591498 0.340731
-0.0767356 -0.061168 0.339838
-0.0805637 -0.0621986 0.339386
-0.0747003 -0.0564741 0.339217
-0.0782695 -0.0590232 0.339111
-0.0654892 -0.0490627 0.342968
-0.0633131 -0.0520964 0.344559
-0.0806395 -0.0601679 0.338671
-0.0854601 -0.0641595 0.341917
-0.0805902 -0.0550092 0.349305
-0.084672 -0.0588522 0.345926
-0.0813102 -0.0533119 0.347824
-0.0855139 -0.057114 0.344738
-0.0874096 -0.0625414 0.344599
-0.0853872 -0.0632362 0.345898
-0.0629807 -0.0456926 0.344319
-0.0673705 -0.0428638 0.34443
-0.0697121 -0.0455168 0.343111
-0.0774761 -0.0532991 0.339415
-0.0737862 -0.044926 0.344914
-0.0773504 -0.0479269 0.347873
-0.0818054 -0.0524835 0.345299
-0.0807623 -0.0517498 0.342493
-0.0847372 -0.0557801 0.342806
-0.0832255 -0.0553655 0.34123
-0.0806756 -0.05669 0.339192
-0.0860008 -0.0590736 0.34146
-0.0872392 -0.0608739 0.343176
-0.0844578 -0.0618565 0.340344
-0.0847504 -0.0577511 0.340557
-0.0826968 -0.0595112 0.339506
-0.0763258 -0.0210886 0.345125
-0.0794464 -0.0162188 0.344765
-0.0757822 -0.0139703 0.347206
-0.0728721 -0.0182547 0.347079
-0.081902 -0.0280422 0.356182
-0.0775419 -0.0276092 0.351044
-0.0735079 -0.0261718 0.353718
-0.0788239 -0.0264457 0.359527
-0.0868383 -0.0243457 0.35976
-0.0840842 -0.0226819 0.362722
-0.0750859 -0.0243488 0.362641
-0.0697545 -0.0234879 0.356679
-0.054767 -0.0117 0.365544
-0.0593705 -0.0127723 0.371691
-0.0621029 0.00204456 0.358282
-0.0660812 0.00118049 0.360576
-0.0759082 -0.0243402 0.34725
-0.0723208 -0.0225513 0.349525
-0.0804873 -0.00778439 0.353568
-0.0761318 -0.00880647 0.349923
-0.0792614 -0.0110514 0.34801
-0.0836106 -0.0098791 0.351954
-0.0532634 -0.00593865 0.358846
-0.0572649 -0.0015493 0.358321
-0.0532414 -0.00948857 0.361236
-0.0838365 -0.00991096 0.358938
-0.0848881 -0.0144311 0.364101
-0.0711921 -0.00453782 0.372391
-0.071389 -0.00130534 0.367146
-0.0681467 -0.0207146 0.352144
-0.0722208 -0.0123976 0.348457
-0.0691565 -0.0164693 0.349124
-0.0806733 -0.0201502 0.364552
-0.088467 -0.0164913 0.361097
-0.0980064 -0.0193575 0.348121
-0.0902141 -0.014248 0.353823
-0.0873055 -0.0123749 0.349636
-0.0965048 -0.0174174 0.344177
-0.0869788 -0.0116582 0.356237
-0.0906664 -0.0181102 0.357919
-0.0886412 -0.024568 0.33748
-0.0917039 -0.0196663 0.337478
-0.0877433 -0.0284594 0.339256
-0.0664205 -0.00961055 0.374512
-0.0903113 -0.0313638 0.348642
-0.0876659 -0.0307917 0.34301
-0.0831223 -0.0126484 0.346102
-0.0947231 -0.0172258 0.340143
-0.0976461 -0.0223509 0.351018
-0.093977 -0.0275427 0.352582
-0.100668 -0.024644 0.347695
-0.0972061 -0.0292515 0.348885
-0.0938082 -0.0329944 0.345109
-0.0914576 -0.0324007 0.340138
-0.0910195 -0.0293575 0.337496
-0.101514 -0.021765 0.345244
-0.100847 -0.0198239 0.341925
-0.0972758 -0.018784 0.338683
-0.106498 -0.0235059 0.34126
-0.106699 -0.0270924 0.343053
-0.108308 -0.0391245 0.333791
-0.103981 -0.0375722 0.336711
-0.105955 -0.0368765 0.338636
-0.110136 -0.0384027 0.336069
-0.100924 -0.036005 0.341054
-0.103603 -0.0354974 0.341277
-0.105248 -0.0322798 0.342955
-0.109066 -0.0339869 0.339961
-0.110849 -0.0299241 0.340311
-0.115566 -0.0318154 0.33853
-0.114067 -0.0360723 0.338144
-0.107782 -0.0298031 0.342382
-0.113377 -0.0388635 0.334626
-0.113822 -0.0386693 0.332175
-0.103178 -0.0321893 0.344091
-0.0951977 -0.0344046 0.338755
-0.102386 -0.0367751 0.334109
-0.108012 -0.0378912 0.331285
-0.114238 -0.0368322 0.330078
-0.102308 -0.0339629 0.331666
-0.108193 -0.035359 0.329424
-0.113833 -0.0345854 0.329105
-0.10335 -0.0301327 0.32997
-0.109482 -0.0315073 0.328383
-0.093742 -0.0264474 0.334686
-0.0931589 -0.0308523 0.335914
-0.11241 -0.0325862 0.328716
-0.117876 -0.0365608 0.333968
-0.117865 -0.0347511 0.331302
-0.11691 -0.0366795 0.335559
-0.111425 -0.0280618 0.33953
-0.116229 -0.030105 0.337079
-0.111716 -0.0259526 0.338253
-0.11684 -0.0285705 0.335365
-0.119254 -0.0325629 0.335236
-0.118631 -0.0336702 0.336302
-0.0916738 -0.0253564 0.336367
-0.0942506 -0.0206523 0.33669
-0.0963304 -0.0217301 0.335252
-0.10595 -0.0256649 0.330667
-0.0999274 -0.0196155 0.337396
-0.104969 -0.0214441 0.33978
-0.110766 -0.0243207 0.336543
-0.109131 -0.0238004 0.333395
-0.116535 -0.0269476 0.333924
-0.113947 -0.0261638 0.331968
-0.111244 -0.0280608 0.32923
-0.119156 -0.0300522 0.332079
-0.119728 -0.031606 0.333855
-0.11684 -0.0330322 0.330138
-0.11645 -0.0285526 0.330855
-0.114634 -0.0309396 0.329196
-0.0816022 0.00228213 0.340208
-0.0816253 0.00746169 0.338949
-0.0788996 0.00871294 0.34147
-0.0786256 0.00333055 0.342561
-0.0912265 8.90497e-05 0.349069
-0.0880552 -0.00205614 0.345845
-0.0850845 -0.00159218 0.349037
-0.0878874 0.000300773 0.353175
-0.0944033 0.00423985 0.348699
-0.0901705 0.0056939 0.354088
-0.0851434 0.00126781 0.357207
-0.0821615 -0.000387907 0.352378
-0.0717575 0.0056483 0.361141
-0.0760951 0.00689392 0.365549
-0.0845261 -0.000223375 0.342949
-0.0816675 0.000217274 0.345327
-0.0816623 0.016101 0.345777
-0.0776062 0.0138547 0.344216
-0.0811305 0.0131589 0.341848
-0.0843463 0.015259 0.343593
-0.0640105 0.0113496 0.35649
-0.0650558 0.0167551 0.356517
-0.067298 0.00743619 0.357718
-0.0866903 0.0166423 0.349676
-0.0895257 0.0130955 0.355803
-0.080295 0.0193673 0.363199
-0.076132 0.0221944 0.359478
-0.0786925 0.00126258 0.34803
-0.0754656 0.00973671 0.343705
-0.0755507 0.00452558 0.345103
-0.087334 0.00669925 0.357916
-0.0921334 0.0113807 0.35154
-0.101963 0.00856673 0.334235
-0.0918779 0.0145651 0.34438
-0.0870212 0.0142616 0.341412
-0.0993476 0.00973728 0.331223
-0.0893379 0.0157856 0.34649
-0.0949216 0.0103316 0.348149
-0.0923467 -0.000584945 0.32963
-0.0926607 0.00456326 0.32846
-0.0929712 -0.00292255 0.332816
-0.0804133 0.0121304 0.36687
-0.0701512 0.0217028 0.356476
-0.0985443 -0.00321458 0.337461
-0.0951746 -0.0039323 0.335338
-0.0835454 0.0120692 0.339863
-0.0956995 0.00868852 0.329144
-0.102824 0.00583748 0.337551
-0.101751 0.000737697 0.339742
-0.105068 0.00445754 0.333659
-0.10358 -0.000260964 0.335856
-0.100729 -0.00470303 0.334537
-0.0972516 -0.00540926 0.33234
-0.0952619 -0.00470851 0.329792
-0.104299 0.00659911 0.330365
-0.101945 0.00737923 0.327555
-0.0970699 0.00679088 0.327247
-0.106732 0.00520879 0.326636
-0.109421 0.00167077 0.328757
-0.11058 -0.0123016 0.321322
-0.107551 -0.00967745 0.325363
-0.10895 -0.00905675 0.325663
-0.112283 -0.0114429 0.321933
-0.105543 -0.00685009 0.330422
-0.107387 -0.00659697 0.32948
-0.10855 -0.00340904 0.329685
-0.112559 -0.00589433 0.325389
-0.112502 -0.000648617 0.323411
-0.11546 -0.00343244 0.320398
-0.115833 -0.00834757 0.321828
-0.110128 -2.26345e-05 0.328036
-0.114581 -0.0117966 0.319616
-0.113694 -0.0137521 0.318815
-0.107301 -0.00254645 0.331352
-0.100777 -0.00786097 0.329194
-0.104993 -0.0106243 0.324012
-0.107965 -0.0134708 0.319894
-0.111241 -0.013293 0.316959
-0.102496 -0.00939282 0.321665
-0.105925 -0.0117252 0.31811
-0.108964 -0.0117281 0.315562
-0.101074 -0.00700547 0.319839
-0.104793 -0.00921988 0.316985
-0.0953995 -0.00294699 0.326707
-0.0973661 -0.00615974 0.327807
-0.107545 -0.00984329 0.315203
-0.116994 -0.0104269 0.317548
-0.114646 -0.00929213 0.314788
-0.116448 -0.00983854 0.318945
-0.111751 0.000916139 0.323021
-0.115531 -0.00204208 0.318438
-0.109803 0.00242312 0.321344
-0.113681 -0.000592276 0.316909
-0.11768 -0.00539689 0.316864
-0.117376 -0.00600151 0.317897
-0.0940272 -0.00135331 0.328406
-0.0943913 0.00336874 0.326895
-0.0954203 0.00145572 0.325171
-0.101953 -0.00340301 0.318265
-0.0981975 0.00510598 0.325091
-0.104255 0.00537084 0.324192
-0.107415 0.00202084 0.319582
-0.104665 6.0663e-05 0.318272
-0.110839 -0.000966258 0.315691
-0.108154 -0.00200356 0.315734
-0.105515 -0.00566399 0.315366
-0.112864 -0.00421079 0.314309
-0.11575 -0.00432587 0.315252
-0.111582 -0.00855333 0.313772
-0.109958 -0.0043874 0.314212
-0.109145 -0.00765477 0.313916
-0.0671048 0.020322 0.355966
-0.0624487 0.0265386 0.337402
-0.0616433 0.0304216 0.337139
-0.062166 0.0316113 0.338339
-0.0623683 0.0276035 0.3393
-0.0715558 0.0247349 0.336693
-0.0677774 0.0228733 0.336824
-0.0687617 0.0225591 0.340615
-0.0726872 0.0243883 0.340885
-0.073702 0.0290732 0.33592
-0.0746067 0.0290244 0.339653
-0.073063 0.0249436 0.344868
-0.0687305 0.0234529 0.34429
-0.0673792 0.0293756 0.358666
-0.0707376 0.0322965 0.361161
-0.064408 0.0495091 0.356294
-0.0607935 0.0470411 0.356062
-0.0617459 0.0429448 0.349951
-0.0651477 0.0459119 0.349832
-0.0645132 0.0237478 0.337079
-0.0647386 0.0240558 0.340488
-0.0669001 0.0401995 0.338016
-0.0632484 0.0373018 0.338622
-0.062912 0.0356466 0.337664
-0.0657112 0.0390653 0.336702
-0.0589138 0.0414414 0.355504
-0.0607632 0.0366728 0.355735
-0.060571 0.0346086 0.352824
-0.0598941 0.0380451 0.349873
-0.06259 0.0297818 0.354621
-0.0710932 0.039768 0.338666
-0.0747912 0.0360108 0.340729
-0.0731627 0.0447006 0.356512
-0.0691574 0.0467858 0.35352
-0.0650239 0.0244193 0.342489
-0.0618011 0.0331314 0.339743
-0.0623909 0.0280882 0.34056
-0.0756855 0.029903 0.343517
-0.0739053 0.0352392 0.337877
-0.066694 0.0373304 0.327989
-0.0689197 0.0390035 0.33462
-0.0649184 0.0386546 0.33569
-0.0640107 0.0373415 0.328648
-0.0697322 0.0387365 0.336064
-0.0724836 0.0351351 0.334678
-0.0604283 0.0255661 0.330784
-0.0601932 0.0307366 0.330464
-0.0625254 0.0232734 0.330494
-0.0733077 0.0383899 0.360785
-0.068438 0.0242806 0.328431
-0.0650445 0.0223343 0.329352
-0.0626355 0.0347526 0.336592
-0.0616671 0.0349238 0.329896
-0.0692551 0.0347916 0.327368
-0.0709751 0.02902 0.328037
-0.0678378 0.0338781 0.323509
-0.0693057 0.0279076 0.32436
-0.0671867 0.0230077 0.325838
-0.064122 0.0218192 0.327486
-0.0614257 0.022525 0.328317
-0.065089 0.0363809 0.324805
-0.0628941 0.0362687 0.326094
-0.0606572 0.0341487 0.327765
-0.0641135 0.0350006 0.321771
-0.0666206 0.0317519 0.319915
-0.0621314 0.0190377 0.31805
-0.0632948 0.0198742 0.320575
-0.0642999 0.0211312 0.320005
-0.0631269 0.0192621 0.317511
-0.0656759 0.0220083 0.322936
-0.0661006 0.0228747 0.321917
-0.0673439 0.0263416 0.321004
-0.0658561 0.0246937 0.318272
-0.0651191 0.0298742 0.316977
-0.0640825 0.0277692 0.314548
-0.0651388 0.0233819 0.315903
-0.0668655 0.0298257 0.319164
-0.0632007 0.0192435 0.315497
-0.0621528 0.0182723 0.314956
-0.0680274 0.0264927 0.321796
-0.0632039 0.0206433 0.325381
-0.0612135 0.0188558 0.32124
-0.060021 0.0182156 0.317892
-0.0603005 0.018973 0.314588
-0.0592199 0.0197252 0.322501
-0.0580521 0.0183977 0.31823
-0.0583946 0.0195257 0.315441
-0.0576666 0.0218622 0.323275
-0.0569505 0.0205909 0.318831
-0.0588683 0.0245974 0.327693
-0.0607008 0.0216797 0.326778
-0.0576215 0.0208164 0.316386
-0.0627608 0.0219335 0.312839
-0.0606686 0.0222745 0.313094
-0.0637971 0.0225027 0.313592
-0.064397 0.0312627 0.317142
-0.0632591 0.0286665 0.314197
-0.0623971 0.0321857 0.317717
-0.0616423 0.029188 0.314631
-0.0628235 0.0257274 0.312664
-0.0638721 0.0251776 0.313511
-0.059448 0.0254008 0.328911
-0.0593317 0.0299207 0.328704
-0.0590481 0.0290294 0.327428
-0.0570588 0.026107 0.322709
-0.0600387 0.0329993 0.326028
-0.0620268 0.0350082 0.323631
-0.060362 0.0317403 0.319265
-0.0581171 0.0301234 0.32095
-0.0593333 0.0284817 0.315345
-0.0572667 0.0271061 0.317111
-0.0566841 0.0240171 0.318403
-0.0593078 0.025109 0.314104
-0.0607982 0.0255549 0.313141
-0.0589099 0.0226304 0.314083
-0.0579104 0.0247208 0.314986
-0.0573834 0.0228831 0.315803
-0.0681513 0.048305 0.357344
-0.0122246 0.0175092 0.337539
-0.016259 0.0194132 0.340678
-0.0186754 0.0344599 0.334942
-0.020982 0.0287478 0.339244
-0.0133325 0.034895 0.330029
-0.00584402 0.0284877 0.326703
-0.00874922 0.0326733 0.327579
-0.019501 0.0232988 0.340792
-0.00879116 0.0178924 0.333706
-0.00579156 0.0224938 0.328559
-0.0133881 0.0172719 0.32451
-0.0099052 0.0229638 0.320944
-0.00979343 0.0301987 0.320443
-0.0122662 0.0342972 0.324712
-0.0153234 0.035999 0.328104
-0.0168479 0.0176187 0.331463
-0.0203932 0.0201467 0.335726
-0.0222415 0.0249388 0.337743
-0.023474 0.01838 0.325864
-0.0278047 0.0242169 0.31746
-0.0327529 0.0426733 0.313157
-0.0272535 0.04059 0.315884
-0.0277207 0.0386402 0.314069
-0.0325535 0.040888 0.311437
-0.0227983 0.037265 0.316185
-0.0248012 0.0360687 0.315159
-0.0253119 0.0304305 0.316042
-0.0298352 0.0328681 0.313048
-0.0286827 0.0271604 0.316553
-0.0330018 0.0283517 0.315963
-0.0345457 0.0350632 0.310653
-0.0359648 0.0405517 0.308949
-0.038344 0.0370876 0.30896
-0.037008 0.0421108 0.310805
-0.0232584 0.0293786 0.313197
-0.0193679 0.038445 0.321343
-0.0265109 0.0417515 0.319311
-0.033133 0.0438033 0.3165
-0.0380219 0.0427656 0.313684
-0.0277784 0.0422915 0.323965
-0.0342663 0.0429891 0.321428
-0.0384617 0.041297 0.318604
-0.0297115 0.040086 0.328306
-0.0351552 0.0404294 0.324185
-0.0209699 0.0362165 0.333153
-0.0187259 0.0388461 0.327898
-0.0376772 0.0395989 0.321353
-0.0407727 0.0381956 0.309245
-0.0421976 0.0384561 0.313298
-0.0336154 0.0252366 0.318319
-0.0373375 0.0302164 0.313197
-0.0386607 0.0285835 0.315835
-0.0333469 0.0238259 0.321926
-0.0393595 0.0281147 0.318486
-0.0413356 0.0328149 0.312329
-0.0387803 0.0332698 0.310542
-0.0192333 0.0356598 0.333072
-0.0216258 0.0308557 0.336902
-0.0231132 0.0309551 0.336347
-0.0313562 0.0343395 0.330492
-0.0249686 0.0252696 0.335841
-0.0248493 0.0207568 0.331164
-0.0337277 0.0251996 0.325942
-0.0328423 0.0286791 0.329431
-0.0392095 0.0295958 0.321992
-0.0379839 0.031508 0.324329
-0.0369629 0.036345 0.3253
-0.0414279 0.0333436 0.318621
-0.0424742 0.0327145 0.315574
-0.0415692 0.0380003 0.317817
-0.0399866 0.0336098 0.321295
-0.0395421 0.0369216 0.321189
-0.0594376 0.0501531 0.359557
-0.056764 0.0443747 0.358177
-0.0547939 0.0496006 0.361122
-0.0492853 0.0552932 0.362996
-0.0473687 0.0642925 0.36778
-0.0457999 0.0501587 0.363559
-0.0522024 0.0442094 0.361197
-0.0564696 0.0368476 0.358444
-0.0370873 0.0498139 0.36733
3 1 2 0
3 0 2 3
3 4 5 7
3 7 5 6
3 8 3 9
3 9 3 2
3 11 12 10
3 10 12 8
3 13 11 15
3 15 11 14
3 17 18 16
3 16 18 19
3 21 22 20
3 20 22 23
3 25 26 24
3 24 26 27
3 29 30 28
3 28 30 31
3 32 33 35
3 35 33 34
3 36 37 39
3 39 37 38
3 40 41 5
3 5 41 42
3 5 42 6
3 6 42 43
3 44 33 45
3 45 33 32
3 47 48 46
3 46 48 49
3 51 52 50
3 50 52 53
3 55 51 54
3 54 51 50
3 57 58 56
3 56 58 59
3 60 61 3
3 3 61 0
3 63 64 62
3 62 64 65
3 67 68 66
3 66 68 69
3 71 72 70
3 70 72 73
3 75 76 74
3 74 76 77
3 52 78 53
3 53 78 79
3 81 82 80
3 80 82 83
3 84 85 51
3 51 85 52
3 56 59 86
3 86 59 87
3 88 89 42
3 42 89 43
3 42 41 88
3 88 41 90
3 39 38 91
3 91 38 92
3 93 69 63
3 63 69 68
3 12 60 8
3 8 60 3
3 24 27 68
3 68 27 94
3 95 24 67
3 67 24 68
3 97 98 96
3 96 98 99
3 100 101 103
3 103 101 102
3 105 29 104
3 104 29 28
3 50 53 106
3 106 53 107
3 53 79 107
3 107 79 108
3 110 111 109
3 109 111 112
3 114 4 113
3 113 4 115
3 114 40 4
3 4 40 5
3 35 34 110
3 110 34 116
3 34 117 116
3 116 117 118
3 33 119 34
3 34 119 117
3 33 44 119
3 119 44 120
3 124 125 123
3 123 125 126
3 127 128 13
3 13 128 129
3 32 130 45
3 45 130 131
3 132 93 62
3 62 93 63
3 133 134 136
3 136 134 135
3 138 139 137
3 137 139 140
3 76 141 77
3 77 141 142
3 143 144 19
3 19 144 145
3 147 148 146
3 146 148 71
3 150 151 149
3 149 151 152
3 81 100 82
3 82 100 103
3 100 81 154
3 154 81 153
3 155 156 57
3 57 156 58
3 157 67 146
3 146 67 66
3 158 145 14
3 14 145 15
3 67 157 95
3 95 157 159
3 128 65 129
3 129 65 64
3 161 162 160
3 160 162 163
3 165 166 164
3 164 166 167
3 169 170 168
3 168 170 171
3 173 170 172
3 172 170 169
3 175 176 174
3 174 176 177
3 179 180 178
3 178 180 23
3 181 182 20
3 20 182 183
3 80 184 81
3 81 184 153
3 185 186 187
3 187 186 143
3 157 70 159
3 159 70 188
3 189 134 156
3 156 134 58
3 168 171 138
3 138 171 139
3 146 71 157
3 157 71 70
3 191 192 190
3 190 192 193
3 166 165 48
3 48 165 194
3 195 189 49
3 49 189 156
3 196 197 199
3 199 197 198
3 20 23 181
3 181 23 180
3 145 158 19
3 19 158 16
3 181 180 80
3 80 180 184
3 200 184 179
3 179 184 180
3 201 202 82
3 82 202 83
3 204 205 203
3 203 205 84
3 206 21 183
3 183 21 20
3 178 23 207
3 207 23 22
3 207 208 178
3 178 208 204
3 208 209 204
3 204 209 205
3 211 205 210
3 210 205 209
3 178 204 179
3 179 204 203
3 212 175 87
3 87 175 213
3 85 84 211
3 211 84 205
3 192 216 217
3 216 218 217
3 217 218 219
3 218 17 219
3 219 17 16
3 18 220 19
3 19 220 143
3 221 222 224
3 224 222 223
3 174 225 175
3 175 225 213
3 226 86 213
3 213 86 87
3 219 16 227
3 227 16 158
3 133 212 59
3 59 212 87
3 137 228 150
3 150 228 151
3 192 191 209
3 209 191 210
3 229 193 217
3 217 193 192
3 230 231 227
3 227 231 229
3 232 233 90
3 90 233 88
3 234 235 92
3 92 235 91
3 229 231 233
3 233 231 236
3 46 237 47
3 47 237 238
3 239 190 234
3 234 190 235
3 4 7 115
3 115 7 240
3 241 242 188
3 188 242 159
3 243 244 97
3 97 244 98
3 155 245 46
3 46 245 237
3 75 246 76
3 76 246 247
3 249 124 248
3 248 124 123
3 251 252 250
3 250 252 253
3 110 109 35
3 35 109 254
3 255 32 254
3 254 32 35
3 256 257 153
3 153 257 154
3 62 168 132
3 132 168 138
3 65 169 62
3 62 169 168
3 172 169 128
3 128 169 65
3 128 127 172
3 172 127 258
3 127 259 258
3 258 259 260
3 212 133 261
3 261 133 136
3 262 263 185
3 185 263 186
3 111 264 112
3 112 264 265
3 10 266 267
3 233 232 229
3 229 232 193
3 152 268 69
3 69 268 66
3 174 177 164
3 164 177 140
3 149 152 93
3 93 152 69
3 270 220 269
3 269 220 206
3 268 152 271
3 271 152 151
3 120 44 108
3 108 44 107
3 46 49 155
3 155 49 156
3 56 272 57
3 57 272 273
3 144 274 259
3 259 274 260
3 275 148 142
3 142 148 77
3 147 268 74
3 74 268 271
3 206 276 269
3 269 276 277
3 194 195 48
3 48 195 49
3 58 134 59
3 59 134 133
3 82 103 201
3 201 103 278
3 148 147 77
3 77 147 74
3 246 277 247
3 247 277 276
3 182 181 83
3 83 181 80
3 47 238 280
3 280 238 281
3 226 222 282
3 282 222 221
3 222 225 223
3 223 225 167
3 280 281 223
3 223 281 224
3 164 167 174
3 174 167 225
3 263 262 137
3 137 262 228
3 13 15 127
3 127 15 259
3 219 227 217
3 217 227 229
3 86 226 283
3 283 226 282
3 259 15 144
3 144 15 145
3 243 97 257
3 257 97 154
3 57 273 155
3 155 273 245
3 106 284 50
3 50 284 54
3 242 285 159
3 159 285 95
3 233 236 88
3 88 236 89
3 45 131 106
3 106 131 284
3 252 251 248
3 248 251 249
3 285 25 95
3 95 25 24
3 105 104 286
3 286 104 287
3 271 151 288
3 288 151 228
3 137 150 138
3 138 150 132
3 182 289 160
3 160 289 161
3 290 291 276
3 276 291 292
3 150 149 132
3 132 149 93
3 261 274 176
3 176 274 186
3 143 186 144
3 144 186 274
3 272 56 283
3 283 56 86
3 173 135 189
3 189 135 134
3 110 116 111
3 111 116 37
3 116 118 37
3 37 118 122
3 111 37 264
3 264 37 36
3 286 287 253
3 253 287 250
3 227 158 230
3 230 158 14
3 222 226 225
3 225 226 213
3 146 66 147
3 147 66 268
3 223 167 280
3 280 167 166
3 198 162 199
3 199 162 161
3 44 45 107
3 107 45 106
3 280 166 47
3 47 166 48
3 160 163 290
3 290 163 291
3 37 122 38
3 292 293 276
3 276 293 247
3 283 282 295
3 295 282 294
3 283 295 272
3 272 295 296
3 273 272 297
3 297 272 296
3 245 273 298
3 298 273 297
3 282 221 294
3 294 221 299
3 221 224 299
3 299 224 300
3 300 224 301
3 301 224 281
3 302 303 299
3 299 303 294
3 305 306 304
3 304 306 307
3 308 309 307
3 307 309 304
3 307 306 311
3 311 306 310
3 312 313 311
3 311 313 314
3 310 315 311
3 311 315 312
3 316 303 310
3 310 303 315
3 314 308 311
3 311 308 307
3 317 318 320
3 320 318 319
3 318 317 308
3 308 317 309
3 310 306 316
3 316 306 305
3 305 296 316
3 316 296 295
3 305 321 296
3 296 321 297
3 304 322 305
3 305 322 321
3 322 304 323
3 323 304 309
3 303 316 294
3 294 316 295
3 317 324 309
3 309 324 323
3 322 323 325
3 325 323 326
3 323 324 326
3 326 324 327
3 325 326 328
3 328 326 329
3 328 330 325
3 325 330 331
3 332 329 327
3 327 329 326
3 322 325 321
3 321 325 331
3 321 331 297
3 297 331 298
3 324 317 333
3 333 317 320
3 312 315 334
3 334 315 303
3 334 335 312
3 312 335 313
3 303 302 334
3 334 302 336
3 335 334 337
3 337 334 336
3 335 338 313
3 313 338 339
3 245 298 237
3 237 298 340
3 238 341 281
3 281 341 301
3 341 238 340
3 340 238 237
3 340 330 341
3 341 330 342
3 330 328 342
3 342 328 343
3 341 342 301
3 301 342 344
3 340 298 330
3 330 298 331
3 345 300 344
3 344 300 301
3 345 302 300
3 300 302 299
3 346 336 345
3 345 336 302
3 346 345 347
3 347 345 344
3 348 346 349
3 349 346 347
3 342 343 344
3 344 343 347
3 343 350 347
3 347 350 349
3 336 346 337
3 337 346 348
3 352 337 351
3 351 337 348
3 351 354 353
3 353 354 355
3 351 348 354
3 354 348 349
3 351 353 352
3 352 353 333
3 352 333 338
3 338 333 320
3 338 335 352
3 352 335 337
3 328 329 343
3 343 329 350
3 355 350 332
3 332 350 329
3 355 354 350
3 350 354 349
3 353 355 327
3 327 355 332
3 327 324 353
3 353 324 333
3 308 314 318
3 318 314 319
3 319 339 320
3 320 339 338
3 319 314 339
3 339 314 313
3 136 135 260
3 260 135 258
3 139 165 140
3 140 165 164
3 171 170 194
3 194 170 195
3 170 173 195
3 195 173 189
3 177 176 263
3 263 176 186
3 171 194 139
3 139 194 165
3 136 260 261
3 261 260 274
3 177 263 140
3 140 263 137
3 261 176 212
3 212 176 175
3 135 173 258
3 258 173 172
3 357 358 356
3 356 358 359
3 361 362 360
3 360 362 363
3 360 363 364
3 364 363 365
3 366 367 369
3 369 367 368
3 75 370 246
3 246 370 371
3 372 373 361
3 361 373 362
3 375 376 374
3 374 376 377
3 288 228 379
3 379 228 378
3 380 378 262
3 262 378 228
3 382 383 381
3 381 383 384
3 385 367 373
3 373 367 362
3 75 288 370
3 370 288 379
3 376 375 358
3 358 375 386
3 387 385 359
3 359 385 373
3 388 382 365
3 365 382 389
3 391 392 390
3 390 392 393
3 382 381 389
3 389 381 394
3 395 364 389
3 389 364 365
3 388 365 366
3 366 365 363
3 356 396 357
3 357 396 397
3 372 398 356
3 356 398 396
3 388 366 399
3 399 366 369
3 381 384 374
3 374 384 371
3 356 359 372
3 372 359 373
3 360 400 361
3 361 400 401
3 386 387 358
3 358 387 359
3 362 367 363
3 363 367 366
3 357 397 402
3 402 397 403
3 395 391 404
3 404 391 390
3 391 394 392
3 392 394 377
3 392 402 393
3 393 402 403
3 374 377 381
3 381 377 394
3 364 395 405
3 405 395 404
3 361 401 372
3 372 401 398
3 270 269 399
3 399 269 383
3 400 360 405
3 405 360 364
3 380 368 385
3 385 368 367
3 391 395 394
3 394 395 389
3 392 377 402
3 402 377 376
3 402 376 357
3 357 376 358
3 405 404 407
3 407 404 406
3 405 407 400
3 400 407 408
3 400 408 401
3 401 408 409
3 401 409 398
3 398 409 410
3 404 390 406
3 406 390 411
3 390 393 411
3 411 393 412
3 393 403 412
3 412 403 413
3 414 415 411
3 411 415 406
3 417 418 416
3 416 418 419
3 420 421 417
3 417 421 418
3 418 421 423
3 423 421 422
3 424 425 423
3 423 425 426
3 422 427 423
3 423 427 424
3 426 419 423
3 423 419 418
3 419 428 416
3 416 428 429
3 422 421 430
3 430 421 420
3 420 408 430
3 430 408 407
3 420 431 408
3 408 431 409
3 417 432 420
3 420 432 431
3 433 432 416
3 416 432 417
3 430 415 422
3 422 415 427
3 415 430 406
3 406 430 407
3 434 433 429
3 429 433 416
3 432 433 435
3 435 433 436
3 433 434 436
3 436 434 437
3 435 436 438
3 438 436 439
3 438 440 435
3 435 440 441
3 437 442 436
3 436 442 439
3 435 441 432
3 432 441 431
3 431 441 409
3 409 441 410
3 434 429 444
3 444 429 443
3 429 428 443
3 443 428 445
3 424 427 446
3 446 427 415
3 425 424 447
3 447 424 446
3 415 414 446
3 446 414 448
3 446 448 447
3 447 448 449
3 450 451 447
3 447 451 425
3 445 451 443
3 443 451 450
3 398 410 396
3 396 410 452
3 397 453 403
3 403 453 413
3 453 397 452
3 452 397 396
3 452 440 453
3 453 440 454
3 440 438 454
3 454 438 455
3 453 454 413
3 413 454 456
3 440 452 441
3 441 452 410
3 457 412 456
3 456 412 413
3 457 414 412
3 412 414 411
3 457 458 414
3 414 458 448
3 458 457 459
3 459 457 456
3 460 458 461
3 461 458 459
3 454 455 456
3 456 455 459
3 455 462 459
3 459 462 461
3 458 460 448
3 448 460 449
3 464 449 463
3 463 449 460
3 463 466 465
3 465 466 467
3 463 460 466
3 466 460 461
3 463 465 464
3 464 465 444
3 464 444 450
3 450 444 443
3 450 447 464
3 464 447 449
3 438 439 455
3 455 439 462
3 467 462 442
3 442 462 439
3 467 466 462
3 462 466 461
3 465 467 437
3 437 467 442
3 437 434 465
3 465 434 444
3 419 426 428
3 428 426 445
3 445 426 451
3 451 426 425
3 369 368 187
3 187 368 185
3 370 375 371
3 371 375 374
3 379 378 386
3 386 378 387
3 378 380 387
3 387 380 385
3 384 383 277
3 277 383 269
3 379 386 370
3 370 386 375
3 399 369 270
3 270 369 187
3 384 277 371
3 371 277 246
3 399 383 388
3 388 383 382
3 368 380 185
3 185 380 262
3 220 270 143
3 143 270 187
3 220 18 206
3 206 18 21
3 18 17 21
3 21 17 22
3 17 218 22
3 22 218 207
3 468 469 471
3 471 469 470
3 473 474 472
3 472 474 475
3 472 475 476
3 476 475 477
3 479 480 478
3 478 480 481
3 482 483 473
3 473 483 474
3 485 486 484
3 484 486 487
3 488 489 76
3 76 489 141
3 490 488 247
3 247 488 76
3 492 493 491
3 491 493 494
3 495 479 483
3 483 479 474
3 485 496 486
3 486 496 470
3 497 495 471
3 471 495 483
3 498 492 477
3 477 492 499
3 500 501 503
3 503 501 502
3 492 491 499
3 499 491 504
3 505 476 499
3 499 476 477
3 498 477 478
3 478 477 475
3 468 506 469
3 469 506 507
3 482 508 468
3 468 508 506
3 478 481 498
3 498 481 509
3 491 494 484
3 484 494 510
3 482 468 483
3 483 468 471
3 472 511 473
3 473 511 512
3 496 497 470
3 470 497 471
3 474 479 475
3 475 479 478
3 469 507 513
3 513 507 514
3 505 501 515
3 515 501 500
3 502 501 487
3 487 501 504
3 513 514 502
3 502 514 503
3 484 487 491
3 491 487 504
3 476 505 516
3 516 505 515
3 473 512 482
3 482 512 508
3 509 291 493
3 493 291 163
3 511 472 516
3 516 472 476
3 490 480 495
3 495 480 479
3 501 505 504
3 504 505 499
3 502 487 513
3 513 487 486
3 513 486 469
3 469 486 470
3 516 515 518
3 518 515 517
3 516 518 511
3 511 518 519
3 511 519 512
3 512 519 520
3 512 520 508
3 508 520 521
3 515 500 517
3 517 500 522
3 500 503 522
3 522 503 523
3 523 503 524
3 524 503 514
3 525 526 522
3 522 526 517
3 528 529 527
3 527 529 530
3 531 532 528
3 528 532 529
3 529 532 534
3 534 532 533
3 535 536 534
3 534 536 537
3 533 538 534
3 534 538 535
3 537 530 534
3 534 530 529
3 539 540 530
3 530 540 527
3 532 531 533
3 533 531 541
3 531 519 541
3 541 519 518
3 531 542 519
3 519 542 520
3 528 543 531
3 531 543 542
3 543 528 544
3 544 528 527
3 533 541 538
3 538 541 526
3 526 541 517
3 517 541 518
3 540 545 527
3 527 545 544
3 546 543 547
3 547 543 544
3 545 548 544
3 544 548 547
3 549 546 550
3 550 546 547
3 546 549 552
3 552 549 551
3 548 553 547
3 547 553 550
3 543 546 542
3 542 546 552
3 542 552 520
3 520 552 521
3 545 540 555
3 555 540 554
3 540 539 554
3 554 539 556
3 535 538 557
3 557 538 526
3 536 535 558
3 558 535 557
3 526 525 557
3 557 525 559
3 558 557 560
3 560 557 559
3 558 561 536
3 536 561 562
3 556 562 554
3 554 562 561
3 508 521 506
3 506 521 563
3 507 564 514
3 514 564 524
3 564 507 563
3 563 507 506
3 563 551 564
3 564 551 565
3 551 549 565
3 565 549 566
3 564 565 524
3 524 565 567
3 563 521 551
3 551 521 552
3 568 523 567
3 567 523 524
3 568 525 523
3 523 525 522
3 569 559 568
3 568 559 525
3 569 568 570
3 570 568 567
3 571 569 572
3 572 569 570
3 565 566 567
3 567 566 570
3 566 573 570
3 570 573 572
3 569 571 559
3 559 571 560
3 575 560 574
3 574 560 571
3 574 577 576
3 576 577 578
3 574 571 577
3 577 571 572
3 574 576 575
3 575 576 555
3 575 555 561
3 561 555 554
3 561 558 575
3 575 558 560
3 549 550 566
3 566 550 573
3 578 573 553
3 553 573 550
3 578 577 573
3 573 577 572
3 578 553 576
3 576 553 548
3 548 545 576
3 576 545 555
3 530 537 539
3 539 537 556
3 556 537 562
3 562 537 536
3 480 293 481
3 481 293 292
3 579 485 510
3 510 485 484
3 489 488 496
3 496 488 497
3 488 490 497
3 497 490 495
3 162 494 163
3 163 494 493
3 579 489 485
3 485 489 496
3 481 292 509
3 509 292 291
3 494 162 510
3 510 162 198
3 493 492 509
3 509 492 498
3 480 490 293
3 293 490 247
3 581 582 580
3 580 582 583
3 585 586 584
3 584 586 587
3 584 587 588
3 588 587 589
3 591 592 590
3 590 592 593
3 594 595 597
3 597 595 596
3 598 599 585
3 585 599 586
3 600 601 603
3 603 601 602
3 604 605 607
3 607 605 606
3 608 606 199
3 199 606 605
3 609 610 612
3 612 610 611
3 599 613 586
3 586 613 591
3 595 604 596
3 596 604 607
3 601 614 602
3 602 614 582
3 615 613 583
3 583 613 599
3 610 617 616
3 616 617 589
3 619 620 618
3 618 620 621
3 609 622 610
3 610 622 617
3 623 588 617
3 617 588 589
3 616 589 590
3 590 589 587
3 580 624 581
3 581 624 625
3 598 626 580
3 580 626 624
3 590 593 616
3 616 593 627
3 600 609 597
3 597 609 612
3 580 583 598
3 598 583 599
3 584 628 585
3 585 628 629
3 614 615 582
3 582 615 583
3 586 591 587
3 587 591 590
3 581 625 630
3 630 625 631
3 623 619 632
3 632 619 618
3 620 619 603
3 603 619 622
3 630 631 620
3 620 631 621
3 609 600 622
3 622 600 603
3 588 623 633
3 633 623 632
3 585 629 598
3 598 629 626
3 202 201 627
3 627 201 611
3 628 584 633
3 633 584 588
3 608 592 613
3 613 592 591
3 619 623 622
3 622 623 617
3 630 620 602
3 602 620 603
3 581 630 582
3 582 630 602
3 633 632 635
3 635 632 634
3 633 635 628
3 628 635 636
3 628 636 629
3 629 636 637
3 629 637 626
3 626 637 638
3 632 618 634
3 634 618 639
3 618 621 639
3 639 621 640
3 640 621 641
3 641 621 631
3 643 634 642
3 642 634 639
3 644 645 647
3 647 645 646
3 648 649 645
3 645 649 646
3 646 649 651
3 651 649 650
3 651 652 654
3 654 652 653
3 650 655 651
3 651 655 652
3 654 647 651
3 651 647 646
3 647 656 644
3 644 656 657
3 649 648 650
3 650 648 658
3 648 636 658
3 658 636 635
3 648 659 636
3 636 659 637
3 660 659 645
3 645 659 648
3 661 660 644
3 644 660 645
3 650 658 655
3 655 658 643
3 643 658 634
3 634 658 635
3 662 661 657
3 657 661 644
3 663 660 664
3 664 660 661
3 662 665 661
3 661 665 664
3 666 663 667
3 667 663 664
3 663 666 669
3 669 666 668
3 665 670 664
3 664 670 667
3 660 663 659
3 659 663 669
3 659 669 637
3 637 669 638
3 657 671 662
3 662 671 672
3 657 656 671
3 671 656 673
3 652 655 674
3 674 655 643
3 652 674 653
3 653 674 675
3 674 643 676
3 676 643 642
3 675 674 677
3 677 674 676
3 678 679 675
3 675 679 653
3 673 679 671
3 671 679 678
3 626 638 624
3 624 638 680
3 625 681 631
3 631 681 641
3 680 681 624
3 624 681 625
3 668 682 680
3 680 682 681
3 666 683 668
3 668 683 682
3 681 682 641
3 641 682 684
3 680 638 668
3 668 638 669
3 685 640 684
3 684 640 641
3 640 685 639
3 639 685 642
3 685 686 642
3 642 686 676
3 686 685 687
3 687 685 684
3 688 686 689
3 689 686 687
3 682 683 684
3 684 683 687
3 683 690 687
3 687 690 689
3 686 688 676
3 676 688 677
3 692 677 691
3 691 677 688
3 691 694 693
3 693 694 695
3 691 688 694
3 694 688 689
3 691 693 692
3 692 693 672
3 692 672 678
3 678 672 671
3 678 675 692
3 692 675 677
3 683 666 690
3 690 666 667
3 695 690 670
3 670 690 667
3 695 694 690
3 690 694 689
3 693 695 665
3 665 695 670
3 665 662 693
3 693 662 672
3 647 654 656
3 656 654 673
3 673 654 679
3 679 654 653
3 592 161 593
3 593 161 289
3 597 596 600
3 600 596 601
3 614 607 615
3 615 607 606
3 606 608 615
3 615 608 613
3 696 594 612
3 612 594 597
3 596 607 601
3 601 607 614
3 593 289 627
3 627 289 202
3 627 611 616
3 616 611 610
3 592 608 161
3 161 608 199
3 104 28 697
3 697 28 698
3 267 125 700
3 700 125 699
3 125 124 699
3 699 124 701
3 251 702 249
3 249 702 703
3 31 267 704
3 704 267 700
3 287 104 705
3 705 104 697
3 28 31 698
3 698 31 704
3 706 250 705
3 705 250 287
3 249 703 124
3 124 703 701
3 702 251 706
3 706 251 250
3 705 707 706
3 706 707 708
3 706 708 702
3 702 708 709
3 702 709 703
3 703 709 710
3 703 710 701
3 701 710 711
3 705 697 707
3 707 697 712
3 697 698 712
3 712 698 713
3 698 704 713
3 713 704 714
3 716 707 715
3 715 707 712
3 718 719 717
3 717 719 720
3 721 722 718
3 718 722 719
3 723 724 722
3 722 724 719
3 723 725 724
3 724 725 726
3 727 720 724
3 724 720 719
3 720 727 728
3 728 727 729
3 728 730 720
3 720 730 717
3 723 722 731
3 731 722 721
3 721 709 731
3 731 709 708
3 721 732 709
3 709 732 710
3 718 733 721
3 721 733 732
3 733 718 734
3 734 718 717
3 723 731 725
3 725 731 716
3 716 731 707
3 707 731 708
3 730 735 717
3 717 735 734
3 736 733 737
3 737 733 734
3 735 738 734
3 734 738 737
3 739 736 740
3 740 736 737
3 736 739 742
3 742 739 741
3 738 743 737
3 737 743 740
3 733 736 732
3 732 736 742
3 732 742 710
3 710 742 711
3 735 730 745
3 745 730 744
3 730 728 744
3 744 728 729
3 726 725 746
3 746 725 716
3 747 726 748
3 748 726 746
3 746 716 749
3 749 716 715
3 748 746 750
3 750 746 749
3 748 751 747
3 747 751 752
3 729 752 744
3 744 752 751
3 727 724 747
3 747 724 726
3 729 727 752
3 752 727 747
3 699 701 753
3 753 701 711
3 704 700 714
3 714 700 754
3 753 754 699
3 699 754 700
3 741 755 753
3 753 755 754
3 739 756 741
3 741 756 755
3 754 755 714
3 714 755 757
3 753 711 741
3 741 711 742
3 758 713 757
3 757 713 714
3 713 758 712
3 712 758 715
3 758 759 715
3 715 759 749
3 759 758 760
3 760 758 757
3 761 759 762
3 762 759 760
3 755 756 757
3 757 756 760
3 756 763 760
3 760 763 762
3 759 761 749
3 749 761 750
3 765 750 764
3 764 750 761
3 766 764 768
3 768 764 767
3 764 761 767
3 767 761 762
3 764 766 765
3 765 766 745
3 765 745 751
3 751 745 744
3 751 748 765
3 765 748 750
3 756 739 763
3 763 739 740
3 768 763 743
3 743 763 740
3 768 767 763
3 763 767 762
3 766 768 738
3 738 768 743
3 738 735 766
3 766 735 745
3 218 216 207
3 207 216 208
3 208 216 209
3 209 216 192
3 197 579 198
3 198 579 510
3 75 74 288
3 288 74 271
3 276 206 290
3 290 206 183
3 289 182 202
3 202 182 83
3 489 579 141
3 141 579 197
3 141 197 142
3 142 197 196
3 148 275 71
3 71 275 72
3 103 102 278
3 278 102 769
3 769 595 278
3 278 595 594
3 604 595 770
3 770 595 769
3 770 769 771
3 771 769 102
3 771 102 772
3 772 102 101
3 154 773 100
3 100 773 101
3 772 101 96
3 96 101 773
3 774 772 99
3 99 772 96
3 772 774 771
3 771 774 775
3 771 775 770
3 770 775 776
3 199 605 196
3 196 605 776
3 188 70 777
3 777 70 73
3 96 773 97
3 97 773 154
3 182 160 183
3 183 160 290
3 776 275 196
3 196 275 142
3 776 605 770
3 770 605 604
3 612 611 696
3 696 611 201
3 594 696 278
3 278 696 201
3 72 275 775
3 775 275 776
3 775 774 72
3 72 774 73
3 99 777 774
3 774 777 73
3 777 99 188
3 188 99 98
3 244 241 98
3 98 241 188
3 130 32 255
3 27 0 94
3 94 0 61
3 26 1 27
3 27 1 0
3 264 114 265
3 265 114 113
3 94 61 68
3 68 61 63
3 61 60 63
3 63 60 64
3 60 12 64
3 64 12 129
3 12 11 129
3 129 11 13
3 30 10 31
3 31 10 267
3 14 11 30
3 30 11 10
3 30 29 14
3 14 29 230
3 29 105 230
3 230 105 231
3 286 236 105
3 105 236 231
3 253 89 286
3 286 89 236
3 252 43 253
3 253 43 89
3 252 248 43
3 43 248 6
3 266 126 267
3 267 126 125
3 9 2 240
3 240 2 115
3 2 1 115
3 115 1 113
3 1 26 113
3 113 26 265
3 26 25 265
3 265 25 112
3 25 285 112
3 112 285 109
3 285 242 109
3 109 242 254
3 242 241 254
3 254 241 255
3 241 244 255
3 255 244 130
3 244 243 130
3 130 243 131
3 264 36 114
3 114 36 40
3 40 36 41
3 41 36 39
3 91 90 39
3 39 90 41
3 235 232 91
3 91 232 90
3 190 193 235
3 235 193 232
3 257 284 243
3 243 284 131
3 256 54 257
3 257 54 284
3 256 153 200
3 200 153 184
3 55 200 203
3 203 200 179
3 54 256 55
3 55 256 200
3 203 84 55
3 55 84 51
3 85 121 52
3 52 121 78
3 211 214 85
3 85 214 121
3 210 215 211
3 211 215 214
3 191 279 210
3 210 279 215
3 190 239 191
3 191 239 279
3 248 123 6
3 6 123 7
3 123 126 7
3 7 126 240
3 126 266 240
3 240 266 9
3 9 266 8
3 8 266 10
