ply
format ascii 1.0
element vertex 778
property float x
property float y
property float z
element face 1538
property list uchar int vertex_indices
end_header
-0.0302438 0.0471583 0.505897
-0.0344457 0.0569711 0.507147
-0.0249368 0.0540175 0.501301
-0.0214679 0.0455814 0.50175
-0.0313798 0.0760165 0.497026
-0.0258698 0.0860333 0.499578
-0.013156 0.0757947 0.492673
-0.0183888 0.0683162 0.489968
-0.0125744 0.0426671 0.499935
-0.0172612 0.050805 0.497235
-0.00664201 0.0429554 0.504205
-0.00260575 0.0346071 0.509376
-0.00796734 0.0352726 0.50294
-0.000329692 0.0268115 0.509993
-0.00252526 0.0376301 0.521401
-0.00156856 0.0221686 0.519037
-0.0260389 0.0284197 0.536198
-0.0399985 0.0260543 0.53751
-0.0356108 0.00999669 0.530261
-0.0219844 0.0149679 0.528455
-0.0572392 0.0143916 0.531353
-0.0452946 0.0107226 0.53026
-0.0494508 0.0259207 0.538795
-0.0598734 0.0282447 0.539301
-0.0458296 0.0484682 0.511273
-0.0505588 0.0584012 0.51414
-0.0449939 0.0577411 0.512689
-0.04035 0.0484075 0.510281
0.000992082 0.0514424 0.509479
-0.00203152 0.0540123 0.516654
-0.00330861 0.0462526 0.512519
-0.00117293 0.0484676 0.50471
-0.0711616 0.0806879 0.517126
-0.0721145 0.0900082 0.527442
-0.0659605 0.0916829 0.528197
-0.0662723 0.0823902 0.51863
-0.0430402 0.0953326 0.518462
-0.0472347 0.0981692 0.528403
-0.0374763 0.102561 0.539411
-0.0316093 0.0980211 0.532562
-0.0347896 0.0913756 0.507829
-0.0258872 0.0953644 0.518986
-0.019357 0.0899018 0.508832
-0.007998 0.0792862 0.500738
-0.0851517 0.0855317 0.530292
-0.0862937 0.0783798 0.522489
-0.00541608 0.00581936 0.468945
-0.0116819 0.00521372 0.46867
-0.0115329 0.00578335 0.471614
-0.00529807 0.00602338 0.471428
-0.0920093 0.0690683 0.542247
-0.0889053 0.064557 0.551338
-0.0911305 0.0712998 0.553351
-0.0928825 0.0768301 0.544959
-0.0911808 0.059179 0.53876
-0.084025 0.0554263 0.548665
-0.00142171 -0.00429593 0.469245
-4.78591e-05 0.00095049 0.468691
0.0011435 -0.000178795 0.473591
-0.00039322 -0.00522747 0.474884
-0.0164291 0.0373633 0.500612
-0.0260459 0.0387054 0.502264
-0.0120604 0.0215506 0.495141
-0.0181167 0.0272064 0.499052
-0.0113481 0.0295779 0.499956
-0.00653985 0.0245738 0.498076
-0.0422961 0.0267918 0.503589
-0.0455461 0.0370563 0.508161
-0.0389674 0.0367241 0.506963
-0.0334446 0.0261041 0.501292
-0.0608829 0.0366758 0.50688
-0.0559193 0.0261691 0.502744
-0.0654711 0.026686 0.502338
-0.06761 0.0346264 0.50439
-0.0448667 0.00874875 0.497281
-0.0427803 0.00338433 0.495756
-0.0457854 0.00309454 0.494313
-0.0487686 0.00870982 0.497297
-0.0935326 0.0777747 0.556593
-0.0928508 0.0841809 0.547754
-0.0800382 0.0194022 0.528299
-0.0882847 0.0254716 0.523484
-0.0884742 0.0141203 0.517561
-0.0787621 0.0105066 0.525112
-0.0795364 0.0613196 0.55812
-0.0846409 0.0674591 0.560768
-0.00583205 -0.00863968 0.469507
-0.00515577 -0.00985692 0.475362
-0.0149866 0.0873423 0.522923
-0.00449568 0.0781299 0.510325
-0.0229318 0.0924743 0.534808
-0.0294674 0.0941175 0.544393
-0.0332238 0.0981671 0.5509
-0.02256 0.0228617 0.497525
-0.0344297 0.0409637 0.506371
-0.050892 0.0483242 0.511477
-0.0838579 0.0429266 0.506027
-0.0860925 0.0534915 0.509595
-0.0750984 0.0521117 0.506525
-0.075193 0.0432001 0.504588
-0.091969 0.0294693 0.513994
-0.0877082 0.0308622 0.506176
-0.0865851 0.0219119 0.50298
-0.0906634 0.0190888 0.509747
0.00481827 0.0583313 0.511354
-0.000665233 0.0615819 0.518656
-0.0916467 0.0747553 0.532737
-0.0904265 0.0820954 0.535914
-0.0897709 0.0888789 0.541838
-0.0596371 0.070791 0.514429
-0.0627083 0.0838528 0.519456
-0.0584605 0.0850462 0.517474
-0.0564125 0.0707138 0.51485
-0.040133 0.0679196 0.504974
-0.0441114 0.0819167 0.50606
-0.0298923 0.062234 0.497889
-0.0580487 0.0954304 0.528922
-0.0673682 0.100403 0.534425
-0.0581327 0.102943 0.535065
-0.0773343 0.0966487 0.535603
-0.0855179 0.0926299 0.53828
-0.0883323 0.0723339 0.567279
-0.0491425 0.103977 0.537677
-0.0088561 0.0638426 0.488888
-0.000498083 0.0604426 0.489069
-0.00350704 0.0528445 0.491731
-0.0107392 0.0553758 0.491977
0.0017793 0.0180001 0.50762
-0.000920311 0.0227114 0.501099
-0.00422356 0.0309576 0.504238
-0.0738582 0.0697184 0.511882
-0.0868856 0.0684521 0.51678
-0.0163393 0.0169806 0.49365
0.000209819 -0.00485415 0.48083
0.0017975 0.000697729 0.47828
0.0025681 0.00911652 0.49467
0.000804666 0.00228813 0.497901
-0.0178037 0.00716871 0.493715
-0.0158159 0.0134562 0.491946
-0.0157822 0.0116019 0.490886
-0.0193955 0.00607192 0.490851
-0.0550273 0.00469423 0.49554
-0.0579643 0.00993383 0.498061
-0.0190837 0.00376944 0.516846
-0.00562263 0.00769503 0.520705
-0.00910563 0.0184637 0.526959
-0.0499456 0.0268394 0.503895
-0.0476575 0.0171754 0.499755
-0.0524259 0.0167006 0.499821
-0.0244336 0.0188666 0.496557
-0.0205897 0.0129308 0.49407
-0.0257874 0.0132563 0.496253
-0.0300235 0.0184423 0.497865
-0.0899706 0.0367892 0.530273
-0.093975 0.0418365 0.51875
-0.00124 0.00441973 0.468616
-0.000345316 0.00403578 0.472143
-0.0531194 0.0372676 0.508168
-0.0146783 0.0322363 0.532551
-0.0572271 0.0480671 0.51138
-0.0629756 -0.00108312 0.515571
-0.0669899 0.000412834 0.509254
-0.0637688 -0.00309135 0.503364
-0.0609641 -0.00692072 0.507412
-0.0193903 -0.00151774 0.478762
-0.0174992 0.00279537 0.475103
-0.0168806 0.00221985 0.472783
-0.0186401 -0.00286834 0.474776
-0.0112907 0.0170209 0.491978
-0.0051593 0.019129 0.493423
-0.00576567 0.0158658 0.488981
-0.0116775 0.0138938 0.489273
5.48099e-05 0.0173134 0.496921
-5.78019e-05 0.0141001 0.49179
-0.0176521 -0.00635708 0.481464
-0.011337 -0.00993395 0.482826
-0.0117174 -0.00314889 0.498793
-0.017542 -0.000542994 0.493494
-0.0625296 0.0411847 0.547749
-0.0744428 0.042169 0.545525
-0.0721475 0.0294945 0.537174
-0.0701586 0.0162833 0.530069
-0.0676869 0.0049565 0.522748
-0.0557017 0.00107157 0.525563
-0.0804922 0.0317272 0.535568
-0.0198662 0.00309473 0.502092
-0.0129842 0.00155685 0.508821
-0.0192798 0.00129426 0.508347
-0.0652331 0.0477437 0.509074
7.40734e-05 0.00490276 0.476072
-0.0372112 0.0780977 0.56088
-0.0482732 0.0708022 0.564832
-0.0444763 0.0644097 0.559748
-0.0320137 0.0735779 0.554231
-0.0118605 0.00623504 0.473061
-0.00512856 0.00754286 0.473632
-0.0652301 0.00724183 0.497678
-0.0612468 0.0029666 0.495911
-0.0633917 0.000232656 0.497074
-0.069727 0.00280752 0.497532
-0.0805292 0.0441994 0.54436
-0.0877028 0.00640548 0.513858
-0.0802235 0.00375651 0.520983
-0.0758104 0.0532623 0.55324
-0.0655804 0.0523837 0.555609
-0.0682588 0.0604715 0.561
-0.0414044 -0.00223442 0.5189
-0.053172 0.0395203 0.547487
-0.0571002 0.0517399 0.555042
-0.0597612 0.0613308 0.561876
-0.0625447 0.0677249 0.566805
-0.0711824 0.0663618 0.565815
-0.00503546 -0.00880207 0.482046
-0.0121071 -0.0114604 0.475428
-0.074961 0.0719731 0.572359
-0.0652148 0.0734935 0.573122
-0.0473934 0.0522462 0.554294
-0.036139 0.0543334 0.551842
-0.0440922 0.0401872 0.54625
-0.0325111 0.041095 0.543862
-0.0313715 -0.0011405 0.524729
-0.0178681 -0.00592311 0.457338
-0.0177443 -0.00739302 0.46913
-0.0188461 -0.00292443 0.469438
-0.0201668 -0.00327874 0.457611
-0.0176403 -0.00763123 0.475361
-0.0130036 -0.00979007 0.469517
-0.01945 0.0464794 0.538298
-0.0227847 0.00795165 0.494761
-0.023018 0.0639482 0.543547
-0.00581018 0.0492943 0.529438
-0.0087364 0.063125 0.530855
-0.0243843 0.0821533 0.547434
-0.0138657 0.0785614 0.535335
-0.0342283 0.0906205 0.55961
-0.0301707 0.08536 0.554342
-0.00567464 0.0742995 0.523239
-0.00969874 0.00700324 0.458627
-0.0156355 0.00551001 0.45941
-0.0401964 0.0835425 0.56626
-0.0196827 0.0578714 0.493816
-0.0661049 0.0588075 0.510907
-0.0601057 0.058903 0.51272
-0.0863807 0.0593109 0.512133
-0.0744717 0.0599267 0.509033
-0.00473831 0.00549265 0.458052
-0.0425079 -0.000573541 0.496538
-0.0434368 4.94092e-05 0.496758
-0.00472354 0.0703144 0.491649
0.00203998 0.0673008 0.491531
0.00842877 0.0683217 0.503419
0.00630594 0.0695383 0.496161
-7.94682e-05 0.074199 0.498557
0.00218409 0.0731354 0.506233
-0.0628496 0.0702244 0.513575
-0.0670856 0.0696006 0.512577
-0.0908476 0.0485016 0.534899
-0.0944503 0.0532174 0.523419
0.00204968 0.0126751 0.501556
0.000326972 0.0118877 0.513263
0.00022348 0.00692476 0.506025
-0.00402593 -0.00137936 0.501288
-0.0214301 0.00417896 0.496794
-0.0176765 0.00294175 0.499286
-0.0515656 0.0839661 0.511853
-0.0497142 0.0700384 0.512241
-0.00996932 0.0495894 0.496894
-0.00377249 0.0476069 0.497564
-0.038184 0.0192608 0.499763
-0.037289 -0.00578788 0.507274
-0.0296488 -0.00536187 0.512263
-0.0349762 0.0111014 0.497317
-0.00424545 -0.00161273 0.45717
-0.00325624 0.00302358 0.457528
-0.00400931 0.0026824 0.509436
-0.0616987 0.0170732 0.499094
-0.0440864 -0.00398054 0.510338
-0.0415786 -0.00485631 0.501471
-0.0895055 0.0130265 0.506911
-0.0511678 0.0771895 0.570031
-0.0175392 0.00175283 0.46861
-0.019584 0.00220272 0.459746
-0.0139272 -0.00737005 0.457841
-0.00813446 -0.0065682 0.458337
-0.0928394 0.0636272 0.526663
-0.0558827 0.0582122 0.513467
0.000293098 0.0691023 0.515151
0.00735087 0.0643419 0.509523
-0.0331337 0.00672505 0.496105
-0.0709712 0.00191925 0.516793
-0.0543479 -0.00517471 0.51699
-0.0523246 -0.0106125 0.508616
-0.0455056 -0.00965896 0.504414
-0.0425829 -0.00585924 0.498742
-0.0155954 -0.00545149 0.45223
-0.00950037 -0.0051827 0.452615
-0.00524533 -0.00051676 0.451498
-0.00439934 0.00399862 0.452003
-0.00632735 0.00625996 0.454067
-0.0193845 -0.00439658 0.451271
-0.0212986 -0.00220053 0.45197
-0.0203863 0.00250158 0.455716
-0.0208437 -0.00245834 0.446767
-0.0165906 -0.00296178 0.44341
-0.00809751 0.00619202 0.437806
-0.00734717 0.00237637 0.442827
-0.0089628 0.00191182 0.440099
-0.0101675 0.00450074 0.435588
-0.0118208 0.00599546 0.43067
-0.009713 0.00824941 0.432178
-0.0115242 -0.00120803 0.441918
-0.0137474 0.00174633 0.435706
-0.0180379 0.000386876 0.436545
-0.0195699 0.00218517 0.431271
-0.0156707 0.00339957 0.430136
-0.0157165 -0.00136387 0.440461
-0.0110977 -0.00231292 0.44418
-0.0133073 0.00902398 0.428201
-0.0135895 0.00650485 0.427767
-0.0169741 0.00481827 0.427427
-0.0180812 0.00747318 0.426117
-0.005513 0.00564865 0.447353
-0.00781773 0.00847339 0.439144
-0.0113759 0.010611 0.434034
-0.0146212 0.0107525 0.429754
-0.0108804 0.0105615 0.439742
-0.0137537 0.0112673 0.434996
-0.0169577 0.0113978 0.431865
-0.0148212 0.0113671 0.440254
-0.0168918 0.0115884 0.436144
-0.0109098 0.00776773 0.451963
-0.0068433 0.00749853 0.450846
-0.0184818 0.0118399 0.433253
-0.0195909 0.0088361 0.426952
-0.0206701 -0.00029366 0.439261
-0.0222411 0.00297496 0.432741
-0.0226895 0.000385542 0.440434
-0.0239735 0.00348677 0.43413
-0.0226392 0.00458987 0.428014
-0.0198838 0.00377855 0.428731
-0.0108593 0.00677102 0.456031
-0.016778 0.00530506 0.456234
-0.017375 0.00623289 0.452764
-0.0198303 0.00998021 0.441162
-0.0210427 0.00364399 0.451567
-0.0225488 -8.75474e-05 0.447523
-0.0240563 0.00273111 0.440596
-0.023777 0.00552219 0.441287
-0.0248223 0.00532077 0.435468
-0.0238951 0.0073307 0.436397
-0.021071 0.0105778 0.436422
-0.0239386 0.00765516 0.431243
-0.0236834 0.00591568 0.429466
-0.0205864 0.0100678 0.430095
-0.0238396 0.00847747 0.433396
-0.0209874 0.0102761 0.432822
-0.0272808 -9.82539e-05 0.46925
-0.034155 -9.91331e-05 0.469924
-0.033217 -0.00194069 0.472925
-0.0274201 -0.00137706 0.472877
-0.0232838 -0.0138686 0.463605
-0.0221566 -0.00721475 0.466053
-0.0211474 -0.00981555 0.470469
-0.0227969 -0.0171208 0.468971
-0.0294331 -0.0187449 0.464303
-0.0291991 -0.0217487 0.470311
-0.021703 -0.0171955 0.475482
-0.0205137 -0.00983553 0.476061
-0.0204674 -0.00112667 0.496055
-0.0218464 -0.00715866 0.497938
-0.0393818 0.00291411 0.49277
-0.0409131 -6.21186e-05 0.493457
-0.0241772 -0.00227958 0.468084
-0.0233912 -0.00451589 0.4722
-0.0412141 -0.00688503 0.475732
-0.0372527 -0.00247511 0.475357
-0.0376026 -0.00289933 0.473353
-0.0411092 -0.00734264 0.47268
-0.0258695 0.00528242 0.493747
-0.0326217 0.00430338 0.493321
-0.0226028 0.00305337 0.494498
-0.0414598 -0.013467 0.476413
-0.0374412 -0.0192414 0.476508
-0.0368094 -0.0115218 0.497632
-0.0411423 -0.00795053 0.494932
-0.0222428 -0.00486434 0.475995
-0.0317554 -0.000774044 0.474156
-0.0262718 -0.000965315 0.475111
-0.0287299 -0.0204597 0.477191
-0.0378617 -0.0191871 0.46969
-0.0417725 -0.00581477 0.454479
-0.0417203 -0.0107514 0.465524
-0.0416464 -0.00570417 0.467648
-0.0433049 -0.00115428 0.456153
-0.0416613 -0.0132353 0.471342
-0.0378937 -0.0155526 0.464322
-0.0311224 0.00683437 0.456969
-0.0378218 0.00654319 0.458185
-0.0274964 0.00446627 0.454983
-0.0281232 -0.0114908 0.499314
-0.0260339 -0.00638881 0.452278
-0.0254475 0.0005068 0.454031
-0.0390538 -0.00140439 0.470179
-0.0417295 0.00387662 0.457827
-0.0384475 -0.00925932 0.452789
-0.0312606 -0.0111949 0.452492
-0.0384928 -0.00614472 0.447345
-0.0322404 -0.00698813 0.446654
-0.0268867 -0.00273986 0.44724
-0.0264511 0.00302963 0.449887
-0.0285293 0.00618548 0.452437
-0.041607 -0.00320782 0.449078
-0.0434052 0.00146731 0.451326
-0.041598 0.00509369 0.455238
-0.0430678 0.00267436 0.445137
-0.040417 0.000767049 0.441167
-0.029443 0.0155748 0.435551
-0.0284901 0.0103939 0.438568
-0.0301839 0.00921075 0.437036
-0.0312404 0.013745 0.433984
-0.0283251 0.00386083 0.440543
-0.0302102 0.00445167 0.438817
-0.0342498 0.00190803 0.438557
-0.0349672 0.00757974 0.436169
-0.039863 0.00712606 0.43777
-0.0411096 0.0115863 0.433809
-0.0362194 0.0120746 0.432371
-0.0383331 0.00305595 0.438997
-0.0326844 0.0164391 0.432044
-0.0326971 0.0192873 0.43247
-0.0334247 -0.000984091 0.439843
-0.0266152 0.00535578 0.446308
-0.0281581 0.0125684 0.441027
-0.0303636 0.0182223 0.437742
-0.0348792 0.0213038 0.43461
-0.0303934 0.0156177 0.443683
-0.0325767 0.0201843 0.439767
-0.036426 0.0218399 0.437239
-0.0343817 0.0175545 0.446675
-0.0366704 0.0210326 0.442638
-0.0325906 0.00952732 0.4536
-0.0284643 0.00833699 0.450825
-0.0375374 0.0217666 0.440091
-0.0374309 0.0177283 0.430675
-0.0387028 0.0204952 0.432874
-0.0369208 0.015916 0.430894
-0.0418704 0.00705967 0.439048
-0.0426368 0.0127125 0.435309
-0.0439617 0.00889186 0.44111
-0.0438932 0.0147284 0.436681
-0.0420471 0.0162541 0.432178
-0.0407752 0.0152252 0.431212
-0.0323936 0.00751958 0.454723
-0.0381056 0.00711647 0.456096
-0.0383015 0.00881876 0.455136
-0.0399215 0.0166684 0.447627
-0.0422742 0.00674458 0.4536
-0.0440318 0.00514455 0.4484
-0.0446004 0.0104711 0.443531
-0.0434509 0.0139982 0.446088
-0.0450607 0.0158696 0.43886
-0.0440149 0.0171342 0.441835
-0.040557 0.0201729 0.443224
-0.0432726 0.0194225 0.4357
-0.0427553 0.0180192 0.433433
-0.0394938 0.021356 0.435571
-0.0432174 0.0195752 0.438838
-0.0401529 0.0214346 0.439121
-0.0453052 -0.00740544 0.470991
-0.0517501 -0.00539653 0.472513
-0.0518723 -0.00555414 0.474358
-0.0454936 -0.00736268 0.473836
-0.0449033 -0.0214195 0.470772
-0.042776 -0.0167296 0.469695
-0.0416281 -0.0171177 0.474338
-0.0432711 -0.0225179 0.476559
-0.0506787 -0.0233545 0.470381
-0.0500581 -0.025613 0.478681
-0.0427971 -0.0211674 0.483001
-0.0413021 -0.0163726 0.479153
-0.0424326 -0.00850771 0.494457
-0.0440628 -0.0142107 0.498219
-0.0428895 -0.0116939 0.470089
-0.0422279 -0.0116336 0.473496
-0.0603505 -0.00924374 0.478995
-0.0570398 -0.00570582 0.477037
-0.0572161 -0.00685995 0.474965
-0.0598292 -0.0101062 0.47568
-0.0476887 0.00136354 0.49182
-0.0530133 0.00182408 0.493418
-0.0443606 -0.00285515 0.491684
-0.061274 -0.0158058 0.481665
-0.0571638 -0.0227251 0.484257
-0.0585506 -0.0139349 0.499004
-0.0616359 -0.00841081 0.49674
-0.0426463 -0.0108077 0.477165
-0.0516169 -0.00414315 0.476193
-0.0460422 -0.00581348 0.475927
-0.0492878 -0.0236084 0.485254
-0.0571606 -0.0229422 0.477797
-0.061211 -0.0134448 0.456364
-0.0611183 -0.0163426 0.473023
-0.0601292 -0.00956571 0.473479
-0.0616387 -0.00882321 0.457435
-0.0611371 -0.0166031 0.476578
-0.0572955 -0.0218864 0.472325
-0.0487814 -0.00328565 0.45698
-0.0549222 -0.00196108 0.458276
-0.0459424 -0.00771254 0.456548
-0.0504762 -0.0168249 0.500197
-0.0602675 -0.0015897 0.494367
-0.0467816 -0.0155696 0.454954
-0.0454112 -0.0115039 0.455958
-0.0569884 -0.00635784 0.473268
-0.0598727 -0.00431934 0.458266
-0.0580469 -0.017684 0.456381
-0.051432 -0.0194684 0.456126
-0.0587999 -0.0148393 0.450777
-0.0523224 -0.0171227 0.450232
-0.0472814 -0.0140712 0.449597
-0.0456301 -0.0100742 0.45147
-0.0464309 -0.00628423 0.452631
-0.0610686 -0.0102795 0.451223
-0.0610477 -0.00655936 0.452544
-0.0586499 -0.00373388 0.455415
-0.0613953 -0.00711833 0.447748
-0.0585246 -0.0106404 0.444338
-0.0477281 -0.00130432 0.434814
-0.0477029 -0.00495008 0.439311
-0.0487366 -0.005654 0.438596
-0.0487794 -0.00230339 0.433927
-0.0485203 -0.0104403 0.442981
-0.0499101 -0.00987094 0.441553
-0.0533329 -0.011001 0.441987
-0.0537648 -0.00646343 0.437211
-0.0589131 -0.00446918 0.439634
-0.0583326 -0.00139375 0.435405
-0.053405 -0.00322078 0.432593
-0.0575198 -0.00944386 0.442722
-0.0498089 -2.64228e-05 0.431267
-0.0482474 0.000775595 0.430753
-0.0529234 -0.0127407 0.443681
-0.0454037 -0.00800489 0.446206
-0.045997 -0.00289847 0.44073
-0.0457678 0.000846025 0.436313
-0.047848 0.00410618 0.433263
-0.0467059 0.00058074 0.442647
-0.0470763 0.0035078 0.438198
-0.0488669 0.00591143 0.435487
-0.0486747 0.00289867 0.444677
-0.0492552 0.00556366 0.440052
-0.0486448 -0.00249354 0.452573
-0.0461191 -0.0050204 0.449478
-0.0504194 0.00666962 0.437266
-0.0530961 0.00156714 0.429834
-0.0538197 0.00568233 0.431891
-0.0530947 -0.000201184 0.430965
-0.0602367 -0.00427335 0.440888
-0.060135 0.000415464 0.435661
-0.0613625 -0.00183388 0.442843
-0.0609249 0.00258104 0.437564
-0.0582321 0.00202316 0.431921
-0.0572929 0.000707474 0.432157
-0.0496157 -0.00303822 0.454753
-0.0545865 -0.00207807 0.455782
-0.0531003 -0.00114669 0.453972
-0.0531345 0.00480583 0.445525
-0.057606 -0.00214126 0.453625
-0.0607884 -0.00320132 0.449166
-0.060305 0.000898857 0.444283
-0.0577636 0.00372799 0.444951
-0.0600655 0.00453789 0.439261
-0.0577379 0.0052966 0.440936
-0.0531228 0.00714942 0.441424
-0.0578108 0.00597164 0.43571
-0.0587871 0.00456867 0.433455
-0.0532744 0.00733776 0.434516
-0.0564141 0.00683398 0.438024
-0.0531692 0.00785609 0.437328
-0.0577628 0.0012782 0.493503
-0.0771899 -0.0170639 0.485457
-0.0809704 -0.0147319 0.484797
-0.0811846 -0.0133596 0.486516
-0.0770044 -0.0148154 0.487306
-0.0786097 -0.0253327 0.494455
-0.075941 -0.0230727 0.490372
-0.0743219 -0.0211239 0.494028
-0.0768373 -0.0231619 0.497917
-0.083928 -0.0251725 0.495636
-0.082478 -0.0228837 0.499093
-0.0757936 -0.0202151 0.500854
-0.0730017 -0.0172264 0.496323
-0.0696161 -0.00298941 0.506049
-0.0729181 -0.00469229 0.511662
-0.0879047 0.00781093 0.504434
-0.0844498 0.011311 0.500011
-0.0847984 0.00249654 0.496845
-0.0878344 0.00135967 0.500894
-0.0757325 -0.0200859 0.48751
-0.0742539 -0.0172738 0.490496
-0.0898393 -0.0115365 0.492612
-0.0865313 -0.0102882 0.489516
-0.0858827 -0.0122956 0.487263
-0.0895935 -0.0132426 0.48932
-0.0788239 0.00982022 0.49796
-0.0741324 0.00830365 0.497856
-0.0743803 0.00404665 0.495816
-0.0795032 0.00238857 0.494895
-0.0697729 -5.02945e-05 0.498744
-0.0907359 -0.0145202 0.496495
-0.0883251 -0.0183886 0.500618
-0.0879561 -0.00273337 0.511304
-0.0886692 0.000379917 0.506402
-0.0732393 -0.0153801 0.492508
-0.0816443 -0.0105217 0.488489
-0.0770101 -0.0129556 0.488674
-0.0823583 -0.0206608 0.502838
-0.0891031 -0.0204109 0.497395
-0.09362 -0.021735 0.482835
-0.0917272 -0.0171478 0.490609
-0.0897619 -0.0140494 0.486602
-0.0923843 -0.0196995 0.480727
-0.0910236 -0.0162834 0.493357
-0.0901606 -0.0220333 0.493731
-0.079704 -0.0214179 0.478479
-0.084622 -0.0184709 0.478342
-0.0786338 -0.0241031 0.48044
-0.079836 -0.00504022 0.5146
-0.0820089 -0.0290919 0.485365
-0.0790331 -0.0270478 0.4825
-0.0855153 -0.0137514 0.484946
-0.0895179 -0.0183452 0.479155
-0.0929553 -0.0254262 0.485004
-0.0874528 -0.0290556 0.48773
-0.09358 -0.0268743 0.480597
-0.0880705 -0.0304385 0.483378
-0.0819243 -0.0300661 0.4813
-0.0792629 -0.0274118 0.479767
-0.0788855 -0.0249448 0.477992
-0.0944819 -0.0233239 0.478541
-0.0927084 -0.020926 0.47679
-0.0896639 -0.019178 0.47612
-0.0947081 -0.0250795 0.474248
-0.0935401 -0.0297172 0.475183
-0.0829113 -0.0322605 0.467516
-0.0824736 -0.0313578 0.471367
-0.0838793 -0.0320417 0.471514
-0.0836184 -0.03347 0.467814
-0.0830618 -0.0313351 0.476406
-0.0844706 -0.0318412 0.475594
-0.0878299 -0.0318719 0.476712
-0.0879057 -0.0332069 0.472001
-0.0931299 -0.0309242 0.470223
-0.0927594 -0.03264 0.466401
-0.0883985 -0.0345818 0.46871
-0.0920805 -0.0311154 0.47461
-0.0846343 -0.0347918 0.465548
-0.0839641 -0.0345907 0.464292
-0.0879335 -0.0320185 0.478357
-0.0799042 -0.028154 0.476263
-0.0806435 -0.0297397 0.469987
-0.0818842 -0.0314756 0.465251
-0.0841275 -0.0327074 0.462517
-0.0802988 -0.027483 0.469717
-0.0819758 -0.0292997 0.464161
-0.0841059 -0.0301869 0.461705
-0.0812315 -0.0241724 0.4686
-0.0828256 -0.0267243 0.464179
-0.0805037 -0.0217871 0.474334
-0.0795555 -0.02506 0.475209
-0.0845599 -0.0284406 0.462067
-0.087801 -0.035171 0.463621
-0.087688 -0.0326907 0.461475
-0.0884198 -0.0356912 0.465268
-0.0940282 -0.0299123 0.469519
-0.0934543 -0.0315763 0.465167
-0.0943454 -0.0272835 0.468644
-0.0933557 -0.0294458 0.463788
-0.0915994 -0.0333669 0.463207
-0.0911029 -0.0342211 0.465135
-0.0803348 -0.0216028 0.476177
-0.0847787 -0.0194072 0.476027
-0.084793 -0.0197232 0.47369
-0.0847299 -0.0222449 0.467959
-0.0897947 -0.0195937 0.473514
-0.0930447 -0.0219224 0.473822
-0.0930381 -0.0247469 0.468124
-0.0899839 -0.0226316 0.467523
-0.0920299 -0.0275622 0.46295
-0.0896259 -0.0254915 0.462931
-0.0854847 -0.0252059 0.463316
-0.0896217 -0.0301347 0.461095
-0.0905624 -0.0317962 0.461584
-0.0872805 -0.0304508 0.460938
-0.0883345 -0.028038 0.461059
-0.0864214 -0.0281054 0.46138
-0.0883738 0.00439925 0.507681
0.0133813 0.0518384 0.504817
0.00994492 0.0468541 0.50367
0.00788686 0.0502174 0.486776
0.00766952 0.0444949 0.492505
0.0112305 0.0568785 0.484992
0.016657 0.0638284 0.492448
0.0135573 0.0616968 0.488219
0.00834374 0.0436522 0.498507
0.0159455 0.0572323 0.504318
0.0177054 0.0631897 0.499547
0.0225136 0.0546474 0.501548
0.0237955 0.0599955 0.495832
0.0223607 0.0602024 0.488577
0.0186152 0.0580092 0.484183
0.0158843 0.0540142 0.481909
0.0183773 0.0481143 0.502566
0.0150753 0.0432273 0.500842
0.0120623 0.0411725 0.495118
0.0244858 0.0434757 0.499643
0.0334326 0.044269 0.493567
0.0416987 0.0446154 0.475965
0.0365725 0.0479649 0.477616
0.0384474 0.048023 0.480486
0.0430961 0.0456692 0.478838
0.0334441 0.0506704 0.481224
0.0350327 0.0499816 0.482882
0.0353031 0.0485974 0.48861
0.0395359 0.0467172 0.487177
0.0353168 0.044692 0.492042
0.0380888 0.0418115 0.490964
0.0443657 0.0441619 0.485756
0.0465447 0.0441327 0.480159
0.0479879 0.0413958 0.484253
0.0456074 0.0416871 0.477775
0.0355164 0.0502422 0.488534
0.0262755 0.0525658 0.479274
0.0323531 0.0471433 0.475637
0.038493 0.0423662 0.474625
0.0434021 0.0387587 0.476691
0.0280255 0.0432936 0.475003
0.0341179 0.0389011 0.475203
0.0391217 0.0356793 0.477705
0.025499 0.0396371 0.477377
0.0320018 0.0359863 0.477486
0.0145863 0.0465076 0.4823
0.019439 0.0505405 0.479004
0.0363585 0.0347291 0.478783
0.0486007 0.0388908 0.482864
0.0460167 0.0358883 0.482137
0.0357704 0.0395583 0.493081
0.0427698 0.0394245 0.490047
0.0406253 0.036474 0.490903
0.0319665 0.0372583 0.494219
0.0384361 0.0341579 0.490441
0.0455997 0.0361636 0.487309
0.0463132 0.0394363 0.487202
0.0114811 0.0489108 0.48397
0.0104678 0.0439845 0.489249
0.0137368 0.0420774 0.487985
0.02369 0.0356186 0.482769
0.0160875 0.0386013 0.493747
0.0204001 0.0401381 0.498224
0.0286116 0.0347436 0.492619
0.025159 0.0340866 0.488849
0.03535 0.0323124 0.488241
0.0332976 0.0320425 0.485904
0.0321272 0.0330703 0.481185
0.0398884 0.0324531 0.485138
0.0433754 0.0337798 0.487013
0.0411333 0.0337086 0.481441
0.0368065 0.0319482 0.484323
0.0372597 0.0331596 0.481604
-0.0854669 0.0166261 0.50138
-0.0784025 0.0165258 0.498862
-0.0808013 0.0231831 0.500624
-0.082002 0.0327601 0.50296
-0.0889266 0.0399727 0.50897
-0.074763 0.0335024 0.502844
-0.0736754 0.0238706 0.500243
-0.0700387 0.0146414 0.498411
-0.0688241 0.0422517 0.50645
3 1 2 0
3 0 2 3
3 4 5 7
3 7 5 6
3 8 3 9
3 9 3 2
3 11 12 10
3 10 12 8
3 13 11 15
3 15 11 14
3 17 18 16
3 16 18 19
3 21 22 20
3 20 22 23
3 25 26 24
3 24 26 27
3 29 30 28
3 28 30 31
3 32 33 35
3 35 33 34
3 36 37 39
3 39 37 38
3 40 41 5
3 5 41 42
3 5 42 6
3 6 42 43
3 44 33 45
3 45 33 32
3 47 48 46
3 46 48 49
3 51 52 50
3 50 52 53
3 55 51 54
3 54 51 50
3 57 58 56
3 56 58 59
3 60 61 3
3 3 61 0
3 63 64 62
3 62 64 65
3 67 68 66
3 66 68 69
3 71 72 70
3 70 72 73
3 75 76 74
3 74 76 77
3 52 78 53
3 53 78 79
3 81 82 80
3 80 82 83
3 84 85 51
3 51 85 52
3 56 59 86
3 86 59 87
3 88 89 42
3 42 89 43
3 42 41 88
3 88 41 90
3 39 38 91
3 91 38 92
3 93 69 63
3 63 69 68
3 12 60 8
3 8 60 3
3 24 27 68
3 68 27 94
3 95 24 67
3 67 24 68
3 97 98 96
3 96 98 99
3 100 101 103
3 103 101 102
3 105 29 104
3 104 29 28
3 50 53 106
3 106 53 107
3 53 79 107
3 107 79 108
3 110 111 109
3 109 111 112
3 114 4 113
3 113 4 115
3 114 40 4
3 4 40 5
3 35 34 110
3 110 34 116
3 34 117 116
3 116 117 118
3 33 119 34
3 34 119 117
3 33 44 119
3 119 44 120
3 124 125 123
3 123 125 126
3 127 128 13
3 13 128 129
3 32 130 45
3 45 130 131
3 132 93 62
3 62 93 63
3 133 134 136
3 136 134 135
3 138 139 137
3 137 139 140
3 76 141 77
3 77 141 142
3 143 144 19
3 19 144 145
3 147 148 146
3 146 148 71
3 150 151 149
3 149 151 152
3 81 100 82
3 82 100 103
3 100 81 154
3 154 81 153
3 155 156 57
3 57 156 58
3 157 67 146
3 146 67 66
3 158 145 14
3 14 145 15
3 67 157 95
3 95 157 159
3 128 65 129
3 129 65 64
3 161 162 160
3 160 162 163
3 165 166 164
3 164 166 167
3 169 170 168
3 168 170 171
3 173 170 172
3 172 170 169
3 175 176 174
3 174 176 177
3 179 180 178
3 178 180 23
3 181 182 20
3 20 182 183
3 80 184 81
3 81 184 153
3 185 186 187
3 187 186 143
3 157 70 159
3 159 70 188
3 189 134 156
3 156 134 58
3 168 171 138
3 138 171 139
3 146 71 157
3 157 71 70
3 191 192 190
3 190 192 193
3 166 165 48
3 48 165 194
3 195 189 49
3 49 189 156
3 196 197 199
3 199 197 198
3 20 23 181
3 181 23 180
3 145 158 19
3 19 158 16
3 181 180 80
3 80 180 184
3 200 184 179
3 179 184 180
3 201 202 82
3 82 202 83
3 204 205 203
3 203 205 84
3 206 21 183
3 183 21 20
3 178 23 207
3 207 23 22
3 207 208 178
3 178 208 204
3 208 209 204
3 204 209 205
3 211 205 210
3 210 205 209
3 178 204 179
3 179 204 203
3 212 175 87
3 87 175 213
3 85 84 211
3 211 84 205
3 192 216 217
3 216 218 217
3 217 218 219
3 218 17 219
3 219 17 16
3 18 220 19
3 19 220 143
3 221 222 224
3 224 222 223
3 174 225 175
3 175 225 213
3 226 86 213
3 213 86 87
3 219 16 227
3 227 16 158
3 133 212 59
3 59 212 87
3 137 228 150
3 150 228 151
3 192 191 209
3 209 191 210
3 229 193 217
3 217 193 192
3 230 231 227
3 227 231 229
3 232 233 90
3 90 233 88
3 234 235 92
3 92 235 91
3 229 231 233
3 233 231 236
3 46 237 47
3 47 237 238
3 239 190 234
3 234 190 235
3 4 7 115
3 115 7 240
3 241 242 188
3 188 242 159
3 243 244 97
3 97 244 98
3 155 245 46
3 46 245 237
3 75 246 76
3 76 246 247
3 249 124 248
3 248 124 123
3 251 252 250
3 250 252 253
3 110 109 35
3 35 109 254
3 255 32 254
3 254 32 35
3 256 257 153
3 153 257 154
3 62 168 132
3 132 168 138
3 65 169 62
3 62 169 168
3 172 169 128
3 128 169 65
3 128 127 172
3 172 127 258
3 127 259 258
3 258 259 260
3 212 133 261
3 261 133 136
3 262 263 185
3 185 263 186
3 111 264 112
3 112 264 265
3 10 266 267
3 233 232 229
3 229 232 193
3 152 268 69
3 69 268 66
3 174 177 164
3 164 177 140
3 149 152 93
3 93 152 69
3 270 220 269
3 269 220 206
3 268 152 271
3 271 152 151
3 120 44 108
3 108 44 107
3 46 49 155
3 155 49 156
3 56 272 57
3 57 272 273
3 144 274 259
3 259 274 260
3 275 148 142
3 142 148 77
3 147 268 74
3 74 268 271
3 206 276 269
3 269 276 277
3 194 195 48
3 48 195 49
3 58 134 59
3 59 134 133
3 82 103 201
3 201 103 278
3 148 147 77
3 77 147 74
3 246 277 247
3 247 277 276
3 182 181 83
3 83 181 80
3 47 238 280
3 280 238 281
3 226 222 282
3 282 222 221
3 222 225 223
3 223 225 167
3 280 281 223
3 223 281 224
3 164 167 174
3 174 167 225
3 263 262 137
3 137 262 228
3 13 15 127
3 127 15 259
3 219 227 217
3 217 227 229
3 86 226 283
3 283 226 282
3 259 15 144
3 144 15 145
3 243 97 257
3 257 97 154
3 57 273 155
3 155 273 245
3 106 284 50
3 50 284 54
3 242 285 159
3 159 285 95
3 233 236 88
3 88 236 89
3 45 131 106
3 106 131 284
3 252 251 248
3 248 251 249
3 285 25 95
3 95 25 24
3 105 104 286
3 286 104 287
3 271 151 288
3 288 151 228
3 137 150 138
3 138 150 132
3 182 289 160
3 160 289 161
3 290 291 276
3 276 291 292
3 150 149 132
3 132 149 93
3 261 274 176
3 176 274 186
3 143 186 144
3 144 186 274
3 272 56 283
3 283 56 86
3 173 135 189
3 189 135 134
3 110 116 111
3 111 116 37
3 116 118 37
3 37 118 122
3 111 37 264
3 264 37 36
3 286 287 253
3 253 287 250
3 227 158 230
3 230 158 14
3 222 226 225
3 225 226 213
3 146 66 147
3 147 66 268
3 223 167 280
3 280 167 166
3 198 162 199
3 199 162 161
3 44 45 107
3 107 45 106
3 280 166 47
3 47 166 48
3 160 163 290
3 290 163 291
3 37 122 38
3 292 293 276
3 276 293 247
3 283 282 295
3 295 282 294
3 283 295 272
3 272 295 296
3 273 272 297
3 297 272 296
3 245 273 298
3 298 273 297
3 282 221 294
3 294 221 299
3 221 224 299
3 299 224 300
3 300 224 301
3 301 224 281
3 302 303 299
3 299 303 294
3 305 306 304
3 304 306 307
3 308 309 307
3 307 309 304
3 307 306 311
3 311 306 310
3 312 313 311
3 311 313 314
3 310 315 311
3 311 315 312
3 316 303 310
3 310 303 315
3 314 308 311
3 311 308 307
3 317 318 320
3 320 318 319
3 318 317 308
3 308 317 309
3 310 306 316
3 316 306 305
3 305 296 316
3 316 296 295
3 305 321 296
3 296 321 297
3 304 322 305
3 305 322 321
3 322 304 323
3 323 304 309
3 303 316 294
3 294 316 295
3 317 324 309
3 309 324 323
3 322 323 325
3 325 323 326
3 323 324 326
3 326 324 327
3 325 326 328
3 328 326 329
3 328 330 325
3 325 330 331
3 332 329 327
3 327 329 326
3 322 325 321
3 321 325 331
3 321 331 297
3 297 331 298
3 324 317 333
3 333 317 320
3 312 315 334
3 334 315 303
3 334 335 312
3 312 335 313
3 303 302 334
3 334 302 336
3 335 334 337
3 337 334 336
3 335 338 313
3 313 338 339
3 245 298 237
3 237 298 340
3 238 341 281
3 281 341 301
3 341 238 340
3 340 238 237
3 340 330 341
3 341 330 342
3 330 328 342
3 342 328 343
3 341 342 301
3 301 342 344
3 340 298 330
3 330 298 331
3 345 300 344
3 344 300 301
3 345 302 300
3 300 302 299
3 346 336 345
3 345 336 302
3 346 345 347
3 347 345 344
3 348 346 349
3 349 346 347
3 342 343 344
3 344 343 347
3 343 350 347
3 347 350 349
3 336 346 337
3 337 346 348
3 352 337 351
3 351 337 348
3 351 354 353
3 353 354 355
3 351 348 354
3 354 348 349
3 351 353 352
3 352 353 333
3 352 333 338
3 338 333 320
3 338 335 352
3 352 335 337
3 328 329 343
3 343 329 350
3 355 350 332
3 332 350 329
3 355 354 350
3 350 354 349
3 353 355 327
3 327 355 332
3 327 324 353
3 353 324 333
3 308 314 318
3 318 314 319
3 319 339 320
3 320 339 338
3 319 314 339
3 339 314 313
3 136 135 260
3 260 135 258
3 139 165 140
3 140 165 164
3 171 170 194
3 194 170 195
3 170 173 195
3 195 173 189
3 177 176 263
3 263 176 186
3 171 194 139
3 139 194 165
3 136 260 261
3 261 260 274
3 177 263 140
3 140 263 137
3 261 176 212
3 212 176 175
3 135 173 258
3 258 173 172
3 357 358 356
3 356 358 359
3 361 362 360
3 360 362 363
3 360 363 364
3 364 363 365
3 366 367 369
3 369 367 368
3 75 370 246
3 246 370 371
3 372 373 361
3 361 373 362
3 375 376 374
3 374 376 377
3 288 228 379
3 379 228 378
3 380 378 262
3 262 378 228
3 382 383 381
3 381 383 384
3 385 367 373
3 373 367 362
3 75 288 370
3 370 288 379
3 376 375 358
3 358 375 386
3 387 385 359
3 359 385 373
3 388 382 365
3 365 382 389
3 391 392 390
3 390 392 393
3 382 381 389
3 389 381 394
3 395 364 389
3 389 364 365
3 388 365 366
3 366 365 363
3 356 396 357
3 357 396 397
3 372 398 356
3 356 398 396
3 388 366 399
3 399 366 369
3 381 384 374
3 374 384 371
3 356 359 372
3 372 359 373
3 360 400 361
3 361 400 401
3 386 387 358
3 358 387 359
3 362 367 363
3 363 367 366
3 357 397 402
3 402 397 403
3 395 391 404
3 404 391 390
3 391 394 392
3 392 394 377
3 392 402 393
3 393 402 403
3 374 377 381
3 381 377 394
3 364 395 405
3 405 395 404
3 361 401 372
3 372 401 398
3 270 269 399
3 399 269 383
3 400 360 405
3 405 360 364
3 380 368 385
3 385 368 367
3 391 395 394
3 394 395 389
3 392 377 402
3 402 377 376
3 402 376 357
3 357 376 358
3 405 404 407
3 407 404 406
3 405 407 400
3 400 407 408
3 400 408 401
3 401 408 409
3 401 409 398
3 398 409 410
3 404 390 406
3 406 390 411
3 390 393 411
3 411 393 412
3 393 403 412
3 412 403 413
3 414 415 411
3 411 415 406
3 417 418 416
3 416 418 419
3 420 421 417
3 417 421 418
3 418 421 423
3 423 421 422
3 424 425 423
3 423 425 426
3 422 427 423
3 423 427 424
3 426 419 423
3 423 419 418
3 419 428 416
3 416 428 429
3 422 421 430
3 430 421 420
3 420 408 430
3 430 408 407
3 420 431 408
3 408 431 409
3 417 432 420
3 420 432 431
3 433 432 416
3 416 432 417
3 430 415 422
3 422 415 427
3 415 430 406
3 406 430 407
3 434 433 429
3 429 433 416
3 432 433 435
3 435 433 436
3 433 434 436
3 436 434 437
3 435 436 438
3 438 436 439
3 438 440 435
3 435 440 441
3 437 442 436
3 436 442 439
3 435 441 432
3 432 441 431
3 431 441 409
3 409 441 410
3 434 429 444
3 444 429 443
3 429 428 443
3 443 428 445
3 424 427 446
3 446 427 415
3 425 424 447
3 447 424 446
3 415 414 446
3 446 414 448
3 446 448 447
3 447 448 449
3 450 451 447
3 447 451 425
3 445 451 443
3 443 451 450
3 398 410 396
3 396 410 452
3 397 453 403
3 403 453 413
3 453 397 452
3 452 397 396
3 452 440 453
3 453 440 454
3 440 438 454
3 454 438 455
3 453 454 413
3 413 454 456
3 440 452 441
3 441 452 410
3 457 412 456
3 456 412 413
3 457 414 412
3 412 414 411
3 457 458 414
3 414 458 448
3 458 457 459
3 459 457 456
3 460 458 461
3 461 458 459
3 454 455 456
3 456 455 459
3 455 462 459
3 459 462 461
3 458 460 448
3 448 460 449
3 464 449 463
3 463 449 460
3 463 466 465
3 465 466 467
3 463 460 466
3 466 460 461
3 463 465 464
3 464 465 444
3 464 444 450
3 450 444 443
3 450 447 464
3 464 447 449
3 438 439 455
3 455 439 462
3 467 462 442
3 442 462 439
3 467 466 462
3 462 466 461
3 465 467 437
3 437 467 442
3 437 434 465
3 465 434 444
3 419 426 428
3 428 426 445
3 445 426 451
3 451 426 425
3 369 368 187
3 187 368 185
3 370 375 371
3 371 375 374
3 379 378 386
3 386 378 387
3 378 380 387
3 387 380 385
3 384 383 277
3 277 383 269
3 379 386 370
3 370 386 375
3 399 369 270
3 270 369 187
3 384 277 371
3 371 277 246
3 399 383 388
3 388 383 382
3 368 380 185
3 185 380 262
3 220 270 143
3 143 270 187
3 220 18 206
3 206 18 21
3 18 17 21
3 21 17 22
3 17 218 22
3 22 218 207
3 468 469 471
3 471 469 470
3 473 474 472
3 472 474 475
3 472 475 476
3 476 475 477
3 479 480 478
3 478 480 481
3 482 483 473
3 473 483 474
3 485 486 484
3 484 486 487
3 488 489 76
3 76 489 141
3 490 488 247
3 247 488 76
3 492 493 491
3 491 493 494
3 495 479 483
3 483 479 474
3 485 496 486
3 486 496 470
3 497 495 471
3 471 495 483
3 498 492 477
3 477 492 499
3 500 501 503
3 503 501 502
3 492 491 499
3 499 491 504
3 505 476 499
3 499 476 477
3 498 477 478
3 478 477 475
3 468 506 469
3 469 506 507
3 482 508 468
3 468 508 506
3 478 481 498
3 498 481 509
3 491 494 484
3 484 494 510
3 482 468 483
3 483 468 471
3 472 511 473
3 473 511 512
3 496 497 470
3 470 497 471
3 474 479 475
3 475 479 478
3 469 507 513
3 513 507 514
3 505 501 515
3 515 501 500
3 502 501 487
3 487 501 504
3 513 514 502
3 502 514 503
3 484 487 491
3 491 487 504
3 476 505 516
3 516 505 515
3 473 512 482
3 482 512 508
3 509 291 493
3 493 291 163
3 511 472 516
3 516 472 476
3 490 480 495
3 495 480 479
3 501 505 504
3 504 505 499
3 502 487 513
3 513 487 486
3 513 486 469
3 469 486 470
3 516 515 518
3 518 515 517
3 516 518 511
3 511 518 519
3 511 519 512
3 512 519 520
3 512 520 508
3 508 520 521
3 515 500 517
3 517 500 522
3 500 503 522
3 522 503 523
3 523 503 524
3 524 503 514
3 525 526 522
3 522 526 517
3 528 529 527
3 527 529 530
3 531 532 528
3 528 532 529
3 529 532 534
3 534 532 533
3 535 536 534
3 534 536 537
3 533 538 534
3 534 538 535
3 537 530 534
3 534 530 529
3 539 540 530
3 530 540 527
3 532 531 533
3 533 531 541
3 531 519 541
3 541 519 518
3 531 542 519
3 519 542 520
3 528 543 531
3 531 543 542
3 543 528 544
3 544 528 527
3 533 541 538
3 538 541 526
3 526 541 517
3 517 541 518
3 540 545 527
3 527 545 544
3 546 543 547
3 547 543 544
3 545 548 544
3 544 548 547
3 549 546 550
3 550 546 547
3 546 549 552
3 552 549 551
3 548 553 547
3 547 553 550
3 543 546 542
3 542 546 552
3 542 552 520
3 520 552 521
3 545 540 555
3 555 540 554
3 540 539 554
3 554 539 556
3 535 538 557
3 557 538 526
3 536 535 558
3 558 535 557
3 526 525 557
3 557 525 559
3 558 557 560
3 560 557 559
3 558 561 536
3 536 561 562
3 556 562 554
3 554 562 561
3 508 521 506
3 506 521 563
3 507 564 514
3 514 564 524
3 564 507 563
3 563 507 506
3 563 551 564
3 564 551 565
3 551 549 565
3 565 549 566
3 564 565 524
3 524 565 567
3 563 521 551
3 551 521 552
3 568 523 567
3 567 523 524
3 568 525 523
3 523 525 522
3 569 559 568
3 568 559 525
3 569 568 570
3 570 568 567
3 571 569 572
3 572 569 570
3 565 566 567
3 567 566 570
3 566 573 570
3 570 573 572
3 569 571 559
3 559 571 560
3 575 560 574
3 574 560 571
3 574 577 576
3 576 577 578
3 574 571 577
3 577 571 572
3 574 576 575
3 575 576 555
3 575 555 561
3 561 555 554
3 561 558 575
3 575 558 560
3 549 550 566
3 566 550 573
3 578 573 553
3 553 573 550
3 578 577 573
3 573 577 572
3 578 553 576
3 576 553 548
3 548 545 576
3 576 545 555
3 530 537 539
3 539 537 556
3 556 537 562
3 562 537 536
3 480 293 481
3 481 293 292
3 579 485 510
3 510 485 484
3 489 488 496
3 496 488 497
3 488 490 497
3 497 490 495
3 162 494 163
3 163 494 493
3 579 489 485
3 485 489 496
3 481 292 509
3 509 292 291
3 494 162 510
3 510 162 198
3 493 492 509
3 509 492 498
3 480 490 293
3 293 490 247
3 581 582 580
3 580 582 583
3 585 586 584
3 584 586 587
3 584 587 588
3 588 587 589
3 591 592 590
3 590 592 593
3 594 595 597
3 597 595 596
3 598 599 585
3 585 599 586
3 600 601 603
3 603 601 602
3 604 605 607
3 607 605 606
3 608 606 199
3 199 606 605
3 609 610 612
3 612 610 611
3 599 613 586
3 586 613 591
3 595 604 596
3 596 604 607
3 601 614 602
3 602 614 582
3 615 613 583
3 583 613 599
3 610 617 616
3 616 617 589
3 619 620 618
3 618 620 621
3 609 622 610
3 610 622 617
3 623 588 617
3 617 588 589
3 616 589 590
3 590 589 587
3 580 624 581
3 581 624 625
3 598 626 580
3 580 626 624
3 590 593 616
3 616 593 627
3 600 609 597
3 597 609 612
3 580 583 598
3 598 583 599
3 584 628 585
3 585 628 629
3 614 615 582
3 582 615 583
3 586 591 587
3 587 591 590
3 581 625 630
3 630 625 631
3 623 619 632
3 632 619 618
3 620 619 603
3 603 619 622
3 630 631 620
3 620 631 621
3 609 600 622
3 622 600 603
3 588 623 633
3 633 623 632
3 585 629 598
3 598 629 626
3 202 201 627
3 627 201 611
3 628 584 633
3 633 584 588
3 608 592 613
3 613 592 591
3 619 623 622
3 622 623 617
3 630 620 602
3 602 620 603
3 581 630 582
3 582 630 602
3 633 632 635
3 635 632 634
3 633 635 628
3 628 635 636
3 628 636 629
3 629 636 637
3 629 637 626
3 626 637 638
3 632 618 634
3 634 618 639
3 618 621 639
3 639 621 640
3 640 621 641
3 641 621 631
3 643 634 642
3 642 634 639
3 644 645 647
3 647 645 646
3 648 649 645
3 645 649 646
3 646 649 651
3 651 649 650
3 651 652 654
3 654 652 653
3 650 655 651
3 651 655 652
3 654 647 651
3 651 647 646
3 647 656 644
3 644 656 657
3 649 648 650
3 650 648 658
3 648 636 658
3 658 636 635
3 648 659 636
3 636 659 637
3 660 659 645
3 645 659 648
3 661 660 644
3 644 660 645
3 650 658 655
3 655 658 643
3 643 658 634
3 634 658 635
3 662 661 657
3 657 661 644
3 663 660 664
3 664 660 661
3 662 665 661
3 661 665 664
3 666 663 667
3 667 663 664
3 663 666 669
3 669 666 668
3 665 670 664
3 664 670 667
3 660 663 659
3 659 663 669
3 659 669 637
3 637 669 638
3 657 671 662
3 662 671 672
3 657 656 671
3 671 656 673
3 652 655 674
3 674 655 643
3 652 674 653
3 653 674 675
3 674 643 676
3 676 643 642
3 675 674 677
3 677 674 676
3 678 679 675
3 675 679 653
3 673 679 671
3 671 679 678
3 626 638 624
3 624 638 680
3 625 681 631
3 631 681 641
3 680 681 624
3 624 681 625
3 668 682 680
3 680 682 681
3 666 683 668
3 668 683 682
3 681 682 641
3 641 682 684
3 680 638 668
3 668 638 669
3 685 640 684
3 684 640 641
3 640 685 639
3 639 685 642
3 685 686 642
3 642 686 676
3 686 685 687
3 687 685 684
3 688 686 689
3 689 686 687
3 682 683 684
3 684 683 687
3 683 690 687
3 687 690 689
3 686 688 676
3 676 688 677
3 692 677 691
3 691 677 688
3 691 694 693
3 693 694 695
3 691 688 694
3 694 688 689
3 691 693 692
3 692 693 672
3 692 672 678
3 678 672 671
3 678 675 692
3 692 675 677
3 683 666 690
3 690 666 667
3 695 690 670
3 670 690 667
3 695 694 690
3 690 694 689
3 693 695 665
3 665 695 670
3 665 662 693
3 693 662 672
3 647 654 656
3 656 654 673
3 673 654 679
3 679 654 653
3 592 161 593
3 593 161 289
3 597 596 600
3 600 596 601
3 614 607 615
3 615 607 606
3 606 608 615
3 615 608 613
3 696 594 612
3 612 594 597
3 596 607 601
3 601 607 614
3 593 289 627
3 627 289 202
3 627 611 616
3 616 611 610
3 592 608 161
3 161 608 199
3 104 28 697
3 697 28 698
3 267 125 700
3 700 125 699
3 125 124 699
3 699 124 701
3 251 702 249
3 249 702 703
3 31 267 704
3 704 267 700
3 287 104 705
3 705 104 697
3 28 31 698
3 698 31 704
3 706 250 705
3 705 250 287
3 249 703 124
3 124 703 701
3 702 251 706
3 706 251 250
3 705 707 706
3 706 707 708
3 706 708 702
3 702 708 709
3 702 709 703
3 703 709 710
3 703 710 701
3 701 710 711
3 705 697 707
3 707 697 712
3 697 698 712
3 712 698 713
3 698 704 713
3 713 704 714
3 716 707 715
3 715 707 712
3 718 719 717
3 717 719 720
3 721 722 718
3 718 722 719
3 723 724 722
3 722 724 719
3 723 725 724
3 724 725 726
3 727 720 724
3 724 720 719
3 720 727 728
3 728 727 729
3 728 730 720
3 720 730 717
3 723 722 731
3 731 722 721
3 721 709 731
3 731 709 708
3 721 732 709
3 709 732 710
3 718 733 721
3 721 733 732
3 733 718 734
3 734 718 717
3 723 731 725
3 725 731 716
3 716 731 707
3 707 731 708
3 730 735 717
3 717 735 734
3 736 733 737
3 737 733 734
3 735 738 734
3 734 738 737
3 739 736 740
3 740 736 737
3 736 739 742
3 742 739 741
3 738 743 737
3 737 743 740
3 733 736 732
3 732 736 742
3 732 742 710
3 710 742 711
3 735 730 745
3 745 730 744
3 730 728 744
3 744 728 729
3 726 725 746
3 746 725 716
3 747 726 748
3 748 726 746
3 746 716 749
3 749 716 715
3 748 746 750
3 750 746 749
3 748 751 747
3 747 751 752
3 729 752 744
3 744 752 751
3 727 724 747
3 747 724 726
3 729 727 752
3 752 727 747
3 699 701 753
3 753 701 711
3 704 700 714
3 714 700 754
3 753 754 699
3 699 754 700
3 741 755 753
3 753 755 754
3 739 756 741
3 741 756 755
3 754 755 714
3 714 755 757
3 753 711 741
3 741 711 742
3 758 713 757
3 757 713 714
3 713 758 712
3 712 758 715
3 758 759 715
3 715 759 749
3 759 758 760
3 760 758 757
3 761 759 762
3 762 759 760
3 755 756 757
3 757 756 760
3 756 763 760
3 760 763 762
3 759 761 749
3 749 761 750
3 765 750 764
3 764 750 761
3 766 764 768
3 768 764 767
3 764 761 767
3 767 761 762
3 764 766 765
3 765 766 745
3 765 745 751
3 751 745 744
3 751 748 765
3 765 748 750
3 756 739 763
3 763 739 740
3 768 763 743
3 743 763 740
3 768 767 763
3 763 767 762
3 766 768 738
3 738 768 743
3 738 735 766
3 766 735 745
3 218 216 207
3 207 216 208
3 208 216 209
3 209 216 192
3 197 579 198
3 198 579 510
3 75 74 288
3 288 74 271
3 276 206 290
3 290 206 183
3 289 182 202
3 202 182 83
3 489 579 141
3 141 579 197
3 141 197 142
3 142 197 196
3 148 275 71
3 71 275 72
3 103 102 278
3 278 102 769
3 769 595 278
3 278 595 594
3 604 595 770
3 770 595 769
3 770 769 771
3 771 769 102
3 771 102 772
3 772 102 101
3 154 773 100
3 100 773 101
3 772 101 96
3 96 101 773
3 774 772 99
3 99 772 96
3 772 774 771
3 771 774 775
3 771 775 770
3 770 775 776
3 199 605 196
3 196 605 776
3 188 70 777
3 777 70 73
3 96 773 97
3 97 773 154
3 182 160 183
3 183 160 290
3 776 275 196
3 196 275 142
3 776 605 770
3 770 605 604
3 612 611 696
3 696 611 201
3 594 696 278
3 278 696 201
3 72 275 775
3 775 275 776
3 775 774 72
3 72 774 73
3 99 777 774
3 774 777 73
3 777 99 188
3 188 99 98
3 244 241 98
3 98 241 188
3 130 32 255
3 27 0 94
3 94 0 61
3 26 1 27
3 27 1 0
3 264 114 265
3 265 114 113
3 94 61 68
3 68 61 63
3 61 60 63
3 63 60 64
3 60 12 64
3 64 12 129
3 12 11 129
3 129 11 13
3 30 10 31
3 31 10 267
3 14 11 30
3 30 11 10
3 30 29 14
3 14 29 230
3 29 105 230
3 230 105 231
3 286 236 105
3 105 236 231
3 253 89 286
3 286 89 236
3 252 43 253
3 253 43 89
3 252 248 43
3 43 248 6
3 266 126 267
3 267 126 125
3 9 2 240
3 240 2 115
3 2 1 115
3 115 1 113
3 1 26 113
3 113 26 265
3 26 25 265
3 265 25 112
3 25 285 112
3 112 285 109
3 285 242 109
3 109 242 254
3 242 241 254
3 254 241 255
3 241 244 255
3 255 244 130
3 244 243 130
3 130 243 131
3 264 36 114
3 114 36 40
3 40 36 41
3 41 36 39
3 91 90 39
3 39 90 41
3 235 232 91
3 91 232 90
3 190 193 235
3 235 193 232
3 257 284 243
3 243 284 131
3 256 54 257
3 257 54 284
3 256 153 200
3 200 153 184
3 55 200 203
3 203 200 179
3 54 256 55
3 55 256 200
3 203 84 55
3 55 84 51
3 85 121 52
3 52 121 78
3 211 214 85
3 85 214 121
3 210 215 211
3 211 215 214
3 191 279 210
3 210 279 215
3 190 239 191
3 191 239 279
3 248 123 6
3 6 123 7
3 123 126 7
3 7 126 240
3 126 266 240
3 240 266 9
3 9 266 8
3 8 266 10
